<svg width="71" height="69" viewBox="0 0 71 69" fill="none" xmlns="http://www.w3.org/2000/svg">
<g clip-path="url(#clip0_2_3)">
<path fill-rule="evenodd" clip-rule="evenodd" d="M21.9274 47.8063L15.359 59.4271H1.39725L7.96639 47.8063H21.9274ZM62.5872 47.8063L69.1578 59.4271H55.1946L48.6233 47.8063H62.5872ZM35.2775 0L56.8386 37.8193H42.8747L35.2768 24.4647L27.6796 37.8193H13.7185L35.2775 0Z" fill="#BC1A1A"/>
<path d="M57.4367 39.5006V42.2652C57.5419 42.2716 57.6199 42.2751 57.675 42.2751C58.0613 42.2751 58.3575 42.1607 58.5671 41.932C58.776 41.7054 58.8819 41.351 58.8819 40.8729C58.8819 40.3977 58.7768 40.0518 58.5671 39.8309C58.3582 39.61 58.047 39.5006 57.6313 39.5006H57.4367ZM57.4367 42.6324V44.4068C57.4367 44.7527 57.4575 44.97 57.5018 45.0588C57.5441 45.149 57.6206 45.2215 57.7286 45.2748C57.8388 45.328 58.0384 45.355 58.3303 45.355V45.5291H55.0565V45.355C55.3548 45.355 55.5559 45.3273 55.6632 45.2712C55.7683 45.2165 55.8427 45.1455 55.8871 45.0574C55.9293 44.9686 55.9501 44.7527 55.9501 44.4068V40.2557C55.9501 39.9098 55.9286 39.6924 55.8871 39.6022C55.8435 39.512 55.7683 39.441 55.6603 39.3884C55.553 39.3337 55.352 39.3081 55.0572 39.3081V39.1327H57.866C58.7904 39.1327 59.4536 39.2968 59.8556 39.6235C60.2577 39.9502 60.4587 40.3594 60.4587 40.8502C60.4587 41.2657 60.3293 41.6195 60.0695 41.9157C59.8098 42.2105 59.4521 42.4115 58.9964 42.5195C58.6888 42.5955 58.1679 42.6324 57.4367 42.6324ZM44.131 39.132H47.4557V39.3074H47.2904C47.0407 39.3074 46.869 39.333 46.7746 39.3848C46.6809 39.4367 46.6143 39.5091 46.575 39.5986C46.5363 39.6903 46.5149 39.919 46.5149 40.2834V43.4152C46.5149 43.9884 46.5585 44.367 46.6465 44.5538C46.7338 44.7385 46.8769 44.8919 47.0765 45.0162C47.2761 45.1384 47.5272 45.1995 47.832 45.1995C48.1811 45.1995 48.4773 45.1221 48.722 44.9658C48.9688 44.8095 49.152 44.5957 49.2736 44.3215C49.3952 44.0481 49.4568 43.5714 49.4568 42.8917V40.2834C49.4568 39.9964 49.426 39.7926 49.3659 39.6697C49.3058 39.5475 49.23 39.4623 49.1391 39.4154C48.996 39.3429 48.795 39.3074 48.5338 39.3074V39.132H50.7617V39.3074H50.6286C50.4491 39.3074 50.2981 39.3429 50.1779 39.4154C50.0584 39.4878 49.9704 39.5958 49.9168 39.7407C49.876 39.8423 49.8553 40.0227 49.8553 40.2834V42.7127C49.8553 43.4649 49.8052 44.0076 49.7057 44.3407C49.6056 44.6738 49.3623 44.98 48.976 45.2599C48.5904 45.5397 48.0609 45.6804 47.3934 45.6804C46.8375 45.6804 46.4061 45.6065 46.1006 45.458C45.6871 45.2563 45.3938 44.9992 45.2221 44.6852C45.0518 44.3698 44.966 43.9479 44.966 43.4152V40.2834C44.966 39.9162 44.9466 39.6874 44.9044 39.5972C44.8636 39.507 44.7928 39.436 44.6905 39.3834C44.5896 39.3287 44.4036 39.3046 44.131 39.3074V39.132ZM36.2691 39.3443C35.6789 39.3443 35.231 39.6441 34.9234 40.2415C34.6737 40.7309 34.5492 41.4362 34.5492 42.354C34.5492 43.4457 34.7424 44.2526 35.128 44.774C35.397 45.1391 35.7747 45.3216 36.2598 45.3216C36.5853 45.3216 36.8579 45.2428 37.0768 45.0865C37.3544 44.8848 37.5712 44.563 37.7272 44.1205C37.8831 43.6794 37.9604 43.1033 37.9604 42.393C37.9604 41.5463 37.881 40.9134 37.7221 40.4943C37.5633 40.0738 37.3623 39.7784 37.1155 39.6043C36.8708 39.4317 36.5882 39.3443 36.2691 39.3443ZM36.2104 39.0439C37.2371 39.0055 38.0706 39.3032 38.713 39.9339C39.3541 40.5668 39.6746 41.3574 39.6746 42.3071C39.6746 43.119 39.4363 43.8321 38.9577 44.4487C38.3238 45.2662 37.4288 45.6754 36.272 45.6754C35.1144 45.6754 34.2172 45.2854 33.5833 44.5048C33.084 43.8882 32.8321 43.1573 32.8321 42.312C32.8321 41.3624 33.1584 40.5696 33.8087 39.9375C34.4605 39.3024 35.2603 39.0048 36.2104 39.0439ZM24.131 39.4765V42.2779H24.4021C24.8414 42.2779 25.1705 42.2396 25.3894 42.1586C25.6084 42.0784 25.7808 41.9334 25.9053 41.7239C26.0305 41.5144 26.0934 41.2423 26.0934 40.9056C26.0934 40.4176 25.9782 40.0589 25.7479 39.8252C25.5189 39.5915 25.1498 39.4758 24.6389 39.4758H24.131V39.4765ZM24.131 42.6132V44.4068C24.131 44.7527 24.1517 44.97 24.1939 45.0588C24.2376 45.149 24.3127 45.2215 24.4193 45.2748C24.5281 45.328 24.7291 45.355 25.0239 45.355V45.5291H21.7257V45.355C22.024 45.355 22.2251 45.3273 22.3324 45.2712C22.4375 45.2165 22.5127 45.1455 22.5563 45.0574C22.5985 44.9686 22.6193 44.7527 22.6193 44.4068V40.2557C22.6193 39.9098 22.5978 39.6924 22.5563 39.6022C22.5127 39.512 22.4383 39.441 22.3295 39.3884C22.2222 39.3337 22.0212 39.3081 21.7264 39.3081V39.1327H24.7198C25.4996 39.1327 26.0691 39.1874 26.4304 39.2939C26.7903 39.4005 27.0857 39.5979 27.314 39.8863C27.5415 40.1726 27.6559 40.5107 27.6559 40.8971C27.6559 41.3687 27.4842 41.7587 27.1423 42.0677C26.9233 42.2623 26.6186 42.4094 26.2258 42.506L27.7747 44.6717C27.9772 44.9523 28.1217 45.1256 28.2061 45.1952C28.3378 45.2932 28.4866 45.3465 28.6583 45.3565V45.5305H26.6293L24.5538 42.6146H24.131V42.6132ZM13.9031 39.3443C13.3322 39.3443 12.8929 39.6391 12.5817 40.2266C12.322 40.7209 12.1925 41.4227 12.1925 42.3355C12.1925 43.4287 12.3871 44.2406 12.7763 44.7683C13.0489 45.137 13.4252 45.3209 13.9038 45.3209C14.3853 45.3209 14.7602 45.1405 15.0292 44.7783C15.4184 44.2597 15.613 43.4805 15.613 42.4385C15.613 41.4128 15.4914 40.6705 15.2481 40.2116C14.9426 39.6342 14.4948 39.3443 13.9031 39.3443ZM14.7473 45.5852C14.8933 46.0043 15.1201 46.3182 15.427 46.5285C15.7353 46.7394 16.1195 46.8446 16.5817 46.8446C16.7083 46.8446 16.8428 46.8332 16.9852 46.8076V47.096C16.5066 47.2154 16.0787 47.275 15.7024 47.275C15.1136 47.275 14.5863 47.1315 14.1227 46.8453C13.6591 46.5604 13.3086 46.1399 13.0753 45.5859C12.2955 45.4232 11.6674 45.0432 11.1909 44.4494C10.7144 43.8556 10.4754 43.1467 10.4754 42.322C10.4754 41.3659 10.8002 40.5704 11.4456 39.9375C12.0909 39.3031 12.9115 38.9878 13.9074 38.9878C14.8983 38.9878 15.7153 39.3046 16.3578 39.9396C17.0017 40.5753 17.3229 41.3695 17.3229 42.3227C17.3229 43.1516 17.071 43.8747 16.5674 44.4884C16.0644 45.0993 15.4585 45.4666 14.7473 45.5852Z" fill="#575656"/>
<path d="M69.9941 61.796C70.0978 61.796 70.1866 61.8322 70.2602 61.9061C70.3332 61.9785 70.3697 62.0666 70.3697 62.1696C70.3697 62.2726 70.3332 62.3607 70.2602 62.4346C70.1858 62.507 70.0971 62.5447 69.9941 62.5447C69.8904 62.5447 69.8016 62.507 69.7272 62.4346C69.6543 62.3607 69.6178 62.2726 69.6178 62.1696C69.6178 62.0666 69.6528 61.9785 69.7265 61.9061C69.7981 61.8322 69.8875 61.796 69.9941 61.796ZM71 67.5346V67.6611H68.9911V67.5346H69.157C69.3502 67.5346 69.4911 67.4785 69.5784 67.3663C69.6335 67.2938 69.6621 67.1162 69.6621 66.8378V63.831C69.6621 63.5959 69.6464 63.4397 69.6171 63.3651C69.5935 63.3075 69.5462 63.2585 69.4754 63.2173C69.3738 63.1626 69.2679 63.1356 69.157 63.1356H68.9911V63.0078H71V63.1356H70.8297C70.6387 63.1356 70.4992 63.1918 70.4119 63.3033C70.354 63.3772 70.3246 63.5526 70.3246 63.8318V66.8385C70.3246 67.0736 70.3397 67.2299 70.3697 67.3045C70.3933 67.362 70.442 67.411 70.5149 67.4522C70.6137 67.5076 70.7188 67.5353 70.8297 67.5353H71V67.5346ZM67.7519 63.0071L67.8041 64.0988H67.6718C67.6475 63.9063 67.6124 63.77 67.5681 63.6861C67.4972 63.5533 67.4021 63.4567 67.284 63.3935C67.1653 63.3303 67.0093 63.2983 66.8161 63.2983H66.1551V66.8549C66.1551 67.1411 66.1865 67.3187 66.2481 67.3904C66.3354 67.4863 66.4713 67.5346 66.6523 67.5346H66.8154V67.6611H64.8272V67.5346H64.9932C65.1914 67.5346 65.3316 67.475 65.4146 67.3556C65.4654 67.2832 65.4911 67.1155 65.4911 66.8556V63.299H64.9274C64.7092 63.299 64.5532 63.3154 64.4616 63.3473C64.3414 63.3906 64.2384 63.4752 64.1533 63.5981C64.0681 63.7224 64.0173 63.8886 64.0009 64.0995H63.87L63.9258 63.0078H67.7519V63.0071ZM61.753 65.403H58.6523C58.6523 65.9137 58.7796 66.374 59.0357 66.786C59.3326 67.264 59.7211 67.5027 60.2005 67.5027C60.6891 67.5027 61.0805 67.264 61.3752 66.786C61.6263 66.3761 61.753 65.9158 61.753 65.403ZM62.5514 65.3476C62.5514 66.0337 62.3332 66.6084 61.8975 67.0672C61.4525 67.5346 60.8866 67.7676 60.1998 67.7676C59.5179 67.7676 58.9578 67.5332 58.5171 67.0637C58.0771 66.5949 57.856 66.0238 57.856 65.3476C57.856 65.3021 57.8596 65.2368 57.8667 65.1487H61.7515C61.7136 64.611 61.5827 64.1649 61.3573 63.8076C61.0776 63.3637 60.6906 63.142 60.1955 63.142C59.8227 63.142 59.4879 63.2706 59.1917 63.5299C58.8955 63.7877 58.7188 64.1003 58.6623 64.4661H58.5335L58.6136 62.9083H58.7303C58.8218 63.071 58.9105 63.152 58.9935 63.152C59.0279 63.152 59.0937 63.1356 59.1903 63.1001C59.5587 62.968 59.8936 62.9019 60.1919 62.9019C61.0354 62.9019 61.7043 63.2876 62.1973 64.0583C62.4334 64.4256 62.5514 64.8553 62.5514 65.3476ZM53.876 65.0805L55.6045 66.786C55.8878 67.0672 56.1296 67.259 56.33 67.3613C56.5303 67.4629 56.7313 67.5204 56.9316 67.5346V67.6611H54.7023V67.5346C54.8354 67.5346 54.9327 67.5126 54.9914 67.4664C55.0508 67.4217 55.0801 67.3727 55.0801 67.318C55.0801 67.2633 55.0686 67.2136 55.0472 67.1702C55.025 67.1269 54.9527 67.0459 54.8311 66.9266L53.2121 65.3383V66.8378C53.2121 67.0729 53.2278 67.2292 53.2579 67.3038C53.2801 67.3613 53.3287 67.4103 53.4031 67.4515C53.5025 67.5069 53.6063 67.5346 53.7172 67.5346H53.8767V67.6611H51.8792V67.5346H52.0445C52.2384 67.5346 52.3786 67.4785 52.4666 67.3663C52.5224 67.2938 52.5496 67.1162 52.5496 66.8378V63.831C52.5496 63.5959 52.5339 63.439 52.5045 63.3615C52.4809 63.3061 52.4337 63.2585 52.3629 63.2173C52.2613 63.1626 52.1554 63.1356 52.0445 63.1356H51.8792V63.0078H53.8767V63.1356H53.7172C53.6084 63.1356 53.5047 63.1612 53.4031 63.2145C53.3316 63.2507 53.2815 63.3054 53.2543 63.3793C53.2257 63.4517 53.2114 63.603 53.2114 63.831V65.2552C53.2586 65.2119 53.4153 65.0663 53.6857 64.8191C54.3697 64.1969 54.7839 63.7813 54.927 63.5739C54.9885 63.483 55.02 63.402 55.02 63.3338C55.02 63.2813 54.995 63.2344 54.947 63.1946C54.8984 63.1548 54.8175 63.1349 54.7016 63.1349H54.5943V63.0071H56.3156V63.1349C56.2141 63.1371 56.1225 63.1499 56.0395 63.1754C55.9565 63.2003 55.8556 63.2493 55.7354 63.321C55.616 63.3935 55.4686 63.5093 55.2933 63.6705C55.2425 63.716 55.0093 63.9504 54.5914 64.373L53.876 65.0805ZM47.6589 65.2687C47.7039 65.2687 47.7411 65.2687 47.7733 65.2701C47.8055 65.2716 47.832 65.2723 47.852 65.2723C48.2992 65.2723 48.6369 65.1764 48.8629 64.9839C49.0904 64.7921 49.2042 64.547 49.2042 64.2494C49.2042 63.9589 49.1119 63.7224 48.9295 63.5405C48.7463 63.3594 48.5038 63.2678 48.2019 63.2678C48.0681 63.2678 47.8878 63.2898 47.6589 63.3331V65.2687ZM50.9878 67.6611H49.7358L48.1489 65.4861C48.0323 65.4896 47.9365 65.4918 47.862 65.4918C47.8327 65.4918 47.8005 65.4918 47.7655 65.4903C47.7311 65.4889 47.6961 65.4882 47.6581 65.4854V66.8371C47.6581 67.1297 47.6911 67.3116 47.7547 67.3826C47.8434 67.4835 47.9744 67.5339 48.1489 67.5339H48.3328V67.6603H46.3246V67.5339H46.5006C46.6987 67.5339 46.8404 67.4693 46.9255 67.3421C46.9742 67.2711 46.9985 67.102 46.9985 66.8371V63.8303C46.9985 63.5377 46.9656 63.3558 46.9019 63.2855C46.8125 63.1847 46.678 63.1342 46.5013 63.1342H46.3253V63.0064H48.0323C48.5303 63.0064 48.8973 63.0426 49.1327 63.115C49.3688 63.1868 49.5691 63.3189 49.7343 63.5121C49.8982 63.7067 49.9812 63.9362 49.9812 64.2047C49.9812 64.4909 49.8882 64.7388 49.6993 64.9498C49.5118 65.1593 49.2214 65.3085 48.8272 65.3952L49.7944 66.7305C50.0148 67.0374 50.2058 67.2413 50.3646 67.3421C50.5242 67.4416 50.7317 67.5062 50.9878 67.5339V67.6611ZM44.1904 61.796C44.2942 61.796 44.3829 61.8322 44.4566 61.9061C44.5295 61.9785 44.566 62.0666 44.566 62.1696C44.566 62.2726 44.5295 62.3607 44.4566 62.4346C44.3822 62.507 44.2942 62.5447 44.1904 62.5447C44.0867 62.5447 43.998 62.507 43.9236 62.4346C43.8506 62.3607 43.8141 62.2726 43.8141 62.1696C43.8141 62.0666 43.8492 61.9785 43.9228 61.9061C43.9944 61.8322 44.0838 61.796 44.1904 61.796ZM45.1963 67.5346V67.6611H43.1874V67.5346H43.3534C43.5472 67.5346 43.6875 67.4785 43.7747 67.3663C43.8298 67.2938 43.8585 67.1162 43.8585 66.8378V63.831C43.8585 63.5959 43.8427 63.4397 43.8134 63.3651C43.7898 63.3075 43.7426 63.2585 43.6717 63.2173C43.5701 63.1626 43.4642 63.1356 43.3534 63.1356H43.1874V63.0078H45.1963V63.1356H45.0261C44.835 63.1356 44.6955 63.1918 44.6082 63.3033C44.5503 63.3772 44.521 63.5526 44.521 63.8318V66.8385C44.521 67.0736 44.536 67.2299 44.566 67.3045C44.5896 67.362 44.6383 67.411 44.7113 67.4522C44.8107 67.5076 44.9152 67.5353 45.0261 67.5353H45.1963V67.5346ZM40.1611 67.6057H40.3678L40.1954 67.8777C40.3406 67.9139 40.4494 67.9764 40.5195 68.0624C40.5918 68.149 40.6268 68.2542 40.6268 68.3778C40.6268 68.5433 40.5581 68.6868 40.4193 68.8125C40.2813 68.9368 40.1031 69 39.8835 69C39.7984 69 39.6903 68.9915 39.5587 68.9751V68.8274C39.6238 68.8366 39.6782 68.8416 39.7239 68.8416C39.842 68.8416 39.9407 68.8032 40.0216 68.7272C40.1031 68.6498 40.1432 68.5632 40.1432 68.4651C40.1432 68.3962 40.1174 68.3366 40.0638 68.2854C40.0108 68.235 39.945 68.2108 39.867 68.2108C39.8434 68.2108 39.8141 68.213 39.7762 68.2179L40.1611 67.6057ZM41.4846 62.9019V64.5115H41.3573C41.3151 64.2025 41.2407 63.9568 41.1341 63.7735C41.0268 63.5895 40.8729 63.4446 40.6755 63.3381C40.4773 63.2301 40.2734 63.1761 40.0609 63.1761C39.8212 63.1761 39.6231 63.2486 39.4664 63.3942C39.3097 63.5398 39.2317 63.7046 39.2317 63.89C39.2317 64.0321 39.2818 64.162 39.3805 64.2778C39.5236 64.4497 39.8635 64.6784 40.4 64.964C40.8379 65.197 41.1376 65.3767 41.2972 65.5017C41.4574 65.626 41.5812 65.7738 41.6678 65.9421C41.7536 66.1119 41.7973 66.2887 41.7973 66.4741C41.7973 66.8264 41.6592 67.1297 41.3845 67.3855C41.1083 67.6405 40.7549 67.7683 40.3213 67.7683C40.1847 67.7683 40.0573 67.7577 39.9364 67.7364C39.8656 67.7257 39.7168 67.6838 39.4929 67.612C39.2689 67.5396 39.1258 67.5034 39.0657 67.5034C39.0078 67.5034 38.9634 67.5211 38.9291 67.5552C38.8962 67.5893 38.8711 67.6603 38.8547 67.7683H38.7273V66.173H38.8547C38.9148 66.5068 38.9963 66.7561 39.0979 66.9223C39.1995 67.0871 39.3541 67.2256 39.563 67.3357C39.7704 67.4444 39.9994 67.4998 40.2484 67.4998C40.536 67.4998 40.7642 67.4252 40.9316 67.2739C41.0983 67.1226 41.182 66.9451 41.182 66.7384C41.182 66.6233 41.1505 66.5089 41.0876 66.3917C41.0239 66.2745 40.9252 66.1666 40.7914 66.0657C40.7019 65.9968 40.4566 65.8512 40.0552 65.6281C39.6538 65.4051 39.3698 65.2275 39.1995 65.0947C39.03 64.9612 38.9026 64.8148 38.8139 64.6557C38.7266 64.4952 38.683 64.3183 38.683 64.1258C38.683 63.792 38.8118 63.505 39.07 63.2635C39.3283 63.022 39.6567 62.9012 40.0552 62.9012C40.3042 62.9012 40.5682 62.9609 40.8465 63.0831C40.9752 63.1406 41.0668 63.1683 41.119 63.1683C41.1791 63.1683 41.2285 63.1506 41.2664 63.1158C41.3043 63.0795 41.3351 63.0078 41.358 62.9012H41.4846V62.9019ZM32.2848 65.849L31.4893 63.9688L30.6737 65.849H32.2848ZM32.3814 66.1026H30.5671L30.2494 66.8371C30.17 67.0175 30.1314 67.1525 30.1314 67.2427C30.1314 67.313 30.1657 67.3748 30.233 67.4288C30.3016 67.4828 30.4476 67.5176 30.6744 67.5339V67.6603H29.1984V67.5339C29.3937 67.4991 29.5204 67.4544 29.5783 67.399C29.6964 67.2903 29.8259 67.0665 29.969 66.7305L31.618 62.9012H31.7382L33.3701 66.7717C33.5011 67.0836 33.6205 67.2846 33.7279 67.3776C33.8352 67.47 33.9847 67.5226 34.1764 67.5346V67.6611H32.3263V67.5346C32.5123 67.5254 32.639 67.4941 32.7048 67.4409C32.7706 67.389 32.8042 67.3251 32.8042 67.2491C32.8042 67.1482 32.757 66.9898 32.6647 66.7725L32.3814 66.1026ZM28.6461 63.0071L28.6983 64.0988H28.566C28.5409 63.9063 28.5066 63.77 28.4622 63.6861C28.3914 63.5533 28.2963 63.4567 28.1782 63.3935C28.0595 63.3303 27.9035 63.2983 27.7096 63.2983H27.0493V66.8549C27.0493 67.1411 27.0807 67.3187 27.1423 67.3904C27.2295 67.4863 27.3655 67.5346 27.5472 67.5346H27.7096V67.6611H25.7214V67.5346H25.8874C26.0856 67.5346 26.2258 67.475 26.3088 67.3556C26.3596 67.2832 26.3853 67.1155 26.3853 66.8556V63.299H25.8216C25.6034 63.299 25.4474 63.3154 25.3558 63.3473C25.2356 63.3906 25.1326 63.4752 25.0475 63.5981C24.9623 63.7224 24.9115 63.8886 24.8951 64.0995H24.7641L24.8192 63.0078H28.6461V63.0071ZM20.8722 65.2687C20.9172 65.2687 20.9544 65.2687 20.9866 65.2701C21.0188 65.2716 21.046 65.2723 21.0653 65.2723C21.5125 65.2723 21.8502 65.1764 22.0763 64.9839C22.3038 64.7921 22.4175 64.547 22.4175 64.2494C22.4175 63.9589 22.3252 63.7224 22.1428 63.5405C21.9596 63.3594 21.7171 63.2678 21.4152 63.2678C21.2814 63.2678 21.1011 63.2898 20.8729 63.3331V65.2687H20.8722ZM24.2011 67.6611H22.9498L21.363 65.4861C21.2463 65.4896 21.1505 65.4918 21.0761 65.4918C21.0467 65.4918 21.0145 65.4918 20.9795 65.4903C20.9451 65.4889 20.9101 65.4882 20.8722 65.4854V66.8371C20.8722 67.1297 20.9051 67.3116 20.9688 67.3826C21.0575 67.4835 21.1884 67.5339 21.363 67.5339H21.5468V67.6603H19.5386V67.5339H19.7146C19.9128 67.5339 20.0544 67.4693 20.1396 67.3421C20.1882 67.2711 20.2125 67.102 20.2125 66.8371V63.8303C20.2125 63.5377 20.1796 63.3558 20.116 63.2855C20.0265 63.1847 19.892 63.1342 19.7153 63.1342H19.5393V63.0064H21.2463C21.7443 63.0064 22.1113 63.0426 22.3467 63.115C22.5828 63.1868 22.7831 63.3189 22.9484 63.5121C23.1122 63.7067 23.1952 63.9362 23.1952 64.2047C23.1952 64.4909 23.1022 64.7388 22.9133 64.9498C22.7259 65.1593 22.4354 65.3085 22.0412 65.3952L23.0085 66.7305C23.2288 67.0374 23.4198 67.2413 23.5787 67.3421C23.7382 67.4416 23.9457 67.5062 24.2011 67.5339V67.6611ZM15.9936 63.1513C15.5736 63.1513 15.2374 63.3061 14.9834 63.6151C14.6686 63.9994 14.5105 64.5612 14.5105 65.3028C14.5105 66.0628 14.6743 66.6474 15.0013 67.0566C15.2524 67.3684 15.5844 67.524 15.9972 67.524C16.4372 67.524 16.8006 67.3528 17.0875 67.0118C17.3737 66.6709 17.5182 66.1332 17.5182 65.3987C17.5182 64.6032 17.3601 64.0093 17.0439 63.6179C16.7899 63.3068 16.4408 63.1513 15.9936 63.1513ZM16.0587 62.9019C16.6675 62.9019 17.1948 63.1307 17.6405 63.5895C18.0863 64.0491 18.3095 64.6202 18.3095 65.3071C18.3095 66.0146 18.0841 66.6013 17.6348 67.0672C17.1855 67.5346 16.6418 67.7676 16.0029 67.7676C15.359 67.7676 14.816 67.5389 14.3774 67.0843C13.9389 66.629 13.7192 66.0394 13.7192 65.317C13.7192 64.5776 13.9732 63.9759 14.479 63.5086C14.9197 63.103 15.4463 62.9019 16.0587 62.9019ZM9.33002 61.6348H9.43733C9.51317 61.7754 9.60117 61.8734 9.70061 61.9302C9.86588 62.0283 10.0748 62.078 10.3259 62.078C10.577 62.078 10.7845 62.0297 10.9476 61.9338C11.0657 61.8684 11.1472 61.769 11.193 61.6355H11.3075C11.286 61.9203 11.1816 62.1504 10.9913 62.3287C10.801 62.5084 10.577 62.5972 10.3188 62.5972C10.0626 62.5972 9.84084 62.5084 9.65197 62.3316C9.46237 62.1519 9.35577 61.921 9.33002 61.6348ZM11.8677 62.9019L11.9879 64.3695H11.8677C11.7446 64.0036 11.5872 63.7288 11.3933 63.5427C11.115 63.2756 10.7559 63.142 10.3188 63.142C9.72136 63.142 9.26778 63.3764 8.95728 63.8445C8.69614 64.2409 8.56665 64.7111 8.56665 65.2588C8.56665 65.7027 8.65321 66.1083 8.82492 66.4734C8.99806 66.8399 9.22485 67.1084 9.50459 67.2782C9.78432 67.4494 10.0719 67.5346 10.3674 67.5346C10.5405 67.5346 10.7072 67.5126 10.8689 67.4693C11.0306 67.4259 11.1851 67.3613 11.3347 67.2775V65.9314C11.3347 65.6985 11.3168 65.5457 11.2817 65.4733C11.2467 65.4016 11.1909 65.3469 11.1158 65.3092C11.0413 65.2701 10.909 65.2517 10.7208 65.2517V65.1217H12.5352V65.2517H12.4486C12.2683 65.2517 12.1453 65.3113 12.078 65.4307C12.0322 65.5152 12.0093 65.6828 12.0093 65.9307V67.3549C11.7439 67.497 11.4821 67.6007 11.2252 67.6675C10.9669 67.7342 10.68 67.7669 10.3638 67.7669C9.4588 67.7669 8.77126 67.4785 8.3005 66.9024C7.94779 66.4691 7.7718 65.9712 7.7718 65.4058C7.7718 64.9967 7.87124 64.6046 8.06942 64.2288C8.30408 63.7827 8.62746 63.4389 9.03669 63.1996C9.3801 63.0007 9.78575 62.9019 10.2529 62.9019C10.4239 62.9019 10.5785 62.9147 10.7187 62.9431C10.8582 62.9701 11.0549 63.0312 11.3111 63.1243C11.4398 63.1726 11.5271 63.196 11.5708 63.196C11.6144 63.196 11.6523 63.1761 11.6831 63.1364C11.7139 63.0966 11.7332 63.0177 11.7396 62.9019H11.8677ZM6.51477 67.5346V67.6611H4.50582V67.5346H4.67181C4.86569 67.5346 5.00592 67.4785 5.0932 67.3663C5.14829 67.2938 5.1769 67.1162 5.1769 66.8378V63.831C5.1769 63.5959 5.16116 63.4397 5.13183 63.3651C5.10822 63.3075 5.061 63.2585 4.99018 63.2173C4.88858 63.1626 4.7827 63.1356 4.67181 63.1356H4.50582V63.0078H6.51477V63.1356H6.34521C6.15419 63.1356 6.01468 63.1918 5.9274 63.3033C5.86945 63.3772 5.84012 63.5526 5.84012 63.8318V66.8385C5.84012 67.0736 5.85585 67.2299 5.88519 67.3045C5.9088 67.362 5.95745 67.411 6.03042 67.4522C6.12987 67.5076 6.23432 67.5353 6.34521 67.5353H6.51477V67.5346ZM2.80308 62.9019V64.5115H2.67574C2.63352 64.2025 2.55912 63.9568 2.45252 63.7735C2.3452 63.5895 2.19138 63.4446 1.99392 63.3381C1.79575 63.2294 1.59185 63.1754 1.37936 63.1754C1.13969 63.1754 0.941516 63.2479 0.784835 63.3935C0.628154 63.5391 0.550171 63.7039 0.550171 63.8893C0.550171 64.0314 0.599536 64.1613 0.698982 64.2771C0.84207 64.449 1.1819 64.6777 1.71848 64.9633C2.15633 65.1963 2.4561 65.376 2.61492 65.501C2.77518 65.6253 2.89895 65.773 2.98552 65.9414C3.07137 66.1112 3.11501 66.288 3.11501 66.4734C3.11501 66.8257 2.97693 67.129 2.70221 67.3847C2.42605 67.6397 2.07262 67.7676 1.63907 67.7676C1.50242 67.7676 1.37507 67.757 1.25416 67.7356C1.18333 67.725 1.03452 67.6831 0.810591 67.6113C0.585943 67.5389 0.443571 67.5027 0.383474 67.5027C0.325524 67.5027 0.281167 67.5204 0.246826 67.5545C0.213916 67.5886 0.188875 67.6596 0.17242 67.7676H0.0450726V66.1722H0.17242C0.232517 66.5061 0.314077 66.7554 0.415669 66.9216C0.517261 67.0864 0.671796 67.2249 0.880703 67.335C1.08818 67.4437 1.31712 67.4991 1.56609 67.4991C1.8537 67.4991 2.08192 67.4245 2.24934 67.2732C2.41532 67.1219 2.49902 66.9444 2.49902 66.7377C2.49902 66.6226 2.46754 66.5082 2.40458 66.391C2.34091 66.2738 2.24218 66.1658 2.10839 66.065C2.01896 65.9961 1.77357 65.8505 1.37221 65.6274C0.970849 65.4044 0.68682 65.2268 0.516546 65.094C0.346987 64.9604 0.219639 64.8141 0.130925 64.655C0.0436417 64.4945 0 64.3176 0 64.1258C0 63.792 0.128779 63.505 0.387052 63.2635C0.645325 63.022 0.97371 62.9012 1.37221 62.9012C1.62118 62.9012 1.88518 62.9609 2.16348 63.0831C2.29226 63.1406 2.38384 63.1683 2.43606 63.1683C2.49616 63.1683 2.54553 63.1506 2.58344 63.1158C2.62136 63.0795 2.65213 63.0078 2.67502 62.9012H2.80308V62.9019Z" fill="#575656"/>
</g>
<defs>
<clipPath id="clip0_2_3">
<rect width="71" height="69" fill="white"/>
</clipPath>
</defs>
</svg>
