<svg id="Слой_5" data-name="Слой 5" xmlns="http://www.w3.org/2000/svg" viewBox="0 0 222.03 313.62">
  <defs>
    <style>
      .cls-1 {
        fill: #d60911;
        fill-rule: evenodd;
      }
    </style>
  </defs>
  <path class="cls-1" d="M166,324.09c27.88-21.34,97.86-127.88,106.5-164C307.52,52.82,200.68-20.33,114,23.29c-42.19,21.22-69.62,83.07-50.53,137S130.55,279.47,166,324.09m.14-18.15C122.06,236.7,30.65,149.67,87.4,62.85c55.95-85.6,213.93-25,173,92.86C244.76,200.92,201.38,273.41,166.13,305.94Z" transform="translate(-57.29 -10.47)"/>
  <path class="cls-1" d="M152.37,63.85c-72.11,19-45.6,134.55,33,111.41,70-20.59,42.38-131.25-33-111.41m2.76,10.61c63.25-17.77,79.94,80,24.21,91.31C117.66,178.23,98.84,90.27,155.13,74.46Z" transform="translate(-57.29 -10.47)"/>
</svg>
