<?xml version="1.0" encoding="utf-8"?>
<!-- Generator: Adobe Illustrator 24.3.0, SVG Export Plug-In . SVG Version: 6.00 Build 0)  -->
<svg version="1.1" id="Слой_1" xmlns="http://www.w3.org/2000/svg" xmlns:xlink="http://www.w3.org/1999/xlink" x="0px" y="0px"
	 viewBox="0 0 371.7 283.3" style="enable-background:new 0 0 371.7 283.3;" xml:space="preserve">
<style type="text/css">
	.st0{fill:url(#SVGID_1_);}
	.st1{opacity:0.3;fill:url(#SVGID_2_);enable-background:new    ;}
	.st2{fill:#4E545B;}
	.st3{fill:#2B312F;}
	.st4{fill:#C20909;}
	.st5{fill:#5D5D5D;}
	.st6{fill:url(#SVGID_3_);}
	.st7{fill:#62676E;}
	.st8{opacity:0.29;fill:#FFFFFF;enable-background:new    ;}
	.st9{opacity:0.39;fill:url(#SVGID_4_);enable-background:new    ;}
	.st10{fill:#1B1824;}
	.st11{fill:#383838;}
	.st12{fill:#494949;}
	.st13{fill:#2B2B2B;}
	.st14{fill:#BC1A1A;}
	.st15{opacity:0.25;fill:#BC1A1A;enable-background:new    ;}
	.st16{opacity:0.31;fill:#2B312F;enable-background:new    ;}
	.st17{fill:#252D39;}
	.st18{fill:url(#SVGID_5_);}
	.st19{fill:#5F5B54;}
	.st20{fill:#3A3732;}
	.st21{opacity:0.43;fill:#BC1A1A;enable-background:new    ;}
	.st22{opacity:0.38;fill:url(#SVGID_6_);enable-background:new    ;}
	.st23{opacity:0.19;fill:#2B312F;enable-background:new    ;}
	.st24{fill:#3C3C47;}
	.st25{fill:url(#SVGID_7_);}
	.st26{opacity:0.38;fill:url(#SVGID_8_);enable-background:new    ;}
	.st27{fill:#7B8387;}
	.st28{fill:url(#SVGID_9_);}
	.st29{fill:#888888;}
	.st30{opacity:0.38;fill:url(#SVGID_10_);enable-background:new    ;}
	.st31{opacity:0.38;fill:url(#SVGID_11_);enable-background:new    ;}
	.st32{opacity:0.25;fill:#5F0A19;enable-background:new    ;}
	.st33{opacity:0.22;fill:#5F0A19;enable-background:new    ;}
	.st34{opacity:0.38;fill:url(#SVGID_12_);enable-background:new    ;}
	.st35{opacity:0.38;fill:url(#SVGID_13_);enable-background:new    ;}
	.st36{opacity:0.38;fill:url(#SVGID_14_);enable-background:new    ;}
	.st37{opacity:0.32;fill:#888888;enable-background:new    ;}
	.st38{fill:#757575;}
	.st39{fill:#4C4C4C;}
	.st40{fill:#3A3A3A;}
	.st41{opacity:0.43;fill:#3A3A3A;enable-background:new    ;}
	.st42{opacity:0.27;fill:#2B2B2B;enable-background:new    ;}
	.st43{fill:#3F3932;}
	.st44{fill:#727271;}
	.st45{fill:#5E5E5D;}
	.st46{opacity:0.32;fill:#5D5D5D;enable-background:new    ;}
	.st47{fill:#1C2023;}
	.st48{opacity:0.4;fill:#5D5D5D;enable-background:new    ;}
	.st49{opacity:0.25;fill:#757575;enable-background:new    ;}
	.st50{opacity:0.33;fill:#2B312F;enable-background:new    ;}
	.st51{fill:url(#SVGID_15_);}
	.st52{opacity:0.2;fill:url(#SVGID_16_);enable-background:new    ;}
	.st53{opacity:0.24;fill:#7B8387;enable-background:new    ;}
	.st54{fill:#009CA6;}
	.st55{opacity:0.4;fill:url(#SVGID_17_);enable-background:new    ;}
	.st56{fill:url(#SVGID_18_);}
	.st57{opacity:0.4;fill:url(#SVGID_19_);enable-background:new    ;}
	.st58{fill:url(#SVGID_20_);}
	.st59{fill:url(#SVGID_21_);}
	.st60{opacity:0.3;fill:#D8653B;enable-background:new    ;}
	.st61{fill:url(#SVGID_22_);}
	.st62{fill:url(#SVGID_23_);}
	.st63{fill:#FFFFFF;}
	.st64{fill:#3D6577;}
	.st65{opacity:0.3;fill:url(#SVGID_24_);enable-background:new    ;}
	.st66{fill:#D8653B;}
	.st67{fill:url(#SVGID_25_);}
	.st68{fill:url(#SVGID_26_);}
	.st69{opacity:0.5;fill:#8C8C8C;enable-background:new    ;}
	.st70{opacity:0.4;fill:url(#SVGID_27_);enable-background:new    ;}
	.st71{opacity:0.4;fill:url(#SVGID_28_);enable-background:new    ;}
	.st72{fill:url(#SVGID_29_);}
	.st73{opacity:0.3;}
	.st74{fill:#27170F;}
	.st75{opacity:0.5;}
	.st76{opacity:0.22;fill:#27170F;enable-background:new    ;}
	.st77{opacity:0.3;fill:url(#SVGID_30_);enable-background:new    ;}
	.st78{opacity:0.3;fill:url(#SVGID_31_);enable-background:new    ;}
	.st79{fill:#004414;}
	.st80{fill:#631300;}
	.st81{opacity:0.4;}
	.st82{fill:#C14400;}
	.st83{opacity:0.4;fill:url(#SVGID_32_);enable-background:new    ;}
	.st84{opacity:0.4;fill:url(#SVGID_33_);enable-background:new    ;}
	.st85{fill:#09702D;}
	.st86{opacity:0.3;fill:#0E5624;enable-background:new    ;}
	.st87{fill:url(#SVGID_34_);}
	.st88{fill:#FF7D00;}
	.st89{fill:#FFD498;}
	.st90{opacity:0.3;fill:#DD6F50;enable-background:new    ;}
	.st91{opacity:0.5;fill:#A87911;enable-background:new    ;}
	.st92{fill:#001E30;}
	.st93{fill:#5B3714;}
	.st94{opacity:0.4;fill:url(#SVGID_35_);enable-background:new    ;}
	.st95{opacity:0.5;fill:#FFD498;enable-background:new    ;}
	.st96{fill:url(#SVGID_36_);}
	.st97{fill:url(#SVGID_37_);}
	.st98{opacity:0.8;fill:#D77041;enable-background:new    ;}
	.st99{fill:#1B2123;}
	.st100{fill:#5B3B31;}
	.st101{opacity:0.4;fill:#606060;enable-background:new    ;}
	.st102{fill:#6A999F;}
	.st103{opacity:0.5;fill:#6A999F;enable-background:new    ;}
	.st104{fill:url(#SVGID_38_);}
	.st105{opacity:0.2;fill:#D47151;enable-background:new    ;}
	.st106{fill:url(#SVGID_39_);}
	.st107{fill:url(#SVGID_40_);}
	.st108{fill:url(#SVGID_41_);}
	.st109{fill:#6B1B0C;}
	.st110{fill:url(#SVGID_42_);}
	.st111{opacity:0.3;fill:url(#SVGID_43_);enable-background:new    ;}
	.st112{fill:#230600;}
	.st113{opacity:0.5;fill:#230600;enable-background:new    ;}
	.st114{fill:url(#SVGID_44_);}
	.st115{fill:url(#SVGID_45_);}
	.st116{opacity:0.3;fill:#D47151;enable-background:new    ;}
	.st117{fill:url(#SVGID_46_);}
	.st118{fill:url(#SVGID_47_);}
	.st119{opacity:0.6;}
	.st120{fill:#2D2D2D;}
	.st121{fill:#580023;}
	.st122{fill:#191717;}
	.st123{opacity:0.4;fill:#191717;enable-background:new    ;}
	.st124{fill:#9E0707;}
	.st125{opacity:0.4;fill:#9E0707;enable-background:new    ;}
	.st126{opacity:0.4;fill:#230600;enable-background:new    ;}
	.st127{opacity:0.3;fill:#6B1B0C;enable-background:new    ;}
	.st128{opacity:0.3;fill:#191717;enable-background:new    ;}
	.st129{fill:#58453D;}
	.st130{fill:#BF4724;}
	.st131{fill:#7C1900;}
	.st132{fill:#362B29;}
	.st133{fill:#3C457B;}
	.st134{fill:#293468;}
	.st135{fill:#AC3115;}
	.st136{fill:#921D08;}
	.st137{fill:#800F00;}
	.st138{fill:url(#SVGID_48_);}
	.st139{fill:url(#SVGID_49_);}
	.st140{fill:#3C444F;}
	.st141{fill:url(#SVGID_50_);}
	.st142{fill:#332B2F;}
	.st143{opacity:0.3;fill:#1D272D;enable-background:new    ;}
	.st144{opacity:0.2;fill:#1D272D;enable-background:new    ;}
	.st145{fill:#CE7143;}
	.st146{fill:#512B0E;}
	.st147{fill:url(#SVGID_51_);}
	.st148{fill:url(#SVGID_52_);}
	.st149{fill:#302A27;}
	.st150{opacity:0.9;fill:#514A45;enable-background:new    ;}
	.st151{opacity:0.22;fill:url(#SVGID_53_);enable-background:new    ;}
	.st152{opacity:0.4;fill:#383838;enable-background:new    ;}
	.st153{opacity:0.3;fill:#5F0A19;enable-background:new    ;}
</style>
<g id="Layer_1">
</g>
<g id="Слой_2_1_">
	<g>
		<g>
			
				<linearGradient id="SVGID_1_" gradientUnits="userSpaceOnUse" x1="222.0045" y1="122.9844" x2="134.7589" y2="147.1714" gradientTransform="matrix(1 0 0 -1 0 286)">
				<stop  offset="4.941410e-03" style="stop-color:#28262C"/>
				<stop  offset="0.9901" style="stop-color:#1B1D35"/>
			</linearGradient>
			<path class="st0" d="M210.4,145.8l-6.2,3.3l-10.2,5.3l-13.2,0.4c4.1,8-0.2,21.6-0.2,21.6l-5.5-5.3l-9.7-8.2l-8.2-29.5
				c14.9-6.3,46.2,0.2,48.8,0.4L210.4,145.8z"/>
			
				<linearGradient id="SVGID_2_" gradientUnits="userSpaceOnUse" x1="189.2916" y1="142.3804" x2="174.4982" y2="113.1499" gradientTransform="matrix(1 0 0 -1 0 286)">
				<stop  offset="4.941410e-03" style="stop-color:#28262C"/>
				<stop  offset="0.9901" style="stop-color:#1B1D35"/>
			</linearGradient>
			<path class="st1" d="M205.4,146.1l-1.3,3.1l-10.2,5.3l-13.2,0.4c4.1,8-0.2,21.6-0.2,21.6l-5.5-5.3c-0.9-10.1-4.2-26-4.2-26
				L205.4,146.1z"/>
			<polygon class="st2" points="117.1,75.5 127,64.9 136.8,67 130.4,72.4 			"/>
			<path class="st3" d="M212.2,172.6c13,2,22.8,3.9,41.6-5.4c18.8-9.3,27.6-14.1,27.6-14.1s-11.6-10.7-30-1.3s-49,15.2-49,15.2
				S203.6,171.3,212.2,172.6z"/>
			<path class="st4" d="M351,170.9l3.7,4.8l-3.6,10.6l-2.2-4.4C348.9,182,350.5,176.2,351,170.9z"/>
			<path class="st5" d="M333.5,163.4c0,0,12.9,2.3,17.5,6c0,0,0.3,9.2-1.5,13.4c0,0-9.4-8.3-16-11.7V163.4z"/>
			<g>
				
					<linearGradient id="SVGID_3_" gradientUnits="userSpaceOnUse" x1="88.9149" y1="165.628" x2="110.3" y2="165.628" gradientTransform="matrix(1 0 0 -1 0 286)">
					<stop  offset="3.906000e-05" style="stop-color:#445159"/>
					<stop  offset="1" style="stop-color:#252626"/>
				</linearGradient>
				<path class="st6" d="M96.6,131.6c-0.9,0.1-1.8,0.1-2.7,0.1c0,0-11.2-12.1,0-22c0.3-0.3,0.6-0.4,1-0.5l0,0c1.9-0.5,5,1,7.8,3.2
					c3.7,2.9,7.2,7.1,7.5,9.8C110.8,126.9,104.7,130.8,96.6,131.6z"/>
				<path class="st7" d="M93.9,131.7c0,0-11.2-12.1,0-22c0.3-0.3,0.6-0.4,1-0.5l0,0C98.9,109.9,100.2,130.2,93.9,131.7z"/>
				<path class="st8" d="M95,111.6c-2.9-0.2-4.2,16.4-1.4,16.3C96.8,127.8,97.3,111.8,95,111.6z"/>
				
					<linearGradient id="SVGID_4_" gradientUnits="userSpaceOnUse" x1="96.599" y1="164.0298" x2="110.3" y2="164.0298" gradientTransform="matrix(1 0 0 -1 0 286)">
					<stop  offset="3.906000e-05" style="stop-color:#445159"/>
					<stop  offset="1" style="stop-color:#252626"/>
				</linearGradient>
				<path class="st9" d="M96.6,131.6c5.9-5.7,6.8-13.6,6.2-19.2c3.7,2.9,7.2,7.1,7.5,9.8C110.8,126.9,104.7,130.8,96.6,131.6z"/>
			</g>
			<path class="st10" d="M265.7,196.6c0,0-13.1,20.1,2.9,46.2l6.1,6.4l-135.6-6L126.3,225l-15.9-63.9L265.7,196.6z"/>
			<g>
				<polygon class="st11" points="178.8,182.9 178.1,193.8 177.8,197.9 177.6,201.5 177.4,204.8 177.1,209.1 176.9,212.2 176.6,216 
					176.6,217 150,217.4 150,217 149.7,213.2 149.3,209.4 149,205.6 148.6,199.6 148.3,197.1 148.1,194.1 147.3,183.6 				"/>
				<path class="st12" d="M178.8,182.9l-0.7,11c-7.7,0.1-22.8,0.2-30,0.3l-0.9-10.5L178.8,182.9z"/>
				<g>
					<polygon class="st13" points="177.8,197.9 177.6,201.5 148.6,199.6 148.3,197.1 					"/>
					<polygon class="st13" points="177.4,204.8 149,205.6 149.3,209.4 177.1,209.1 					"/>
					<polygon class="st13" points="176.9,212.2 176.6,216 150,217 149.7,213.2 					"/>
				</g>
			</g>
			<g>
				<path class="st11" d="M150,217.4l-21.3,6.5c0,0-0.5-1.1-1.2-2.9c-0.3-0.7-0.6-1.5-1-2.4c-0.5-1.2-1-2.5-1.6-3.9
					c-0.4-1-0.8-2-1.3-3.1c-0.5-1.3-1-2.6-1.6-3.9c-0.5-1.3-1.1-2.6-1.6-4c-0.7-1.6-1.3-3.3-1.9-4.8c-2.3-6.2-4-11.1-3.4-11.3
					c17.5-8.1,30.5-4,30.5-4l1.3,10.4l0.4,3.1l0.5,4l0.5,4l0.4,3.2l0.5,3.7l0.3,2L150,217.4z"/>
				<path class="st12" d="M147,194c-12.3,0.8-23.1,3.5-28.4,5c-2.3-6.2-4-11.1-3.4-11.3c17.5-8.1,30.5-4,30.5-4L147,194z"/>
				<path class="st13" d="M147.9,201.1l-25.9,6.7c-0.5-1.3-1.1-2.6-1.6-4l26.9-6.7L147.9,201.1z"/>
				<path class="st13" d="M148.8,208.3l-23.9,6.5c-0.4-1-0.8-2-1.3-3.1l24.8-6.5L148.8,208.3z"/>
				<path class="st13" d="M149.6,214l-22.1,7c-0.3-0.7-0.6-1.5-1-2.4c6.8-1.9,18.1-5.3,22.8-6.6L149.6,214z"/>
			</g>
			<g>
				<path class="st14" d="M267,194.2c0,0-2.6,10.7-27.3,11.6c-24.6,0.8-40.9-3.6-49.3-19.5l1.4-1.6l1.9-2.1c0,0,14.6,9.6,29.8,10.8
					c15.2,1.1,32.4-6.7,32.4-6.7l6.1,4.2L267,194.2z"/>
				<path class="st15" d="M267,194.2c0,0-2.6,10.7-27.3,11.6c-24.6,0.8-40.9-3.6-49.3-19.5l1.4-1.6c3.8,3.2,10.7,8.6,18,11.4
					c10.8,4.1,26.6,4.8,34.9,3c6.4-1.4,11.9-4.5,17.3-8.2L267,194.2z"/>
			</g>
			<g>
				<path class="st3" d="M336.2,175.8c0,0-13-14.2-39.6-10.6c-10.7,1.4-28.1,15.7-28.1,15.7l-6.3-8.9l-4.7-6.8
					c0,0,17.6-10.7,25.1-15.4c14.2-8.9,34.9-1.7,49.2,11.2c0,0,1.5,1.5,2.7,4.6C335.6,168.1,336.4,171.5,336.2,175.8z"/>
				<path class="st16" d="M336.2,175.8c0,0-13-14.2-39.6-10.6c-10.7,1.4-28.1,15.7-28.1,15.7l-6.3-8.9c6.6-4.9,17-11.8,27.2-15.1
					c13.7-4.5,33.9,1,45.1,8.8C335.6,168.1,336.4,171.5,336.2,175.8z"/>
			</g>
			<g>
				<polygon class="st17" points="42.7,199.5 55,217.3 57.3,216.4 48.1,196 				"/>
				<path class="st17" d="M73.3,196.5c-0.4,0.6-11.9,20.9-11.9,20.9l2.2,1.4l15.3-17.9L73.3,196.5z"/>
				<polygon class="st17" points="31.9,224.5 54.4,220.5 55.6,223.4 34.5,232.3 				"/>
				<polygon class="st17" points="57.3,226.2 55.6,245.7 62.3,245.9 60.1,226.2 				"/>
				<polygon class="st17" points="63.6,218.7 65.1,220.5 87.6,227.1 86.9,218 				"/>
			</g>
			
				<linearGradient id="SVGID_5_" gradientUnits="userSpaceOnUse" x1="38.6893" y1="32.0655" x2="96.8494" y2="122.4727" gradientTransform="matrix(1 0 0 -1 0 286)">
				<stop  offset="3.906000e-05" style="stop-color:#473730"/>
				<stop  offset="1" style="stop-color:#252626"/>
			</linearGradient>
			<path class="st18" d="M105.9,210.3c-4.1-19.7-22.5-34.5-44.5-34.5c-10.3,0-19.9,3.3-27.5,8.8C23,192.4,16,204.8,16,218.7
				c0,8.9,2.9,17.2,7.8,24.1c8.2,11.3,21.9,18.8,37.5,18.8c23.3,0,42.5-16.6,45.1-38.1c0.2-1.6,0.3-3.2,0.3-4.8
				C106.8,215.8,106.5,213,105.9,210.3z M59.3,243.7c-14.2,0-25.7-10.9-25.7-24.3c0-13.4,11.5-24.3,25.7-24.3s25.6,10.9,25.6,24.3
				S73.4,243.7,59.3,243.7z"/>
			<path class="st19" d="M77.9,219.8c-0.4-8.9-8.2-16.1-17.7-16.1c-9.8,0-17.8,7.5-17.8,16.8c0,5.3,2.6,10.1,6.7,13.1
				c3,2.3,6.9,3.7,11.1,3.7c9.8,0,17.8-7.5,17.8-16.8C77.9,220.3,77.9,220,77.9,219.8z M60,230.2c-5.7,0-10.3-4.4-10.3-9.8
				c0-5.4,4.6-9.8,10.3-9.8s10.3,4.4,10.3,9.8S65.7,230.2,60,230.2z"/>
			<path class="st20" d="M67.6,220.5c0,4.1-3.4,7.5-7.5,7.5s-7.5-3.4-7.5-7.5s3.4-7.5,7.5-7.5C64.3,213,67.6,216.4,67.6,220.5z"/>
			<g>
				<path class="st14" d="M188.9,181.5l-2.9,0.6c-5.8,2.9-46.9,7.2-69.1-2.9c0,0-10.4-12.4-8.9-26.5c0.3-2.6,1.1-4.8,2.3-6.6
					c5.5-8.2,19.4-8.8,29.1-2.7c10.2,6.5,39.6,30,47.5,36.4C188.1,181,188.9,181.5,188.9,181.5z"/>
				<path class="st14" d="M188.7,181.5l-2.9,0.6c-5.8,2.9-46.9,7.2-69.1-2.9c0,0-10.4-12.4-8.9-26.5c0.3-2.6,1.1-4.8,2.3-6.6
					c5.5-8.2,19.4-8.8,29.1-2.7c10.2,6.5,39.6,30,47.5,36.4C187.9,180.9,188.7,181.5,188.7,181.5z"/>
				<path class="st21" d="M188.9,181.5l-2.9,0.6c-5.8,2.9-46.9,7.2-69.1-2.9c0,0-10.4-12.4-8.9-26.5c0.3-2.6,1.1-4.8,2.3-6.6
					c3.5,12.2,11.2,23.1,25.6,29.6c12.1,5.4,37.1,4.9,51,4.1C188.1,181,188.9,181.5,188.9,181.5z"/>
			</g>
			
				<linearGradient id="SVGID_6_" gradientUnits="userSpaceOnUse" x1="64.9749" y1="80.8045" x2="85.6425" y2="112.9314" gradientTransform="matrix(1 0 0 -1 0 286)">
				<stop  offset="3.906000e-05" style="stop-color:#473730"/>
				<stop  offset="1" style="stop-color:#252626"/>
			</linearGradient>
			<path class="st22" d="M105.9,210.3l-4.3,0.5c0,0-2.6-3.3-8.1-13.6c-5.5-10.4-20.7-13.5-34.6-11.5s-18.4,4.1-18.4,4.1
				c-2.4-0.4-5-2.6-6.6-5.1c7.6-5.5,17.1-8.8,27.5-8.8C83.5,175.8,101.8,190.6,105.9,210.3z"/>
			<g>
				<path class="st11" d="M268.6,180.9c0,0-21.8,13.5-37,13.6c-28.3,0.1-37.4-8.1-53.3-21.4c0,0,0.1-1.6,0.7-3.7
					c1.3-4.6,4.9-11.2,14.6-6.7c14.2,6.5,29,18.6,63.9,2.6l4.9,7L268.6,180.9z"/>
				<path class="st23" d="M268.6,180.9c0,0-21.8,13.5-37,13.6c-28.3,0.1-37.4-8.1-53.3-21.4c0,0,0.1-1.6,0.7-3.7
					c16.9,17.6,45.9,20,55,18.9c8.5-1,20.6-9.8,28.4-16.1L268.6,180.9z"/>
			</g>
			<g>
				<polygon class="st24" points="287,197.3 299.3,215.8 301.6,214.9 292.4,193.8 				"/>
				<path class="st24" d="M317.6,194.2c-0.4,0.7-11.9,21.6-11.9,21.6l2.2,1.4l15.3-18.5L317.6,194.2z"/>
				<polygon class="st24" points="276.2,223.2 298.7,219.1 299.9,222.1 278.8,231.3 				"/>
				<polygon class="st24" points="301.6,225 299.9,245.1 306.6,245.4 304.4,225 				"/>
				<polygon class="st24" points="307.9,217.2 309.4,219.1 331.9,225.9 331.2,216.5 				"/>
			</g>
			
				<linearGradient id="SVGID_7_" gradientUnits="userSpaceOnUse" x1="260.6852" y1="68.9447" x2="351.3834" y2="68.9447" gradientTransform="matrix(1 3.600000e-03 3.600000e-03 -1 -0.3892 285.113)">
				<stop  offset="3.906000e-05" style="stop-color:#473730"/>
				<stop  offset="1" style="stop-color:#252626"/>
			</linearGradient>
			<path class="st25" d="M351,213.6c-1.9-22.7-21.3-40.6-45-40.7c-22.3-0.1-40.9,15.6-44.8,36.4c-0.5,2.5-0.7,5.2-0.7,7.8
				c0,1.5,0.1,2.9,0.2,4.4c0.5,4.9,1.8,9.6,3.8,13.9c0.6,1.4,1.3,2.7,2.1,4c1.7,2.9,3.8,5.6,6.1,8.1c8.2,8.7,20,14.1,33.1,14.2
				c13,0,24.7-5.2,33-13.7c0.7-0.8,1.4-1.5,2.1-2.3c0.3-0.4,0.6-0.7,0.9-1.1c5.1-6.3,8.4-14.1,9.3-22.5c0.2-1.5,0.3-3,0.3-4.6
				C351.1,216.1,351.1,214.8,351,213.6z M282.6,232.5c-2.6-3.6-4.3-7.9-4.7-12.6c-0.1-0.7-0.1-1.3-0.1-2c0-13.9,11.6-25.1,25.7-25
				c13.3,0,24.1,9.9,25.4,22.6c0.1,0.9,0.1,1.7,0.1,2.6c0,2.6-0.4,5.1-1.2,7.4c-2.1,6.4-6.7,11.7-12.7,14.8
				c-3.6,1.8-7.6,2.8-11.9,2.8c-4.6,0-8.9-1.2-12.7-3.3C287.6,238,284.8,235.5,282.6,232.5z"/>
			<path class="st19" d="M304.4,201.7c-9.8,0-17.8,7.8-17.8,17.4c0,9.6,8,17.4,17.8,17.4s17.8-7.8,17.8-17.4
				S314.2,201.7,304.4,201.7z M304.3,229.1c-5.7,0-10.3-4.5-10.3-10.1s4.6-10.1,10.3-10.1c5.7,0,10.3,4.5,10.3,10.1
				S310,229.1,304.3,229.1z"/>
			
				<linearGradient id="SVGID_8_" gradientUnits="userSpaceOnUse" x1="292.9706" y1="26.6896" x2="320.7071" y2="69.8046" gradientTransform="matrix(1 3.600000e-03 3.600000e-03 -1 -0.3892 285.113)">
				<stop  offset="3.906000e-05" style="stop-color:#473730"/>
				<stop  offset="1" style="stop-color:#252626"/>
			</linearGradient>
			<path class="st26" d="M341.6,244.5c-0.3,0.4-0.6,0.7-0.9,1.1c-0.7,0.8-1.4,1.6-2.1,2.3c-10.3,0.6-55.7-0.3-66-0.5
				c-2.3-2.4-4.4-5.1-6.1-8.1c5.1,0.1,14.2,0.2,24.3,0.4c8.1,0.1,16.8,0.3,24.6,0.5c12.9,0.3,23.3,0.7,24.1,1
				C340.6,241.7,341.3,243.1,341.6,244.5z"/>
			<path class="st20" d="M311.9,219.1c0,4.3-3.4,7.8-7.5,7.8s-7.5-3.5-7.5-7.8s3.4-7.8,7.5-7.8S311.9,214.8,311.9,219.1z"/>
			<g>
				<path class="st27" d="M336.1,240.5c0,1.7-1.4,3-3,3l0,0l-74.4-0.8l-2.5,2.1c-0.6,0.5-1.2,0.7-2,0.7H140.3
					c-1.2,0-2.2-0.7-2.7-1.7l-18.9-39.4c-0.7-1.5-0.1-3.3,1.4-4s3.3-0.1,4,1.4l18.1,37.7h110.9l2.5-2.1c0.6-0.5,1.3-0.8,2-0.7
					l75.5,0.8c1.6,0,2.9,1.3,3,2.9C336.1,240.4,336.1,240.4,336.1,240.5z"/>
			</g>
			<path class="st14" d="M364.2,210.3h-15.5c-4.9-18.1-25.1-30.8-47.2-31.1s-34.2,16-34.2,16l-4.7-3l-7.5-4.8c0,0,21.6-26.5,52.8-25
				c31.2,1.6,40.9,18.1,47,29.1C361,202.5,364.2,210.3,364.2,210.3z"/>
			
				<linearGradient id="SVGID_9_" gradientUnits="userSpaceOnUse" x1="116.8884" y1="76.1298" x2="155.0194" y2="76.1298" gradientTransform="matrix(1 0 0 -1 0 286)">
				<stop  offset="0" style="stop-color:#2F3337"/>
				<stop  offset="1" style="stop-color:#252626"/>
			</linearGradient>
			<path class="st28" d="M116.9,179.3c-1.5,1.2,27.5,61.2,27.5,61.2l10.5-0.8L121.1,181L116.9,179.3z"/>
			<path class="st11" d="M194.3,195.1l2.5,3.9l49,17.6l7.9-1.5c0,0-32.4-20.3-52.9-24.3L194.3,195.1z"/>
			<path class="st29" d="M240,231.1c0,0.5-0.1,1-0.1,1.4c-0.6,7.2-3.3,13.7-7.5,16c-8.2,4.4-69,0.9-77.8-4.6
				c-8.5-5.4-7.7-17.7-0.6-21.7c0.2-0.1,0.4-0.2,0.6-0.3c5.2-2.5,11.5-4.6,17.4-6.3c9.4-2.7,17.6-4.2,17.6-4.2
				c13.8-13.3,38.2-8.1,45.8,2.1C238.9,218.1,240.3,224.8,240,231.1z"/>
			<polygon class="st11" points="241.1,233.9 257.4,211.8 253.7,209.4 238,231.5 			"/>
			
				<linearGradient id="SVGID_10_" gradientUnits="userSpaceOnUse" x1="41.8108" y1="29.9113" x2="95.5684" y2="113.4751" gradientTransform="matrix(1 0 0 -1 0 286)">
				<stop  offset="3.906000e-05" style="stop-color:#473730"/>
				<stop  offset="1" style="stop-color:#252626"/>
			</linearGradient>
			<path class="st30" d="M75.6,185.6c-27.2-7.5-56.3,8.9-54.3,44.1c0.3,4.9,1.2,9.3,2.7,13.2c8.2,11.3,21.9,18.8,37.5,18.8
				c23.3,0,42.5-16.6,45.1-38.1C104.5,206,90.5,189.7,75.6,185.6z M59.3,243.7c-14.2,0-25.7-10.9-25.7-24.3
				c0-13.4,11.5-24.3,25.7-24.3s25.6,10.9,25.6,24.3S73.4,243.7,59.3,243.7z"/>
			
				<linearGradient id="SVGID_11_" gradientUnits="userSpaceOnUse" x1="52.8293" y1="50.6206" x2="74.2116" y2="83.8584" gradientTransform="matrix(1 0 0 -1 0 286)">
				<stop  offset="3.906000e-05" style="stop-color:#473730"/>
				<stop  offset="1" style="stop-color:#252626"/>
			</linearGradient>
			<path class="st31" d="M77.9,219.8c-2.8-8.8-11.8-16.5-22.2-12.2c-13.1,5.4-11,19.2-6.6,26.1c3,2.3,6.9,3.7,11.1,3.7
				c9.8,0,17.8-7.5,17.8-16.8C77.9,220.3,77.9,220,77.9,219.8z M60,230.2c-5.7,0-10.3-4.4-10.3-9.8c0-5.4,4.6-9.8,10.3-9.8
				s10.3,4.4,10.3,9.8S65.7,230.2,60,230.2z"/>
			<g>
				<path class="st14" d="M106,201.8c-0.3,2.5-1.4,3-2.5,2.9c-1.2-0.1-2.3-1-2.3-1c-2.7-5.5-5.9-11.9-12.9-16.6
					c-2.6-1.8-5.6-3.3-9.3-4.5c-13.8-4.5-29.8,3.2-35.2,4.7c-1,0.3-2.1,0.3-3.2,0c-4.7-1-9.5-6.1-8-8c7.9-10.1,23.8-15.9,40.5-13.6
					c3.4,0.5,6.8,1.3,10.1,2.4C103.3,175,106.6,196.6,106,201.8z"/>
				<path class="st32" d="M103.5,204.7c-1.2-0.1-2.3-1-2.3-1c-3.7-7.6-8.4-16.6-22.2-21.1s-29.8,3.2-35.2,4.7c-1,0.3-2.1,0.3-3.2,0
					c7.1-3.8,21-12,38.4-7C95.2,185,102.2,195.8,103.5,204.7z"/>
				<path class="st32" d="M106,201.8c-0.3,2.5-1.4,3-2.5,2.9c-1.2-0.1-2.3-1-2.3-1c-2.7-5.5-5.9-11.9-12.9-16.6
					c-2.9-6.9-8-14.2-15.2-21.4c3.4,0.5,6.8,1.3,10.1,2.4C103.3,175,106.6,196.6,106,201.8z"/>
			</g>
			<path class="st33" d="M357.4,210.3h-8.7c-4.9-18.1-25.1-30.8-47.2-31.1s-34.2,16-34.2,16l-4.7-3c7.5-7.8,18.9-19,45.7-19.4
				C334.3,172.6,352.3,194,357.4,210.3z"/>
			
				<linearGradient id="SVGID_12_" gradientUnits="userSpaceOnUse" x1="296.9754" y1="55.0107" x2="338.4402" y2="119.4657" gradientTransform="matrix(1 0 0 -1 0 286)">
				<stop  offset="3.906000e-05" style="stop-color:#473730"/>
				<stop  offset="1" style="stop-color:#252626"/>
			</linearGradient>
			<path class="st34" d="M340.8,245.4c7.7-25.6-12.9-56.1-35-58.1c-21.9-2-37.7,9.4-44.6,22.1c3.8-20.8,22.3-36.5,44.6-36.5
				c25,0,45.3,19.9,45.3,44.4C351.1,227.9,347.2,237.8,340.8,245.4z"/>
			
				<linearGradient id="SVGID_13_" gradientUnits="userSpaceOnUse" x1="265.9654" y1="50.0238" x2="279.5469" y2="71.1357" gradientTransform="matrix(1 0 0 -1 0 286)">
				<stop  offset="3.906000e-05" style="stop-color:#473730"/>
				<stop  offset="1" style="stop-color:#252626"/>
			</linearGradient>
			<path class="st35" d="M282.7,232.6l-18.3,2.9c-2-4.3-3.3-9-3.8-13.9L278,220C278.4,224.7,280,229,282.7,232.6z"/>
			
				<linearGradient id="SVGID_14_" gradientUnits="userSpaceOnUse" x1="333.6838" y1="57.5421" x2="348.661" y2="80.8234" gradientTransform="matrix(1 0 0 -1 0 286)">
				<stop  offset="3.906000e-05" style="stop-color:#473730"/>
				<stop  offset="1" style="stop-color:#252626"/>
			</linearGradient>
			<path class="st36" d="M350.9,221.8l-22.8,3.6c0.7-2.3,1.1-4.8,1.1-7.4c0-0.9,0-1.8-0.1-2.6l21.9-2
				C351.1,214.7,351,220.3,350.9,221.8z"/>
			<path class="st37" d="M240,231.1c0,0.5-0.1,1-0.1,1.4c-0.6,7.2-3.3,13.7-7.5,16c-8.2,4.4-69,0.9-77.8-4.6
				c-8.5-5.4-7.7-17.7-0.6-21.7c6.3,7.8,21.6,13,37.5,15.2C204,239.1,227.8,234,240,231.1z"/>
			<path class="st38" d="M187.1,232.8c-1,3.4-3.8,6-7.5,6.4l-14.8,1.8c-4.9,0.6-9.4-2.9-10-7.8c0-0.4-0.1-0.7-0.1-1.1
				c0-0.1,0-0.3,0-0.4c0.2-4.3,3.5-7.9,7.9-8.4l14.8-1.8c4.9-0.6,9.4,2.9,9.9,7.8C187.6,230.5,187.5,231.7,187.1,232.8z"/>
			<polygon class="st39" points="175.3,228 194.3,226.4 194.3,230.2 175.3,231.3 			"/>
			<g>
				<g>
					<path class="st13" d="M162,209.4c-12.8,3.2-30.3,1.1-30.9-9.1c-0.1-2.4,0.6-4.4,2-6c7.2-8.8,31.9-8.4,37.4-3.6
						c1.8,1.6,3,3.5,3.4,5.6C174.9,201.3,171.2,207.1,162,209.4z"/>
					<path class="st40" d="M137,199.8c0.4,6.8,12.1,8.2,20.7,6.1c8.6-2.1,10-8.7,5.7-12.6C159,189.5,136.4,189.9,137,199.8z"/>
				</g>
				<path class="st41" d="M146,193.8c-1.6,2.2,15.3,3.6,15.2,1C161,192.2,149.2,189.5,146,193.8z"/>
				<path class="st42" d="M162,209.4c-12.8,3.2-30.3,1.1-30.9-9.1c-0.1-2.4,0.6-4.4,2-6c6.9,7.5,21.8,16.3,40.8,2
					C174.9,201.3,171.2,207.1,162,209.4z"/>
			</g>
			<path class="st11" d="M106,144.1c0,0,22.4,88.7,26.5,95.5l-6.3-7.7l-24.6-85.1L106,144.1z"/>
			<path class="st5" d="M129.6,213c0,0,3.7,18.7,5.5,21.1c1.7,2.4,23.8,12.8,23.8,12.8l-7.5,1.8c0,0-13.4-1.5-21.2-9s-3.6-21-3.6-21
				L129.6,213z"/>
			<g>
				<path class="st39" d="M218.9,211.1c-11.5-3.6-23.1,4.9-22.4,17.6c1,18.7,27.5,20.4,34.2,8.2
					C237.2,225.1,228.7,214.2,218.9,211.1z"/>
				<path class="st43" d="M218.6,214.6c-8-1.6-18.8,3.4-16.5,14.2c2.3,10.9,16.1,12.7,21.9,8.5C229.8,233.1,233.1,217.5,218.6,214.6
					z"/>
				<path class="st44" d="M201.8,233c0,0.9-0.8,1.7-1.7,1.7c-1,0-1.7-0.8-1.7-1.7s0.8-1.7,1.7-1.7S201.8,232.1,201.8,233z"/>
				<path class="st44" d="M218.1,241.1c0,0.9-0.8,1.7-1.7,1.7s-1.7-0.8-1.7-1.7s0.8-1.7,1.7-1.7
					C217.4,239.4,218.1,240.2,218.1,241.1z"/>
				<path class="st44" d="M232.1,227.5c0,0.9-0.8,1.7-1.7,1.7s-1.7-0.8-1.7-1.7s0.8-1.7,1.7-1.7
					C231.3,225.8,232.1,226.6,232.1,227.5z"/>
				<path class="st44" d="M214.7,211.4c0,0.9-0.8,1.7-1.7,1.7c-1,0-1.7-0.8-1.7-1.7s0.8-1.7,1.7-1.7
					C213.9,209.6,214.7,210.4,214.7,211.4z"/>
				<polygon class="st45" points="206.7,225 206.7,229.2 227.1,228 224.1,221.8 				"/>
			</g>
			<path class="st46" d="M239.9,232.6c-20.1-0.7-39.8-17.8-39.8-17.8s-12.9,5.1-14.1,5.2c-0.9,0.1-9.8-3-14-4.4
				c9.4-2.7,17.6-4.2,17.6-4.2c13.8-13.3,38.2-8.1,45.8,2.1C239.1,218.4,240.4,225.8,239.9,232.6z"/>
			<g>
				<g>
					<path class="st5" d="M295.4,218.4c-1.2,2.6-8.9,5.5-23.3,7c-0.5,0-1.1,0.1-1.6,0.1c-11.6,1-21.1,1.6-25.8,1.3
						c-18.4-1.2-47.9-17.1-47.9-17.1l-12.7,6.1l-10.4-2.4c0,0,0.1-2.9,0.4-7c0.4-6.2,1.2-15.1,2.6-20.9l17.4,4.3l8.9,10.4l44.3,14.4
						c0,0,10-0.6,24-1.4C288.7,212.4,297,215.2,295.4,218.4z"/>
					<path class="st47" d="M357.5,213.4c-0.2,0.9-0.6,1.7-1.6,2.2c-0.2,0.1-49.9,6.7-83.7,9.8c-0.5,0-1.1,0.1-1.6,0.1
						c0.2-1.6,0.5-3.5,0.6-5.4c0.2-2.2,0.3-4.5,0.2-6.7c31.9-1.8,84.3-4.6,85.1-3.8C357.2,210.3,357.8,211.9,357.5,213.4z"/>
				</g>
				<path class="st46" d="M145.1,236.5c0,0,0.1,0,0.2-0.1C145.2,236.5,145.2,236.5,145.1,236.5z"/>
				<path class="st46" d="M357.5,213.4c-0.2,0.9-0.6,1.7-1.6,2.2c-0.2,0.1-49.9,6.7-83.7,9.8c-0.5,0-1.1,0.1-1.6,0.1
					c-11.6,1-21.1,1.6-25.8,1.3c-18.4-1.2-47.9-17.1-47.9-17.1l-12.7,6.1l-10.4-2.4c0,0,0.1-2.9,0.4-7l22.7-1.7
					c0,0,31.8,13.7,38.7,16.3c2.3,0.9,17,0.3,35.6-0.9c7.6-0.5,15.9-1.1,24.3-1.7C320.5,216.5,346.4,214.3,357.5,213.4z"/>
			</g>
			<path class="st48" d="M180.5,190.8l12.1,1.1l7.5,9.6l-5.9,1c0,0-5.9-7.6-8-7.9c-2-0.3-5.8-0.8-5.8-0.8L180.5,190.8L180.5,190.8z"
				/>
			<polygon class="st48" points="209.8,203.7 247.5,218 243,219.1 211.3,206.8 			"/>
			<path class="st49" d="M187.1,232.8c-1,3.4-3.8,6-7.5,6.4l-14.8,1.8c-4.9,0.6-9.4-2.9-10-7.8c0-0.4-0.1-0.7-0.1-1.1
				c0-0.1,0-0.3,0-0.4C167,233.9,179.8,234,187.1,232.8z"/>
			<g>
				<path class="st3" d="M345.2,134.1c0,3.8-3.2,19-5.1,19.2c-0.5,0.1-1-0.2-1.5-0.5c-1.3-1-2.4-3.2-2.4-3.2l3.9-19.6
					c1.6-2.9,3-2.5,3.9-0.9C344.8,130.4,345.2,132.4,345.2,134.1z"/>
				<path class="st50" d="M344,129.1c-2.2,6.8-4.3,17.5-5.5,23.6c-1.3-1-2.4-3.2-2.4-3.2l3.9-19.6
					C341.7,127.2,343.1,127.6,344,129.1z"/>
			</g>
			<path class="st19" d="M65,220L65,220l8-12.2c0,0,7.4,5.8,4.9,15L65,220z"/>
			<g>
				
					<linearGradient id="SVGID_15_" gradientUnits="userSpaceOnUse" x1="57.3447" y1="137.8798" x2="124.4447" y2="137.8798" gradientTransform="matrix(1 0 0 -1 0 286)">
					<stop  offset="3.906000e-05" style="stop-color:#445159"/>
					<stop  offset="1" style="stop-color:#252626"/>
				</linearGradient>
				<polygon class="st51" points="124.4,78.1 118.4,122 62.3,220.8 59.9,220 57.3,219.1 112.3,118.4 117.1,75.5 121.2,77 				"/>
				
					<linearGradient id="SVGID_16_" gradientUnits="userSpaceOnUse" x1="59.9687" y1="137.1298" x2="124.3687" y2="137.1298" gradientTransform="matrix(1 0 0 -1 0 286)">
					<stop  offset="3.906000e-05" style="stop-color:#445159"/>
					<stop  offset="1" style="stop-color:#252626"/>
				</linearGradient>
				<path class="st52" d="M124.4,78.1l-5.9,43.9l-56.1,98.8L60,220l55.1-99.2c0,0,4.3-31.7,6.2-43.8L124.4,78.1z"/>
			</g>
			<polygon class="st27" points="337.2,151.3 332.9,162.4 333.5,163.4 336.1,163.9 338.6,152.8 			"/>
			<path class="st53" d="M336.1,240.4l-73.5-0.8l-10.1,1.5l-14.5-0.8l0.5-0.9h14.6l2.5-2.1c0.6-0.5,1.3-0.8,2-0.7l75.5,0.8
				C334.8,237.4,336.1,238.7,336.1,240.4z"/>
			<g>
				<path class="st54" d="M257.6,162.6c0,1.6,2.8,6.8,10.4,15.4c7.6,8.6,27.7,39,27.7,39l2.9-5.2l0.6-0.8l0.1-0.1l1.6-3.1
					c0,0-0.9-11.4-5.4-24.7S281,165.8,281,165.8s4.6,0,10.9-0.2c1.5-0.1,3-0.1,4.6-0.2c4.8-0.2,10-0.5,14.7-0.9
					c12.9-1.2,22.5-2.6,25.2-6.2c2.7-3.6,3.9-8.7,3.6-9.5c0,0-5.3-0.2-11.3-1.6c-0.4-0.1-0.9-0.2-1.3-0.3c-0.2,0-0.3-0.1-0.5-0.1
					c-1.8-0.5-3.6-1.1-5.4-1.8c-2.5-1.1-4.6-2.3-6.2-3.4c-0.3-0.2-0.5-0.3-0.7-0.5c-3.1-2.2-4.4-4-4.4-4s-11.7,3.9-23.1,7.8
					c-1.6,0.5-3.1,1.1-4.7,1.6c-0.3,0.1-0.6,0.2-0.9,0.3c-4.5,1.5-8.7,3-11.7,4.1c-2,0.7-3.4,1.2-4.2,1.6
					C260.4,154.6,257.6,161,257.6,162.6z"/>
				
					<linearGradient id="SVGID_17_" gradientUnits="userSpaceOnUse" x1="160.4687" y1="83.0549" x2="119.6829" y2="135.1551" gradientTransform="matrix(-1 0 0 -1 432.9948 286)">
					<stop  offset="0" style="stop-color:#0E566B"/>
					<stop  offset="1" style="stop-color:#00516B"/>
				</linearGradient>
				<path class="st55" d="M269.5,164.6c0,0,16.8,14.9,22,27c3,7.1,5.9,14.4,7.8,19.3l1.6-3.1c0,0-0.9-11.4-5.4-24.7
					S281,165.8,281,165.8s17.3-0.1,30.1-1.3c12.9-1.2,22.5-2.6,25.2-6.2c2.7-3.6,3.9-8.7,3.6-9.5c0,0-5.3-0.2-11.3-1.6
					c-0.4-0.1-0.9-0.2-1.3-0.3c-4.1,2.7-11.6,5.7-24.9,9.3C285.2,160.7,269.5,164.6,269.5,164.6z"/>
				
					<linearGradient id="SVGID_18_" gradientUnits="userSpaceOnUse" x1="135.2737" y1="204.8751" x2="96.6917" y2="136.3496" gradientTransform="matrix(-1 0 0 -1 432.9948 286)">
					<stop  offset="0" style="stop-color:#1E2626"/>
					<stop  offset="0.9847" style="stop-color:#17191F"/>
				</linearGradient>
				<path class="st56" d="M294.6,114.1c0.1,0.7,1.4,4.1,2.5,6.8c0.8,2,1.6,3.7,1.6,3.7c1.7-1.2,5.9-6.4,5.9-6.4
					c0,0.1,0.1,0.1,0.2,0.2c1.5,1.6,8.2,4.2,8.2,5.2c0,1.1-2.9,14-2.9,14s3.2,4.2,12.8,8.1c1.9,0.8,3.6,1.3,5.3,1.8
					c6.9,1.8,11.7,1.3,11.7,1.3s0.9-3.5-4.2-30.4c-5-26.9-15.7-37.8-18.1-39c-1.6-0.8-3.9-0.5-5.7,1.2l-0.1,0.1
					c-1.8,1.7-5.1,6.2-8.4,12.1C300,98.8,294.6,114.1,294.6,114.1z"/>
				
					<linearGradient id="SVGID_19_" gradientUnits="userSpaceOnUse" x1="156.5508" y1="91.5838" x2="113.7961" y2="146.1991" gradientTransform="matrix(-1 0 0 -1 432.9948 286)">
					<stop  offset="0" style="stop-color:#0E566B"/>
					<stop  offset="1" style="stop-color:#00516B"/>
				</linearGradient>
				<path class="st57" d="M265.6,162.5l0.9,0.5c0.1,0.1,13.2,7.9,19.7,18.6c5.2,8.5,10.4,23.9,12.5,30.1l0.6-1
					c-2.2-6.7-7.3-21.3-12.3-29.6c-5.7-9.3-16.1-16.4-19.2-18.4l47.4-12.3c4.3-1.1,10.1-2.5,13.5-3.3c-0.6-0.1-1.2-0.3-1.8-0.5
					c-3.9,0.9-9.3,2.3-11.4,2.8c-0.3-1.3-1-5.1-0.2-8c-0.3-0.2-0.5-0.3-0.7-0.5c-1.1,3.2-0.2,7.4,0.1,8.8L265.6,162.5z"/>
				
					<linearGradient id="SVGID_20_" gradientUnits="userSpaceOnUse" x1="120.8589" y1="199.2167" x2="121.3629" y2="203.7518" gradientTransform="matrix(-1 0 0 -1 432.9948 286)">
					<stop  offset="0" style="stop-color:#ECBC91"/>
					<stop  offset="1" style="stop-color:#EC9974"/>
				</linearGradient>
				<path class="st58" d="M309.1,80.5c0.3,1.5,0.7,3.6,0.5,5.4c0,0,1-2.3,3.1-3.4l0,0c0-0.1-1.3-3.8,0.7-7.7
					c-0.1,0.2-2.4,3.4-4.9,3.3C308.4,78.1,308.8,79.1,309.1,80.5z"/>
				
					<linearGradient id="SVGID_21_" gradientUnits="userSpaceOnUse" x1="104.6418" y1="193.355" x2="107.2766" y2="217.0682" gradientTransform="matrix(-1 0 0 -1 432.9948 286)">
					<stop  offset="0" style="stop-color:#A05C00"/>
					<stop  offset="1" style="stop-color:#C18000"/>
				</linearGradient>
				<path class="st59" d="M326.4,79.2c0.3-0.6,0.7-1.1,0.7-1.1C326.9,78.5,326.7,78.8,326.4,79.2z"/>
				<path class="st60" d="M308.4,78.1c0,0,0.3,1,0.7,2.5c1,0.4,3.5,1.9,3.6,2c0-0.1-1.3-3.8,0.7-7.7C313.2,75,310.9,78.2,308.4,78.1
					z"/>
				
					<linearGradient id="SVGID_22_" gradientUnits="userSpaceOnUse" x1="139.0695" y1="239.9933" x2="116.6612" y2="213.9511" gradientTransform="matrix(-1 0 0 -1 432.9948 286)">
					<stop  offset="0" style="stop-color:#ECBC91"/>
					<stop  offset="1" style="stop-color:#EC9974"/>
				</linearGradient>
				<path class="st61" d="M298.2,74.6c-2.7-3.2-5.3-11.7-6.5-14.2c-1.3-2.6-1.2-10.7,0.6-12.6c0.5-0.5,2.5,2.9,8.3,1.4
					s7.4-3.5,8.8-4.1s3.6-2.1,7.3,4.7c3.7,6.8,2.6,12.1,2.1,15.1c-0.4,2.3-3.4,8.3-6.4,11.4c0.3-0.6,0.6-1.1,0.9-1.5
					c1.2-1.8,5-7.8,5.3-11.1c0.3-3.3,0.4-9.3-2.6-14.5c-2.9-5.2-5.9-4.4-6.7-3.5c-0.8,1-4.3,2.7-8.6,3.8c-4.4,1.1-7.3-1-8.1-1.5
					c0,0-0.8,0.8-1.1,3.8c-0.3,3,0.4,6.3,1.4,10.1c0.9,3.8,2.5,6.8,5,11.7c2.5,4.9,11.4,4.7,11.4,4.7l0,0
					C305.6,79.1,300.8,77.6,298.2,74.6z"/>
				
					<linearGradient id="SVGID_23_" gradientUnits="userSpaceOnUse" x1="142.0701" y1="225.1352" x2="110.0427" y2="224.0325" gradientTransform="matrix(-1 0 0 -1 432.9948 286)">
					<stop  offset="0" style="stop-color:#ECBC91"/>
					<stop  offset="1" style="stop-color:#EC9974"/>
				</linearGradient>
				<path class="st62" d="M291.7,60.4c1,2,2.9,7.9,4.9,11.7c0.5,1,1.1,1.8,1.6,2.5c2.5,3,7.4,4.5,10.9,3.7c0.2-0.1,0.5-0.1,0.7-0.2
					c0.8-0.3,1.7-0.9,2.5-1.8c3-3.1,6-9.1,6.4-11.4c0.5-2.9,1.6-8.3-2.1-15.1s-5.9-5.3-7.3-4.7s-3,2.6-8.8,4.1s-7.8-1.9-8.3-1.4
					c-0.9,0.9-1.3,3.1-1.5,5.5C290.7,56,291,59,291.7,60.4z"/>
				<path class="st60" d="M301.6,62.4c0-0.8-0.8-4.9-3.8-5.5c-2.9-0.6-4.2,3.4-3.9,4.7L301.6,62.4z"/>
				<path class="st60" d="M309,61.5c-0.4-0.6-0.7-3.3,0.7-6.1c1.4-2.8,6.2-1.8,6.8,2C317.1,61.2,309,61.5,309,61.5z"/>
				<path class="st63" d="M301.5,63.1c0.5-1.6-1-3.3-3-4.2s-4.2-0.5-4.5,1.9c-0.3,2.3,1.7,3.3,3.7,3.7
					C299.7,65,301.1,64.3,301.5,63.1z"/>
				<path class="st63" d="M309.5,62.2c-1.1-0.9-1-3.1,0.7-5.2c1.7-2.1,5.1-2.2,5.9-0.3c0.7,2,0.1,3.6-1.4,4.6
					C313.2,62.4,310.5,63,309.5,62.2z"/>
				<path class="st64" d="M310.7,58.3c0,1.7,1.3,3,3,3c1.6,0,3-1.4,3-3c0-1.7-1.3-3-3-3S310.7,56.6,310.7,58.3z"/>
				<path class="st64" d="M295.4,61.2c0,1.7,1.1,3.3,3.1,3.3c1.6,0,3-1.7,2.8-3.4c-0.1-1.2-1.6-2.4-3.2-2.4
					C296.4,58.8,295.4,59.5,295.4,61.2z"/>
				
					<linearGradient id="SVGID_24_" gradientUnits="userSpaceOnUse" x1="92.9439" y1="172.0094" x2="123.1052" y2="172.0094" gradientTransform="matrix(-1 0 0 -1 432.9948 286)">
					<stop  offset="0" style="stop-color:#1E2626"/>
					<stop  offset="0.9847" style="stop-color:#17191F"/>
				</linearGradient>
				<path class="st65" d="M309.8,84c2.2,2.8,4.4,5.8,10.4,4.1c0,0,7.9,11.7,10.4,22.2c2.4,10.5,2.6,20.4,1.7,24.5
					c-0.6,2.7-2.8,9.1-4.1,12.8c6.9,1.8,11.7,1.3,11.7,1.3s0.9-3.5-4.2-30.4c-5-26.9-15.7-37.8-18.1-39c-1.6-0.8-3.9-0.5-5.7,1.2
					C310.8,82.5,309.8,84,309.8,84z"/>
				<path class="st66" d="M302,58.6c0.6,1.5,0.9,3.1,1,4.8c0,0.4,0,0.8,0,1.2c0,0.2,0,0.4,0,0.6s0,0.4,0,0.6l-0.1,0.6l-0.1,0.6
					c-0.1,0.4-0.2,0.8-0.3,1.2l0,0c0,0.2,0.1,0.4,0.2,0.4l0,0c0.1,0,0.3,0.1,0.4,0.1s0.2,0,0.4,0c0.2,0,0.5,0,0.7,0
					c0.5,0,1-0.1,1.4-0.3c0.1,0,0.2-0.1,0.3-0.1c0.1-0.1,0.2-0.1,0.3-0.2c0.2-0.1,0.4-0.2,0.6-0.4c0.2-0.1,0.4-0.3,0.5-0.5
					c0.2-0.2,0.3-0.4,0.5-0.5c0.1-0.1,0-0.2,0-0.2c-0.1-0.1-0.1-0.1-0.2,0l0,0c-0.2,0.2-0.3,0.3-0.5,0.5c-0.2,0.1-0.3,0.3-0.5,0.4
					s-0.4,0.2-0.6,0.3c-0.1,0.1-0.2,0.1-0.3,0.1c-0.1,0-0.2,0.1-0.3,0.1c-0.4,0.1-0.9,0.2-1.3,0.2c-0.2,0-0.4,0-0.6-0.1
					c-0.1,0-0.2,0-0.3-0.1c-0.1,0-0.2-0.1-0.3-0.1l0,0l0.2,0.5c0.1-0.4,0.2-0.8,0.3-1.3l0.1-0.6v-0.6c0-0.2,0-0.4,0-0.6s0-0.4,0-0.6
					c0-0.4,0-0.8-0.1-1.3c-0.2-1.7-0.6-3.3-1.3-4.8c0-0.1-0.1-0.1-0.2-0.1C302,58.5,302,58.5,302,58.6L302,58.6z"/>
				
					<linearGradient id="SVGID_25_" gradientUnits="userSpaceOnUse" x1="131.3124" y1="225.7962" x2="139.0375" y2="225.7962" gradientTransform="matrix(-1 0 0 -1 432.9948 286)">
					<stop  offset="5.121970e-03" style="stop-color:#9A6738"/>
					<stop  offset="1" style="stop-color:#3D2712"/>
				</linearGradient>
				<path class="st67" d="M301.6,62.4c-0.1-1.3-0.8-3.6-3.5-4.2c-2.7-0.7-4.8,1.5-4.2,3.5c0,0,0.4-1.9,2.5-2.2
					C299.6,59.1,301.6,62.4,301.6,62.4z"/>
				
					<linearGradient id="SVGID_26_" gradientUnits="userSpaceOnUse" x1="124.0657" y1="224.211" x2="117.3742" y2="231.4287" gradientTransform="matrix(-1 0 0 -1 432.9948 286)">
					<stop  offset="5.121970e-03" style="stop-color:#9A6738"/>
					<stop  offset="1" style="stop-color:#3D2712"/>
				</linearGradient>
				<path class="st68" d="M308.9,61.1c0,0.8-0.6-3,1.3-4.9c1.7-1.8,5.9-2.2,6.4,1.5c0,0-0.5-1.3-2.4-1.4
					C311.1,56.2,308.9,61,308.9,61.1z"/>
				<path class="st69" d="M308.9,61.2c0.1-0.3,2-2.8,3.7-3.9c1.8-1.1,3.9,0.3,3.9,0.3s-0.3-1.9-2.8-1.9s-4,2.9-4.3,3.4
					C309.1,59.6,308.9,61.2,308.9,61.2z"/>
				<path class="st69" d="M301.6,62.4c-0.2-0.4-1.9-1.9-4.1-2.4c-2.4-0.5-3.6,1.6-3.6,1.6s0-1.2,1.5-2.3c1.3-0.9,4.1,0,5.2,1.2
					C301.7,61.8,301.6,62.4,301.6,62.4z"/>
				<path class="st60" d="M290.9,53.3c0.3-0.8,0.5-1.8,0.6-2.6c0.3-1.9,0.9-2.5,0.9-2.5c0.2,0.3,3.1,2.9,7.7,2s8.4-3.4,9.7-4.5
					c1.3-1.2,3.6,0.1,5.2,2.7c1.6,2.6,5.2,11.1,2.3,17.5c-2.9,6.4-5.5,10.8-8.4,11.6c-2.9,0.8-7.7,0.5-10.8-3.5
					c-0.6-0.7-1.1-1.4-1.5-1.8c0.5,1,1.1,1.8,1.6,2.5c2.5,3,7.4,4.5,10.9,3.7c0.2-0.1,0.5-0.1,0.7-0.2c0.8-0.3,1.7-0.9,2.5-1.8
					c3-3.1,6-9.1,6.4-11.4c0.5-2.9,1.6-8.3-2.1-15.1s-5.9-5.3-7.3-4.7s-3,2.6-8.8,4.1s-7.8-1.9-8.3-1.4
					C291.5,48.7,291,50.9,290.9,53.3z"/>
				
					<linearGradient id="SVGID_27_" gradientUnits="userSpaceOnUse" x1="148.8808" y1="123.8784" x2="141.5812" y2="133.203" gradientTransform="matrix(-1 0 0 -1 432.9948 286)">
					<stop  offset="0" style="stop-color:#0E566B"/>
					<stop  offset="1" style="stop-color:#00516B"/>
				</linearGradient>
				<path class="st70" d="M281.1,147c0.4,2.3,1.2,6.4,2.7,9.1c2.2,3.9,7.5,9.4,7.5,9.4s0.1,0.1,0.3,0.3c1.5-0.1,3-0.1,4.6-0.2
					l-9.5-20.5c-1.6,0.5-3.1,1.1-4.7,1.6C281.7,146.8,281.4,146.8,281.1,147z"/>
				
					<linearGradient id="SVGID_28_" gradientUnits="userSpaceOnUse" x1="166.9173" y1="112.7742" x2="151.9876" y2="131.8456" gradientTransform="matrix(-1 0 0 -1 432.9948 286)">
					<stop  offset="0" style="stop-color:#0E566B"/>
					<stop  offset="1" style="stop-color:#00516B"/>
				</linearGradient>
				<path class="st71" d="M273.2,167.4c0,0-1.7,5.9,1.2,7.5c2.9,1.6,4.3,0.9,3.6-0.4c-0.7-1.3-0.4-6.8-0.4-6.8s1.7-5.6,2.9-10.9
					c0.7-3.2,1.3-7.3,1.7-10.1c-4.8,1.7-9.4,3.2-12.6,4.4C269.7,156,271.6,164.9,273.2,167.4z"/>
				<g>
					
						<linearGradient id="SVGID_29_" gradientUnits="userSpaceOnUse" x1="129.2566" y1="252.683" x2="115.2206" y2="196.1071" gradientTransform="matrix(-1 0 0 -1 432.9948 286)">
						<stop  offset="4.980470e-03" style="stop-color:#732900"/>
						<stop  offset="0.995" style="stop-color:#4E2C25"/>
					</linearGradient>
					<path class="st72" d="M295.4,88.6L295.4,88.6c0.2,0.1,0.3,0.1,0.5,0.2c0.3,0.1,0.7,0.2,1,0.3c0.9,0.2,1.7,0.4,2.5,0.4
						c1.3,0.2,2.5,0.1,3.5,0l0,0c0.1,0,0.3,0,0.4-0.1l0,0c1.1-0.2,2-0.4,2.8-0.8c0.1-0.1,0.2-0.1,0.3-0.2c2.7-1.4,3.6-3.6,3.5-4.3
						l-0.7-5.7c-3.5,0.8-8.4-0.7-10.9-3.7c-0.1-0.2-0.3-0.3-0.4-0.5s-0.3-0.4-0.4-0.6l0,0c-1.6-2.4-3.1-6.3-4.2-9.4
						c-0.1-0.3-0.2-0.6-0.3-0.9c-0.5-1.2-0.9-2.2-1.2-2.9c-1.3-2.6-1.2-10.7,0.6-12.6c0.3-0.3,1.1,0.6,2.7,1.3
						c0.2,0.1,0.4,0.1,0.6,0.2c0.3,0.1,0.5,0.1,0.8,0.2c0.2,0,0.5,0.1,0.8,0.1h0.1c0.1,0,0.3,0,0.4,0s0.2,0,0.3,0c0.2,0,0.4,0,0.5,0
						s0.1,0,0.2,0c0.2,0,0.4,0,0.6-0.1c0.4-0.1,0.8-0.1,1.2-0.3c4.4-1.2,6.4-2.6,7.8-3.4c0.1-0.1,0.2-0.2,0.3-0.2
						c0.3-0.2,0.5-0.3,0.7-0.4c0.3-0.2,0.7-0.4,1.2-0.5c0.1,0,0.2,0,0.3-0.1c0.5-0.1,1,0,1.5,0.3c1.1,0.5,2.5,1.9,4.2,5
						c3.7,6.8,2.6,12.1,2.1,15.1c-0.4,2.3-3.4,8.3-6.4,11.4c-0.6,1.2-1.2,2.6-1.5,4c0,0.1,0,0.2-0.1,0.3c-0.1,0.7-0.1,1.4,0,2.1
						c0,0.1,0.1,0.2,0.1,0.3c0.1,0.3,0.3,0.7,0.5,1c0.3,0.5,1,1.1,1.8,1.6c0.1,0.1,0.2,0.1,0.3,0.2c1.3,0.7,3,1,4.7,0.5
						c0,0,0,0,0.1,0c0.3-0.1,0.5-0.2,0.8-0.3l0,0c0.1-0.1,0.2-0.1,0.4-0.2c1.1-0.5,2.1-1.2,3.1-2.1c1.6-1.4,3-3.1,4-4.4
						c0.3-0.6,0.7-1.1,0.7-1.1c-0.2,0.4-0.4,0.7-0.7,1.1c-0.3,0.5-0.5,1-0.2,1.2c1,0.6,4.1-0.7,7-2.8c0.6-0.5,1.2-1,1.7-1.6
						c0.1-0.1,0.1-0.2,0.2-0.3c2-2.6,3-6.1,2-8.3c-0.2,0-0.3,0.1-0.3,0.1s-1.1-3,0.3-0.2v0.1c0.9-0.2,3.4-0.8,1.8-1.3
						c-1.4-0.4-4.3-1.9-6.5-4.3c-0.1-0.1-0.2-0.2-0.3-0.3c-0.4-0.5-0.8-1.1-1.2-1.7c-0.1-0.2-0.2-0.4-0.3-0.7
						c-0.1-0.3-0.2-0.5-0.3-0.8c-0.5-1.4-1.5-3.7-2.9-6.2c-2.8-5.2-7.2-11.7-11.9-15c-0.6-0.4-1.3-0.9-2.1-1.2
						c-0.5-0.3-1.1-0.5-1.7-0.7l0,0c-5-1.9-11.8-2.3-15.2,0.1c-4.4,3.1-5.6,6.9-5.5,8.8c0,0-0.6,1-1.3,2.5c-0.1,0.1-0.1,0.2-0.2,0.4
						c-0.5,1.3-1,3-1.1,4.7c-0.1,3.4,0.4,5.9,1.5,8.7l0,0l0,0c0.1,0.2,0.2,0.5,0.3,0.7l0,0c0,0.1,0.1,0.1,0.1,0.2
						c0.4,0.8,0.6,1.8,0.8,2.8c0,0.2,0.1,0.4,0.1,0.6l0,0c0.3,2.8-0.3,5.9-2.1,8.5C286.8,77.1,286.6,85.7,295.4,88.6z"/>
					<g class="st73">
						<path class="st74" d="M296.1,47L296.1,47c0.2,0.3,0.4,0.5,0.6,0.8c0.3,0.4,0.7,0.7,1.2,1.1c0.1,0.1,0.3,0.2,0.5,0.3l0,0
							c0,0,0,0,0.1,0c0.1,0.1,0.2,0.1,0.3,0.2c0.1,0,0.1,0.1,0.2,0.1c0.2,0,0.4,0,0.6-0.1c-0.3-0.1-0.5-0.2-0.7-0.4
							c-0.1,0-0.2-0.1-0.3-0.2c-0.1-0.1-0.2-0.1-0.3-0.2c-0.1-0.1-0.3-0.2-0.4-0.3c-0.5-0.4-0.9-0.9-1.3-1.4l0,0
							c-0.2-0.3-0.3-0.5-0.4-0.8l0,0c-0.4-0.9-0.4-1.9-0.1-3c1-3,4.1-4.2,7.1-4.3s6,0.7,8.8,1.8c5.4,2.1,9.7,6.3,11.3,11.9
							c1.7,5.6,0.8,11.7-1.4,17c-2.2,5.3-5.9,10.1-10.8,13.1c0,0.1,0.1,0.2,0.1,0.3c3.9-2.4,7.1-5.9,9.3-9.8
							c2.8-4.9,4.4-10.6,4-16.3c-0.2-2.4-0.8-4.6-1.7-6.7l0,0c-0.4-0.8-0.8-1.6-1.3-2.4l0,0c0,0,0,0,0-0.1c-1.2-1.8-2.7-3.4-4.6-4.7
							c-2.2-1.5-4.6-2.6-7.1-3.3c-2.7-0.8-5.7-1.3-8.5-0.7c-2.4,0.5-5,2.1-5.5,4.7C295.2,44.8,295.5,46,296.1,47z"/>
						<path class="st74" d="M318.2,86.1c0.4-0.1,0.8-0.3,1.2-0.5c0.6-0.5,1.2-0.9,1.8-1.5c6.7-6.1,10.2-15.4,9.9-24.4
							c-0.1-0.2-0.2-0.4-0.3-0.7c0.1,1.3,0.1,2.6,0,3.9C330.1,72.1,325.7,80.9,318.2,86.1z"/>
						<path class="st74" d="M293.1,44.8c0.5,1.9,1.7,3.5,3.4,4.6c0.2,0,0.5,0.1,0.8,0.1c-1.7-0.9-3.1-2.4-3.7-4.1
							c-0.3-0.9-0.4-1.9-0.2-3l0,0c0-0.1,0.1-0.3,0.1-0.4c1-3.3,4.2-5.5,7.4-6.4c4-1.1,8.5-0.9,12.6,0.3c-0.5-0.3-1.1-0.5-1.7-0.7
							l0,0c-5-1.1-10.8-1-14.9,2C294.4,38.8,292.3,41.8,293.1,44.8z"/>
						<path class="st74" d="M332.1,63.8c0,2,0.3,4.1,0.7,6c0.5,2.1,1.2,4.2,2.1,6.1c0.1-0.1,0.1-0.2,0.2-0.3c-0.9-1.9-1.6-3.9-2-5.9
							c-0.5-2-0.8-4.1-0.7-6.2c0-0.6,0-1.1,0.1-1.7c-0.1-0.1-0.2-0.2-0.3-0.3C332.1,62.2,332.1,63,332.1,63.8z"/>
						<path class="st74" d="M291.2,64.1c0,0.2,0.1,0.4,0.1,0.6l0,0c0.2,0.3,0.4,0.6,0.5,0.9c0.9,1.6,1.4,3.3,1.3,5.2
							c-0.1,3.1-1.1,6.2-0.9,9.3c0.2,3.1,1.2,5.9,3,8.3l0,0c0.2,0.1,0.3,0.1,0.5,0.2c-2.1-2.7-3.3-6.1-3.2-9.7
							c0.1-3.1,1.2-6.3,0.9-9.4c-0.2-1.5-0.6-2.9-1.5-4.2C291.7,64.9,291.5,64.5,291.2,64.1z"/>
						<path class="st74" d="M297.8,74.1c-0.1-0.2-0.3-0.4-0.4-0.6c0,0,0,0,0,0.1c0.3,1.9,0.2,3.9,0.5,5.8c0.2,1.7,0.6,3.3,1.3,4.8
							c0.8,2,2.1,3.7,3.7,5.1l0,0c0.1,0,0.3,0,0.4-0.1c-1.8-1.5-3.2-3.5-4-5.7c-0.6-1.5-0.9-3.1-1.1-4.8
							C298,77.2,298,75.6,297.8,74.1z"/>
						<path class="st74" d="M286.8,53.3c0.2,1.7,0.7,3.5,1.5,5c0.6,1,1.3,1.9,2.1,2.8l0,0c0.5,0.5,1.1,1.1,1.6,1.6s0.9,0.9,1.3,1.4
							c-0.1-0.3-0.2-0.6-0.3-0.9c-0.9-1-2-1.9-2.8-2.9l0,0l0,0c-0.4-0.5-0.9-1-1.2-1.6c-1-1.7-1.6-3.8-1.8-5.7
							c-0.2-1.9,0-4.1,1.5-5.5c0.3-0.3,0.7-0.5,1.1-0.7c1.3-0.5,2.8-0.2,3.9,0.7c0.6,0.4,1.1,0.9,1.5,1.5c0.2,0.1,0.4,0.1,0.6,0.2
							c-0.8-1.1-1.7-2-2.9-2.5c-1-0.4-2-0.5-2.9-0.2c-0.6,0.2-1.2,0.6-1.7,1.1C286.7,49.2,286.5,51.3,286.8,53.3z"/>
						<path class="st74" d="M296,46.1L296,46.1c0,0.2,0,0.3,0,0.5c0,0.1,0,0.2,0.1,0.4l0,0c0.2,0.9,0.7,1.8,1.3,2.5
							c0.1,0,0.3,0,0.4,0c-0.5-0.5-0.9-1.1-1.1-1.7c-0.1-0.3-0.2-0.6-0.3-0.9l0,0c-0.2-0.8-0.2-1.6,0.1-2.5c0.7-2,2.3-3.7,4.4-4.1
							c2-0.4,4.1,0,6,0.6s3.8,1.3,5.6,2.4c6.2,3.6,10.5,10,10.3,17.4c-0.1,4-1.4,8-3.4,11.5c-0.9,1.7-2,3.4-3.4,4.9
							c-1.3,1.5-3.1,3.3-5.2,3.2c0,0.1,0,0.2-0.1,0.3c2.8,0.1,5.1-2.7,6.6-4.7c1.8-2.3,3.2-5,4.1-7.7c1.9-5.3,2.2-11.1-0.3-16.2
							c-2.9-6-9-10.1-15.4-11.6c-2.9-0.7-6.5-0.7-8.5,1.9C296.5,43.4,295.9,44.7,296,46.1z M297.7,48.4c0,0.2,0.1,0.3,0.2,0.5
							s0.2,0.4,0.3,0.6c0.2,0,0.4,0,0.5,0v-0.1c0-0.1,0-0.2,0-0.3c0.3-1.8,3.7-2.9,5.1-3.2c1.5-0.3,3.1-0.5,4.6-0.1
							c0.1-0.1,0.2-0.2,0.3-0.2c-0.1,0-0.2-0.1-0.3-0.1c-1.8-0.4-3.7-0.2-5.5,0.4c-1.5,0.5-4.1,1.5-4.5,3.1c0,0.1,0,0.2-0.1,0.3v0.1
							c0,0,0-0.1-0.1-0.1l0,0c-0.1-0.2-0.2-0.3-0.2-0.5c-0.5-1.3-0.2-2.9,0.8-4.1c1.5-1.9,3.9-2.7,6.2-2.6c2.1,0.1,4.2,1,5.5,2.6
							c0.1,0,0.2,0,0.3-0.1c-0.1-0.1-0.2-0.3-0.3-0.4c-1.7-1.8-4.3-2.7-6.8-2.5c-2.3,0.2-4.7,1.3-5.8,3.5
							C297.6,46.3,297.4,47.4,297.7,48.4z"/>
						<path class="st74" d="M293.3,45.3c0,0.1,0.1,0.1,0.2,0.1s0.1-0.1,0.1-0.2c-0.8-2.8,1-5,3.3-6.3s5.1-2,7.8-1.9
							c5.9,0.1,11.1,3.3,14.6,7.9c0.7,0.9,1.3,1.8,1.9,2.8l0,0c0.5,0.8,0.9,1.6,1.3,2.4c2.9,5.8,4.1,12.5,2.8,18.9
							c-0.7,3.6-2.3,6.9-4.6,9.7c-2.2,2.6-4.8,4.8-7.5,6.8c0.1,0.1,0.2,0.1,0.3,0.2c4.7-3.5,9.1-7.6,11.1-13.2
							c2.4-6.7,1.7-14.5-1.1-21c-3-6.8-8.4-13.3-16.1-14.5c-3.4-0.5-7.1-0.2-10.1,1.5c-1.7,0.9-3.3,2.3-3.9,4l0,0
							C293,43.3,293,44.3,293.3,45.3z"/>
						<path class="st74" d="M301.3,80.6c0.3,2.2,1,4.6,2.5,6.3c0.6,0.7,1.3,1.2,2.1,1.6c0.1-0.1,0.2-0.1,0.3-0.2
							c-0.8-0.4-1.6-0.9-2.3-1.7c-1.5-1.7-2.2-3.9-2.4-6.1C301.6,80.4,301.3,80.4,301.3,80.6z"/>
					</g>
					<g class="st75">
						<path class="st76" d="M311.4,83.9c0.3,0.5,1,1.1,1.8,1.6c0.1,0.1,0.2,0.1,0.3,0.2c1.3,0.7,3,1,4.7,0.5c0,0,0,0,0.1,0
							c0.3-0.1,0.5-0.2,0.8-0.3c-2.5,0.1-4.5-1.3-5.3-3.4c-1.1-3.1,6-11.5,7.1-21.3s-6.6-15.8-8.3-16.5l0.1,0.2
							c1.1,0.5,2.5,1.9,4.2,5c3.7,6.8,2.6,12.1,2.1,15.1c-0.4,2.3-3.4,8.3-6.4,11.4c-0.6,1.2-1.2,2.6-1.5,4c0,0.1,0,0.2-0.1,0.3
							c-0.1,0.7-0.1,1.4,0,2.1c0,0.1,0.1,0.2,0.1,0.3C311,83.2,311.2,83.6,311.4,83.9z"/>
						<path class="st76" d="M326.4,79.2c-0.3,0.5-0.5,1-0.2,1.2c1,0.6,4.1-0.7,7-2.8c0.6-0.5,1.2-1,1.7-1.6c0.1-0.1,0.1-0.2,0.2-0.3
							c2-2.6,3-6.1,2-8.3c0.9-0.2,3.4-0.8,1.8-1.3c-1.4-0.4-4.3-1.9-6.5-4.3c-0.1-0.1-0.2-0.2-0.3-0.3c-0.4-0.5-0.8-1.1-1.2-1.7
							c-0.1-0.2-0.2-0.4-0.3-0.7c-0.1-0.3-0.2-0.5-0.3-0.8c-0.5-1.4-1.5-3.7-2.9-6.2c1.1,3.1,2.1,8.7,2.1,12.9
							c-0.1,10.1-4.5,13.7-7.1,18.5C324,82.2,325.4,80.5,326.4,79.2z"/>
						<path class="st76" d="M300.7,79.1c1.5,1.6,2.1,7.7-1.3,10.2c1.3,0.2,2.5,0.1,3.5,0l0,0c0.1,0,0.3,0,0.4-0.1l0,0
							c1.1-0.2,2-0.4,2.8-0.8c0.1-0.1,0.2-0.1,0.3-0.2c2.7-1.4,3.6-3.6,3.5-4.3l-0.7-5.7c-3.5,0.8-8.4-0.7-10.9-3.7
							c-0.1-0.2-0.3-0.3-0.4-0.5s-0.3-0.4-0.4-0.6l0,0c-1.6-2.4-3.1-6.3-4.2-9.4c-0.1-0.3-0.2-0.6-0.3-0.9c-0.5-1.2-0.9-2.2-1.2-2.9
							c-1.3-2.6-1.2-10.7,0.6-12.6c-0.1-0.1-2.3,1.1-2.4,6.8s2.3,11.2,4.1,14C295.8,71.4,298.9,77.1,300.7,79.1z"/>
					</g>
				</g>
				<path class="st63" d="M311.1,69.2c0,0-6.7,2.2-9.9,2.1c0,0,2,4.6,6.3,3.8C311.8,74.2,311.1,69.2,311.1,69.2z"/>
				
					<linearGradient id="SVGID_30_" gradientUnits="userSpaceOnUse" x1="114.9129" y1="176.0798" x2="135.786" y2="176.0798" gradientTransform="matrix(-1 0 0 -1 432.9948 286)">
					<stop  offset="0" style="stop-color:#1E2626"/>
					<stop  offset="0.9847" style="stop-color:#17191F"/>
				</linearGradient>
				<path class="st77" d="M297.2,120.9c0.8,2,1.6,3.7,1.6,3.7c1.7-1.2,5.9-6.4,5.9-6.4c0,0.1,0.1,0.1,0.2,0.2
					c5-6.4,11.4-19.4,13.2-23.1c-1.1,2.1-3.9,7.2-8.8,13.1C303.7,115.4,299.5,118.9,297.2,120.9z"/>
				
					<linearGradient id="SVGID_31_" gradientUnits="userSpaceOnUse" x1="103.077" y1="150.6298" x2="116.1747" y2="150.6298" gradientTransform="matrix(-1 0 0 -1 432.9948 286)">
					<stop  offset="0" style="stop-color:#1E2626"/>
					<stop  offset="0.9847" style="stop-color:#17191F"/>
				</linearGradient>
				<path class="st78" d="M316.8,130.3l0.1,5.2c0,0,8.6,4.7,11.2,5l1.7-4c0,0-3.3-0.7-7.2-2.7C318.8,131.7,316.8,130.3,316.8,130.3z
					"/>
				<g>
					<path class="st79" d="M283.7,146l-2.9,1.3c0,0,0.5-3.9-0.4-6c-1-2.2,0.3,0.4,0.3,0.4s0.6,0.4,1.2-0.8c0.6-1.3,1.4-1.8,1.4-1.8
						s-0.8,1.7-0.5,4.2C283,145.7,283.7,146,283.7,146z"/>
					<g>
						<path class="st80" d="M293.7,98.3c0.4,2.1,0.5,4.2,0.6,5.9c0.1,2.1,0.4,4.8,0.4,7.3c0.1,2.8-0.1,5.4-0.9,6.7
							c-0.2,0.4-0.6,0.8-1.1,1.1c-0.1,0.1-0.2,0.1-0.3,0.2c-0.6,0.3-1.2,0.7-2,1c-0.1,0-0.2,0.1-0.3,0.1c-3.5,1.4-8.6,2.3-13.2,2.2
							c-2.4,0-4.2-0.3-5.6-0.8c-0.1,0-0.2-0.1-0.3-0.1c-1.1-0.4-2-1-2.6-1.8c-0.1-0.1-0.2-0.3-0.3-0.4l0,0c-0.5-0.7-1-1.6-1.4-2.5
							c-0.7-1.8-1-4-1.1-6.8c-0.1-2.6,0-5.6-0.1-9.2c0-0.8,0-1.5,0.1-2.2c0-0.5,0.1-1.1,0.2-1.6c0-0.1,0-0.2,0-0.3
							c0-0.1,0-0.2,0.1-0.3c0.2-1,0.4-1.9,0.7-2.8c0.1-0.2,0.2-0.4,0.3-0.7l0,0c1.1-2.7,2.9-4.5,4.6-5.8c2.4-1.8,5.5-1.9,7.3-1.7
							c0.2,0,0.3,0,0.5,0.1c0.2,0,0.4,0.1,0.6,0.1c0,0,0.3,0,0.7-0.1c0.1,0,0.2,0,0.3,0c0.1,0,0.3,0,0.5,0c0.1,0,0.2,0,0.3,0
							c0.4,0,0.8,0,1.3,0.1c0.2,0,0.4,0.1,0.6,0.1l0,0c1.8,0.3,4.1,1.2,6,3.1c1,1,1.8,2.1,2.4,3.3l0,0c0.2,0.3,0.3,0.6,0.4,0.9
							c0.5,1.1,0.9,2.3,1.1,3.4c0,0.1,0.1,0.2,0.1,0.3c0,0.1,0.1,0.3,0.1,0.4C293.6,97.8,293.7,98,293.7,98.3z"/>
						<g>
							<g class="st81">
								<path class="st82" d="M280.7,85.9c-1.2,1.4-8,7.8-15,11.2c0-0.1,0-0.2,0.1-0.3c6.7-3.3,13.3-9.3,14.6-10.9
									C280.5,85.9,280.6,85.9,280.7,85.9z"/>
							</g>
							<g class="st81">
								<path class="st82" d="M279.2,85.8c-5.6,2.4-10,5.3-12.6,8.1c0.1-0.2,0.2-0.4,0.3-0.7l0,0c2.6-2.7,6.7-5.3,11.9-7.6
									C278.9,85.8,279,85.8,279.2,85.8z"/>
							</g>
							<g class="st81">
								<path class="st82" d="M293.5,97.1c-7.3-2.8-11.3-8.9-12.3-11.3c0.1,0,0.2,0,0.3,0c1,2.2,4.9,8.1,11.9,10.9
									C293.5,96.9,293.5,97,293.5,97.1z"/>
							</g>
							<g class="st81">
								<path class="st82" d="M292.3,93.4c-2.1-2.5-5.3-4.6-7.7-6.2c-0.7-0.4-1.3-0.8-1.8-1.2c0.2,0,0.4,0.1,0.6,0.1l0,0
									c0.4,0.3,0.8,0.6,1.3,0.9c2.2,1.5,5,3.3,7.1,5.5l0,0C292,92.8,292.1,93.1,292.3,93.4z"/>
							</g>
							<g>
								<g class="st81">
									<path class="st82" d="M268,100.9c0,0-0.9,2.9-0.9,7c0,3.3,0.6,8.8,1.3,12.2c-0.1-0.1-0.2-0.3-0.3-0.4l0,0
										c-0.6-3.4-1.1-8.6-1.2-11.7c0-4.2,0.9-7,0.9-7.1S267.9,100.8,268,100.9C267.9,100.8,268,100.8,268,100.9z"/>
								</g>
								<g class="st81">
									<path class="st82" d="M271.3,122c-0.1,0-0.2-0.1-0.3-0.1c-2.3-5.7-2.1-12.9-1.7-19.7c0-0.1,0.1-0.1,0.1-0.1
										c0.1,0,0.1,0.1,0.1,0.1C269.1,109,268.9,116.2,271.3,122z"/>
								</g>
								<g class="st81">
									<path class="st82" d="M293.4,113.1c-0.1,2.4-0.4,4.5-0.8,6.2c-0.1,0.1-0.2,0.1-0.3,0.2c0.4-1.6,0.7-3.9,0.8-6.4
										c0.2-5-0.5-8.2-1.5-12.5c0-0.1,0-0.1,0.1-0.2c0.1,0,0.1,0,0.2,0.1C293,104.9,293.6,108,293.4,113.1z"/>
								</g>
								<g class="st81">
									<path class="st82" d="M287.9,100.5L287.9,100.5c1.2,7.1,2.5,14.9,2.5,20c-0.1,0-0.2,0.1-0.3,0.1c0.1-5-1.3-12.9-2.5-19.9
										v-0.1c0-0.1,0-0.1,0.1-0.1C287.8,100.4,287.8,100.4,287.9,100.5z"/>
								</g>
							</g>
						</g>
						
							<linearGradient id="SVGID_32_" gradientUnits="userSpaceOnUse" x1="139.2157" y1="192.4342" x2="167.4129" y2="192.4342" gradientTransform="matrix(-1 0 0 -1 432.9948 286)">
							<stop  offset="5.000000e-03" style="stop-color:#AA4300"/>
							<stop  offset="1" style="stop-color:#B13A1C"/>
						</linearGradient>
						<path class="st83" d="M293.7,98.3c-1.8-0.3-6.1-1.1-8.3-2.8c-2.8-2.1-4.6-6.1-4.6-6.1s-6,7.6-9.2,8.7c-2.4,0.8-4.9,0.8-6,0.8
							c0-0.5,0.1-1.1,0.2-1.6c1.4-0.4,3.9-1.2,7.5-3.5c3.9-2.5,7.4-5.7,7.5-5.5c0.1,0.1,2.7,2.5,6.8,5c2.7,1.6,4.9,3.3,6.1,4.3
							C293.6,97.8,293.7,98,293.7,98.3z"/>
						
							<linearGradient id="SVGID_33_" gradientUnits="userSpaceOnUse" x1="138.1904" y1="169.7212" x2="167.3817" y2="169.7212" gradientTransform="matrix(-1 0 0 -1 432.9948 286)">
							<stop  offset="5.000000e-03" style="stop-color:#AA4300"/>
							<stop  offset="1" style="stop-color:#B13A1C"/>
						</linearGradient>
						<path class="st84" d="M294.7,111.5c0.1,2.8-0.1,5.4-0.9,6.7c-1.6,2.5-9.9,4.7-16.9,4.6s-8.8-2.1-10.3-5.7
							c-0.7-1.8-1-4-1.1-6.8c0.9,1.8,2.7,3.2,3.7,3.3c1.2,0.1,2.7-2.9,3.1-2.9c0.3,0,6.3-1.6,9.5-0.5
							C284.8,111.4,292.6,113.2,294.7,111.5z"/>
						<path class="st85" d="M295.9,142.4c-0.5,0.5-1.5,0.9-2.3,1.1c-0.5,0.1-0.9,0.2-1.2,0.2c-0.5-1.4-1.2-2.4-2.7-3.7
							c-2.6-2.2-4.7-2.1-5.4-1.7c-0.5,0.3-1.1,0.7-1.5,1.4c-0.4,0.4-0.6,0.8-0.8,1.2c-0.5,1.2-0.9,0.8-1.3,0.6l0,0
							c-0.4-0.1-0.7-0.8-1.4-2.2c-0.7-1.4-2.3-1.4-4.1,0.1c-1.5,1.3-2.9,6.6-3.2,7.7c0,0.1,0,0.2,0,0.2c-0.7-0.4-1.3-0.7-1.8-1.1
							c-4.6-3.5-2.6-8.2-1.8-11.5c0.5-2.2,1.6-4.6,2.4-6.2c0.4-0.7,0.7-1.3,0.8-1.5c0.1-0.1,0.1-0.2,0.1-0.2s-0.6-1.2-1.2-3l0,0
							c-0.3-0.9-0.5-1.9-0.7-3.1c-0.4-2.5,0.6-5,1.3-6.5c0.3-0.6,0.5-1,0.7-1.2c0.6-0.9,1.5-1.5,1.9-1.8c0.2-0.1,0.3-0.2,0.3-0.2
							s2.6,1.1,5.6,1.1c0.3,0,0.6,0,0.9,0h0.1c2.8-0.1,5.7-1.1,5.7-1.1s0.2,0.1,0.5,0.3c0.7,0.4,1.9,1.1,2.8,2
							c0.1,0.1,0.2,0.2,0.3,0.3c1.3,1.3,2.5,4.5,2.2,9.7l0,0l0,0c-0.1,2.8-0.6,4.9-1,6.2l0,0c-0.1,0.2-0.1,0.4-0.2,0.6
							c-0.1,0.3-0.2,0.5-0.3,0.7c-0.1,0.2-0.2,0.4-0.2,0.4s3.8,4.8,4.7,6.3C296.1,138.9,296.7,141.4,295.9,142.4z"/>
						<path class="st86" d="M292.3,123.2L292.3,123.2L292.3,123.2c-0.1,2.8-0.6,4.9-1,6.2l0,0c-0.6,1-1.2,1.7-1.2,1.7
							s-2.3,3.1-4.7,1.8c-2.3-1.4-2.1-4.7-2.3-9.1c-0.1-4.4,1.1-8.3,1.1-8.5s-0.6,0.6-1.1,0.5s-2.3-2.4-2.3-2.4
							c-0.2,1.3-2.3,2.7-2.3,2.7c1.9,6.9,2.1,13.2,1.5,15.1c-0.6,1.9-5.9,0.7-6.5-0.6s-1.7-3.8-1.7-3.8s-0.6-1.2-1.2-3
							c1.1,1.7,2.5,3.1,2.5,3.1s-0.4-2.2-0.5-4.8c-0.1-2.6,1.3-7.5,1.3-7.5c-0.4,0.1-1.9-0.1-2.7-0.3c0.3-0.6,0.5-1,0.7-1.2
							c0.6-0.9,1.5-1.5,1.9-1.8c0.2-0.1,0.3-0.2,0.3-0.2s2.6,1.1,5.6,1.1c0.3,0,0.6,0,0.9,0h0.1c2.8-0.1,5.7-1.1,5.7-1.1
							s0.2,0.1,0.5,0.3c0.7,0.4,1.9,1.1,2.8,2c-0.7,0.4-1.7,0.6-1.7,0.6s0.6,0.7,1.7,2.7C290.4,117.7,291.6,120.7,292.3,123.2z"/>
						<path class="st86" d="M293.6,143.5c-0.5,0.1-0.9,0.2-1.2,0.2c-0.5-1.4-1.2-2.4-2.7-3.7c-2.6-2.2-4.7-2.1-5.4-1.7
							c-0.5,0.3-1.1,0.7-1.5,1.4c-0.4,0.4-0.6,0.8-0.8,1.2c-0.5,1.2-0.9,0.8-1.3,0.6l0,0c-0.4-0.1-0.7-0.8-1.4-2.2
							c-0.7-1.4-2.3-1.4-4.1,0.1c-1.5,1.3-2.9,6.6-3.2,7.7c0,0.1,0,0.2,0,0.2c-0.7-0.4-1.3-0.7-1.8-1.1c0.5-1.6,2.5-6.9,4.4-7.8
							c2.1-1,3.9-0.7,3.9-0.7s1.3,1.5,1.8,2.2c0.5,0.8,2.3-1.2,2.3-1.2s0.9-2.1,3.1-1.9c2.2,0.3,3.8,1.6,5,3.1
							C291.6,141,292.8,142.6,293.6,143.5z"/>
						
							<linearGradient id="SVGID_34_" gradientUnits="userSpaceOnUse" x1="528.4152" y1="153.4144" x2="533.3289" y2="176.9483" gradientTransform="matrix(0.9846 -0.1748 -0.1748 -0.9846 -213.7321 355.6737)">
							<stop  offset="0" style="stop-color:#ECBC91"/>
							<stop  offset="1" style="stop-color:#EC9974"/>
						</linearGradient>
						<path class="st87" d="M297.3,100.5c-0.6,3.9-3.6,2.2-3.6,2.2s-0.8,8-12,9.3s-15.3-7-15.3-7c-3.6,1.2-4.2-4.2-3.3-6.2
							c0.1-0.2,0.2-0.4,0.3-0.5c1.8-1.7,3.1-0.2,3.1-0.2c7-0.8,13.5-8.3,14.2-9.5c0,0,2.2,3.4,5.2,5.5s7.5,4,7.5,4
							c0.6-0.9,2.3-1.2,3.2-0.3C297.2,98.3,297.5,99.2,297.3,100.5z"/>
						<path class="st88" d="M296.7,164.7c0,0.6-0.2,1.1-0.4,1.4c-0.3,0.4-0.7,0.6-0.7,0.6s-9.2-12.4-11.8-19.3
							c-1.6-4.3-1.5-6.4-0.9-7.6c0.4-0.8,1-1.1,1.5-1.4c0.3-0.2,0.9-0.3,1.6-0.2c1,0.1,2.3,0.6,3.7,1.9c1.5,1.3,2.2,2.3,2.7,3.7
							c0.4,1,0.6,2.3,1.1,4C294.4,151.5,296.7,163.2,296.7,164.7z"/>
						<path class="st89" d="M280.7,112.1c-0.2,0.3-0.7,0.8-1.2,1.3c-0.7,0.8-1.5,1.5-1.8,1.6c-0.5,0.1-3-1.6-3.8-3.8
							c0.2-0.1,0.3-0.2,0.3-0.2s0.1,0,0.2,0.1c0.7,0.3,2.9,1,5.3,1C280.1,112.1,280.4,112.1,280.7,112.1z"/>
						<path class="st89" d="M286.9,111.3L286.9,111.3c-0.8,1.5-2.7,3.4-3.2,3.5s-1.3-0.7-2-1.5c-0.4-0.5-0.8-0.9-0.9-1.1
							c2.8-0.1,5.6-1.2,5.6-1.2S286.6,111.1,286.9,111.3z"/>
						<path class="st90" d="M296.7,97.7c-1.5,0-3.2,1-3.2,1s-2.5-0.5-6.3-2.5c-3.9-2-6.4-6.8-6.4-6.8s-3.9,5.2-7.7,7.5
							c-3.8,2.2-6.8,1.9-6.8,1.9c-0.5-0.8-2.3-0.4-3.1-0.1c0.1-0.2,0.2-0.4,0.3-0.5c1.8-1.7,3.1-0.2,3.1-0.2
							c7-0.8,13.5-8.3,14.2-9.5c0,0,2.2,3.4,5.2,5.5s7.5,4,7.5,4C294.1,97.1,295.8,96.8,296.7,97.7z"/>
						<g>
							<path class="st88" d="M279.9,153.3c-0.8,4.6-2.9,14.5-2.9,14.5l-1.1-0.5l-0.5-0.3c-0.8-1.4-2.1-5-2.7-9.2
								c-0.4-3-0.9-7.2-0.7-10.6c0.3-1.1,1.6-6.4,3.2-7.7c1.7-1.4,3.3-1.5,4.1-0.1c0.7,1.4,1,2.1,1.4,2.2l0,0c0,0.1,0.1,0.3,0.1,0.5
								C281.5,144.7,280.7,148.9,279.9,153.3z"/>
							<path class="st91" d="M280.8,142c-0.4-0.3-1.1-0.8-1.3-1.1c-0.3-0.5-1.1-1.6-1.1-1.6l-2,0.5c0,0-2.3,4.4-2.3,8.4
								c0,3.9,0.8,10.5,0.8,10.7c0,0.1,0.7,5.7,1,8.4l-0.5-0.3c-0.8-1.4-2.1-5-2.7-9.2c-0.4-3-0.9-7.2-0.7-10.6
								c0.3-1.1,1.6-6.4,3.2-7.7c1.7-1.4,3.3-1.5,4.1-0.1c0.7,1.4,1,2.1,1.4,2.2l0,0C280.7,141.7,280.8,141.9,280.8,142z"/>
						</g>
						<path class="st91" d="M296.7,164.7c0,0.6-0.2,1.1-0.4,1.4c-0.2-0.8-0.4-1.8-0.5-1.9c-0.1-0.1-2.9-13.9-2.9-14.1
							c0-0.2-2.6-6.8-3.7-8.4c-0.8-1.1-2.1-2.6-3.2-3.6c1,0.1,2.3,0.6,3.7,1.9c1.5,1.3,2.2,2.3,2.7,3.7c0.4,1,0.6,2.3,1.1,4
							C294.4,151.5,296.7,163.2,296.7,164.7z"/>
						<g>
							<path class="st92" d="M279,174.1c0,0,0,0.1,0,0.2l0,0c-0.2,0.4-0.8,1.1-1.6,1.1c-1,0-2.3-0.6-2.8-2.2c-0.3-1.3,0-3.7,0.4-5.2
								c0.1-0.4,0.2-0.7,0.3-0.9l1.5,0.5C276.9,167.5,279,173.9,279,174.1z"/>
							<path class="st93" d="M279,174.3c-0.2,0.4-0.8,1.1-1.6,1.1c-1,0-2.3-0.6-2.8-2.2c-0.3-1.3,0-3.7,0.4-5.2
								c-0.1,1.4-0.2,3.7,0,4.4s0.8,1.6,0.9,1.8s1.1,0.8,1.8,0.7C278.1,174.7,278.7,174.5,279,174.3z"/>
						</g>
						<g>
							<path class="st92" d="M299.4,171.7c-0.8,0.6-1.7,0.3-2.3-0.2l0,0c-0.3-0.2-0.5-0.5-0.7-0.8c-0.6-0.9-0.8-4.1-0.8-4.1
								s0.3-0.3,0.7-0.7c0.3-0.5,0.4-0.9,0.4-0.9s2.5,2.2,3.2,3.1l0,0C300.6,169.1,300.6,170.9,299.4,171.7z"/>
							<path class="st93" d="M299.4,171.7c-0.8,0.6-1.7,0.3-2.3-0.2c0.6,0.2,1.3,0.2,1.9-0.1c0.7-0.4,0.8-2.4,0.9-3.3l0,0
								C300.6,169.1,300.6,170.9,299.4,171.7z"/>
						</g>
						<path class="st90" d="M264.3,99.2c0,0,1.1,1.2,1.4,2.6c0.2,1.3-0.3,1.7-0.3,1.7s-0.9,0.2-1.2-0.2c-0.3-0.4,0.4-1.3,0.8-1.3
							C265,101.9,264.5,99.4,264.3,99.2z"/>
						<path class="st90" d="M295.5,98.4c-0.1,0.2-1.7,1.8-1.6,3.3c0,0,0.5,0.6,1.1,0.2c0.6-0.5-0.4-1-0.4-1L295.5,98.4z"/>
						<path class="st80" d="M271.6,94.7c0.2-0.4,1.5-2.1,3.4-1.8c1.8,0.3,2.7,2.4,2.3,2.6c-0.3,0.2-1.4-1.4-3-1.3
							C272.6,94.2,271.6,94.7,271.6,94.7z"/>
						<path class="st80" d="M283.9,94.8c-0.2-0.9,0.9-2.5,2.9-2.5c1.9,0,2.4,1.5,2.4,1.5s-0.7-0.4-2.4-0.1
							C285.1,94,283.9,94.8,283.9,94.8z"/>
						
							<linearGradient id="SVGID_35_" gradientUnits="userSpaceOnUse" x1="525.6165" y1="134.7926" x2="528.7545" y2="139.8568" gradientTransform="matrix(0.9846 -0.1748 -0.1748 -0.9846 -213.7321 355.6737)">
							<stop  offset="3.906000e-05" style="stop-color:#001E30"/>
							<stop  offset="1" style="stop-color:#00293B"/>
						</linearGradient>
						<path class="st94" d="M291,130c-0.1,0.3-0.2,0.5-0.3,0.7c-1.6-0.7-5.1-2.1-5.5-2c-0.6,0.1-1.3,1.7-2,2.2s-6.2,0.4-8.4-0.4
							c-1.4-0.5-3-1.4-4-1.9c0.4-0.7,0.7-1.3,0.8-1.5c0.2,0.1,0.4,0.1,0.4,0.1s4.8,2,9.8,0.6c5.1-1.4,6.9-2,7.1-1.8
							C289.1,126.1,290.3,128.6,291,130z"/>
						<path class="st95" d="M279.8,112.1c0.3,0,0.6,0,0.9,0c-0.2,0.3-0.7,0.8-1.2,1.3c-1.7-0.1-3.3-0.8-4.2-1.3c0,0-0.5-0.5-0.9-1
							C275.1,111.4,277.3,112.1,279.8,112.1z"/>
						<path class="st95" d="M286.9,111.3L286.9,111.3c-1.4,0.6-3.6,1.6-5.2,2c-0.4-0.5-0.8-0.9-0.9-1.1c2.8-0.1,5.6-1.2,5.6-1.2
							S286.6,111.1,286.9,111.3z"/>
						<g>
							
								<linearGradient id="SVGID_36_" gradientUnits="userSpaceOnUse" x1="521.7482" y1="131.946" x2="522.9765" y2="153.5379" gradientTransform="matrix(0.9846 -0.1748 -0.1748 -0.9846 -213.7321 355.6737)">
								<stop  offset="0" style="stop-color:#EBB586"/>
								<stop  offset="1" style="stop-color:#EB8D6E"/>
							</linearGradient>
							<path class="st96" d="M280.3,127.1c0.5,3.3,0.3,7-1.3,7.5c-0.1,0-0.1,0-0.2,0c-1.7,0.2-4.3-2.1-5.3-4.1
								c-0.9-2-0.6-7.3-0.3-10.3c0.4-3,1.4-6.6,1.4-6.6s-3.4-0.6-4.3-2.4c-0.8-1.6-1.2-3.6-0.7-4.1c0.1-0.1,0.1-0.1,0.2-0.1
								c0.3-0.1,0.8,1.7,1.3,2.6c0.6,0.9,1.3,0.8,1.3,0.8v-0.1l0,0l-0.3-0.8c-0.6-1.7-0.3-2.7,0-2.8c0.1,0,0.2,0,0.3,0.1
								c0.2,0.3,0.8,1.6,1.3,2.7l0,0c0.1,0.3,0.2,0.5,0.3,0.8l0,0v0.1l0,0l0,0c-0.4-1.2-0.7-2.7-0.4-3c0-0.1,0.1-0.1,0.2,0
								c0.5,0.2,1.4,1.8,1.8,2.9c0.6,1.3,1.2,2.8,1.2,2.8l0.5,1.5C277.5,114.7,279.8,123.8,280.3,127.1z"/>
							<g>
								<path class="st90" d="M279,134.6c-0.1,0-0.1,0-0.2,0c-1.7,0.2-4.3-2.1-5.3-4.1c-0.9-2-0.6-7.3-0.3-10.3
									c0.4-3,1.4-6.6,1.4-6.6s-3.4-0.6-4.3-2.4c-0.8-1.6-1.2-3.6-0.7-4.1c0.1,0.8,0.3,2.4,1,3.5c0.7,1.2,4.2,2.8,4.2,2.8
									s-0.7,5.7-0.6,7.8c0,2.1,0.9,8.4,1.5,9.7C276.2,132,277.8,133.8,279,134.6z"/>
								<path class="st90" d="M272.5,110.4L272.5,110.4l-0.3-0.8c-0.6-1.7-0.3-2.7,0-2.8c-0.1,0.6,0.2,2.1,0.5,2.8
									c0.3,0.9,0.6,1.7,0.6,1.7S272.9,110.9,272.5,110.4z"/>
								<path class="st90" d="M273.8,109.7c0.1,0.3,0.2,0.5,0.3,0.8C274,110.2,273.9,110,273.8,109.7z"/>
								<path class="st90" d="M274.8,111.3c0,0-0.3-0.1-0.6-0.8l0,0c-0.4-1.2-0.7-2.7-0.4-3c0-0.1,0.1-0.1,0.2,0
									c0.1,0.9,0.5,2.7,0.5,3C274.6,110.7,274.8,111.3,274.8,111.3z"/>
							</g>
						</g>
						<g>
							
								<linearGradient id="SVGID_37_" gradientUnits="userSpaceOnUse" x1="530.2316" y1="132.5193" x2="539.7996" y2="153.3361" gradientTransform="matrix(0.9846 -0.1748 -0.1748 -0.9846 -213.7321 355.6737)">
								<stop  offset="0" style="stop-color:#EBB586"/>
								<stop  offset="1" style="stop-color:#EB8D6E"/>
							</linearGradient>
							<path class="st97" d="M293.4,106.4c-0.3,1.2-1.8,3.9-2.8,4.8c-1,1-3.2,1.1-3.2,1.1s2.8,10.7,3.3,13.9
								c0.4,3.2-0.5,5.8-2.5,6.8c-0.1,0-0.1,0.1-0.2,0.1c-1.8,0.8-3.2-0.5-3.8-1.4c-0.6-1-0.5-4.8-0.3-8.8s1.2-9.7,2.3-11.2
								c1.1-1.6,2.7-2.6,2.7-2.6s-0.3-1.6-0.3-2.8c0-0.4,0.1-0.6,0.2-0.7c0.2-0.2,0.6,0.1,0.7,0.6c0.2,0.8,0.4,1.9,0.4,1.9
								s0,0,0-0.1l0,0c0.2-1,0.3-3.6,0.8-3.6c0.4,0,0.5,1.8,0.5,2.6c0,0.2,0,0.4,0,0.4c0-0.2,0.5-2.5,0.8-3l0,0
								c0.1-0.1,0.1-0.1,0.2-0.1c0.3,0.3,0.1,1.7,0,2.4l0,0c0,0.2,0,0.3,0,0.3c0.1-0.3,0.7-2.4,1-2.5c0.1,0,0.1,0,0.2,0
								C293.4,104.8,293.6,105.4,293.4,106.4z"/>
							<g>
								<path class="st90" d="M293.4,106.4c-0.3,1.2-1.8,3.9-2.8,4.8c-1,1-3.2,1.1-3.2,1.1s2.8,10.7,3.3,13.9
									c0.4,3.2-0.5,5.8-2.5,6.8c-0.1,0-0.1,0.1-0.2,0.1c0.4-1.8,1.1-4.9,1.1-5.4c0-0.8-0.5-7.9-0.9-9.5s-1.2-6.1-1.2-6.1
									s2-1,2.6-1.2c0.6-0.3,2.3-2.2,2.6-3c0.3-0.7,1-2.4,1.1-3.3C293.4,104.8,293.6,105.4,293.4,106.4z"/>
								<path class="st90" d="M292.1,106.7L292.1,106.7c-0.2,0.5-0.7,1.6-0.7,1.6s0.3-0.8,0.3-1.4c0-0.5,0.2-1.9,0.2-2.6l0,0
									c0.1-0.1,0.1-0.1,0.2-0.1C292.4,104.5,292.2,106,292.1,106.7z"/>
								<path class="st90" d="M291.1,106.9C291.1,107,291.1,107,291.1,106.9c-0.1,0.9-0.4,1.8-0.4,1.8l-0.1-2.6c0,0-0.1-1.7,0-1.8
									C290.9,104.4,291,106.1,291.1,106.9z"/>
								<path class="st90" d="M289.8,107.9c0,0.4,0,0.6,0,0.7s-0.2-0.7-0.4-1.1c-0.2-0.4-0.4-1.7-0.8-2.1c0.2-0.2,0.6,0.1,0.7,0.6
									C289.6,106.8,289.8,108,289.8,107.9C289.8,108,289.8,108,289.8,107.9z"/>
							</g>
						</g>
						<path class="st63" d="M290.4,98.5c0,0,0,0.6-2.2,1.5c-2.1,0.9-3.9,0.2-3.9,0.2s0-2,1.5-2.9c0.4-0.3,0.9-0.4,1.6-0.5
							c1.8-0.1,2.7,1.1,2.9,1.6C290.4,98.4,290.4,98.5,290.4,98.5z"/>
						<path class="st63" d="M275.3,104.2c0,0,1.4,0.5,4.9,0.5s5.5-0.4,5.5-0.4s-1.2,4.3-6.3,4.1
							C276.3,108.3,275.3,104.2,275.3,104.2z"/>
						<path class="st98" d="M282.2,99.7c0.2,0.5,1.5,2.5,1.5,2.5s-0.3,0.4-0.9,0.6c-0.8,0.3-1.5,0.2-1.4,0.5c0,0.3,1,0.2,1.8-0.2
							c0.8-0.4,1.3-1,1.3-1s-1-1.7-1.5-2.4c-0.4-0.7-0.3-2.8-0.7-2.9C282,96.7,282,99,282.2,99.7z"/>
						<path class="st99" d="M290.5,98.4c-0.3,0.7-1,1.2-1.8,1.3c-1.3,0.2-2.6-0.7-2.9-2c0-0.1,0-0.3,0-0.4c0.4-0.3,1-0.5,1.6-0.5
							C289.3,96.6,290.2,97.9,290.5,98.4z"/>
						<path class="st100" d="M284.3,100.2c0,0-0.3-2.6,1.6-3.8c1.8-1.2,4.4-0.2,4.6,1.9c0,0-1.1-2-3.7-1.3
							C284.2,97.7,284.3,100.2,284.3,100.2z"/>
						<g>
							<path class="st63" d="M277.3,99.4c0,0-0.3,0.4-2.1,0.5c-0.2,0-0.5,0-0.7,0c-2.4,0-3.3-0.8-3.3-0.8c0-1.2,1.5-3,3.2-3
								c0.2,0,0.5,0,0.7,0.1C277,96.7,277.3,99.4,277.3,99.4z"/>
							<path class="st99" d="M277.3,99.4c0,0-0.3,0.4-2.1,0.5c-0.5-0.2-1-0.7-1.2-1.2c-0.4-0.9-0.2-1.9,0.4-2.5c0.2,0,0.5,0,0.7,0.1
								C277,96.7,277.3,99.4,277.3,99.4z"/>
							<path class="st100" d="M277.3,99.4c0,0-0.3-2.2-2.5-2.7c-2.3-0.5-3.7,2.5-3.7,2.5s0.5-3.2,3-3.4
								C276.9,95.5,277.7,98.7,277.3,99.4z"/>
							<path class="st101" d="M271.1,99.2c0,0,1.4-2.3,3.1-2.1c1.7,0.2,3,2.3,3,2.3s-0.3-3.1-2.9-3.3
								C271.8,96,271.1,99.2,271.1,99.2z"/>
						</g>
						<path class="st101" d="M284.3,100.2c0,0,0.3-2,2.8-2.7c2.5-0.6,3.3,1,3.3,1s-0.7-2.7-3.7-1.9
							C283.9,97.3,284.3,100.2,284.3,100.2z"/>
					</g>
				</g>
				<g>
					<path class="st102" d="M294.9,245.8c0,0,4.5-3.9,8.8-8.2c0.3-0.3,0.6-0.7,1-1c3.1-3.3,3.9-4.7,3.9-4.7s-4.9-6-6.3-6.7l-1.5,1.9
						l-0.5,0.7C298.9,233.5,294.9,245.8,294.9,245.8z"/>
					<path class="st103" d="M300.9,227.1c1.9,3.3,3.1,6.9,3.8,9.4c3.1-3.3,3.9-4.7,3.9-4.7s-4.9-6-6.3-6.7L300.9,227.1z"/>
				</g>
				<g>
					
						<linearGradient id="SVGID_38_" gradientUnits="userSpaceOnUse" x1="131.2674" y1="57.2629" x2="133.9768" y2="70.2384" gradientTransform="matrix(-1 0 0 -1 432.9948 286)">
						<stop  offset="0" style="stop-color:#DFAD83"/>
						<stop  offset="1" style="stop-color:#DE8B6F"/>
					</linearGradient>
					<path class="st104" d="M295.7,217c0,0,0.2,0.4,0.7,1.4c0.4,0.8,0.8,1.8,1.4,3.3c1.4,3.5,2.4,6.3,2.4,6.3l0.8-1.1l1.2-1.7
						c0,0-0.5-14.7-1.4-17.4c0,0-0.4,1-2.4,4.2C296.6,215.2,295.7,217,295.7,217z"/>
					<path class="st105" d="M295.7,217c0,0,0.2,0.4,0.7,1.4c1.2-1.7,3.2-4.1,3.2-4.1s1.2,8.8,1.5,12.7l1.2-1.7
						c0,0-0.5-14.7-1.4-17.4c0,0-0.3,1.1-2.4,4.2C296.5,215.2,295.7,217,295.7,217z"/>
				</g>
				
					<linearGradient id="SVGID_39_" gradientUnits="userSpaceOnUse" x1="156.9879" y1="168.5885" x2="144.4611" y2="152.8219" gradientTransform="matrix(-1 0 0 -1 432.9948 286)">
					<stop  offset="0" style="stop-color:#DFAD83"/>
					<stop  offset="1" style="stop-color:#DE8B6F"/>
				</linearGradient>
				<path class="st106" d="M266.3,131c0.2,1.4,1,2.7,2,3.1c1.9,0.9,11.2,1.2,17.4-1.3c6.2-2.4,12.2-7.4,13.3-8.4
					c0,0-0.8-1.5-1.6-3.4c-0.3-0.7-0.7-1.5-1-2.3c-1-2.7-1.8-4.6-1.8-4.6s-11,7.8-14.9,10.3c-3.9,2.4-9.1,4.3-9.1,4.3
					c0-0.1,0.1-0.1,0.1-0.2l0,0c0.4-0.7,0.9-1.8,0.9-1.8c-0.2-0.3-0.9-2.5-0.9-2.5s-0.2,0.2-0.6,0.5c-0.7,0.6-1.8,1.6-3,2.8
					C266.3,128.5,266.1,129.8,266.3,131z"/>
				
					<linearGradient id="SVGID_40_" gradientUnits="userSpaceOnUse" x1="1251.3085" y1="232.8008" x2="1263.6403" y2="232.8008" gradientTransform="matrix(-1 0 0 -1 1566.8582 286)">
					<stop  offset="4.941410e-03" style="stop-color:#4C2200"/>
					<stop  offset="0.995" style="stop-color:#452811"/>
				</linearGradient>
				<path class="st107" d="M315.5,52.1c0.1-0.1-1.3-1.5-3.7-1.2c-2.5,0.3-7.1,2.6-8.5,3.9c-0.4,0.4,0,0.6,0.1,0.8c0,0,0.2,0,0.5-0.2
					c1.5-0.6,5.8-2.4,7.6-3C313.7,51.8,315.5,52.1,315.5,52.1z"/>
				
					<linearGradient id="SVGID_41_" gradientUnits="userSpaceOnUse" x1="1262.7944" y1="231.1298" x2="1274.0311" y2="231.1298" gradientTransform="matrix(-1 0 0 -1 1566.8582 286)">
					<stop  offset="4.941410e-03" style="stop-color:#4C2200"/>
					<stop  offset="0.995" style="stop-color:#452811"/>
				</linearGradient>
				<path class="st108" d="M304,55.2c0.4-0.8-5.6-1.5-8.1-1.5s-3.4,2.1-3,2.4c0,0,0.6-1.1,2.2-1.1C296.6,55,303.6,56.2,304,55.2z"/>
			</g>
			<g>
				<path class="st109" d="M231.5,38.9c-0.1-0.6,6.6,2.4,6.6,5.8C238.1,44.7,233,45.2,231.5,38.9z"/>
				<path class="st109" d="M230.7,36.7c0,0,3.8-3.2,6.8-1.2c0,0-1.5,2.7-5.9,3.3L230.7,36.7z"/>
				<g>
					
						<linearGradient id="SVGID_42_" gradientUnits="userSpaceOnUse" x1="225.4397" y1="135.7498" x2="171.6723" y2="29.5103" gradientTransform="matrix(1 0 0 -1 0 286)">
						<stop  offset="4.941410e-03" style="stop-color:#28262C"/>
						<stop  offset="0.9901" style="stop-color:#1B1D35"/>
					</linearGradient>
					<path class="st110" d="M236.2,171.5c-12.3,7.8-41.9,23.5-41.9,23.5c18.1,24.2-10.6,58.5-14.2,62.6c-1.4,1.6-2.6,2.3-3.4,2.5
						l0,0c-1.3,0.4-2-0.4-2-0.4c2.2-9.3,4.3-81,4.3-81c4.9-6.7,23.2-22.8,32.6-29.1c0.5,1,0.8,1.4,0.8,1.4s0.1-0.1,0.3-0.2l0,0
						c1.9-1,12.2-6.1,21.9-7c4.1-0.4,8.5-0.2,12.3,0.1c5.4,0.5,9.7,1.3,10.6,1.5c0.1,0,0.1,0,0.1,0
						C258.4,154.8,248.5,163.8,236.2,171.5z"/>
					
						<linearGradient id="SVGID_43_" gradientUnits="userSpaceOnUse" x1="232.5665" y1="132.2386" x2="179.0443" y2="26.4836" gradientTransform="matrix(1 0 0 -1 0 286)">
						<stop  offset="4.941410e-03" style="stop-color:#28262C"/>
						<stop  offset="0.9901" style="stop-color:#1B1D35"/>
					</linearGradient>
					<path class="st111" d="M236.2,171.5c-12.3,7.8-41.9,23.5-41.9,23.5c18.1,24.2-10.6,58.5-14.2,62.6c-1.4,1.6-2.6,2.3-3.4,2.5
						c2.4-5,13.2-28.4,15.1-40.7c2.2-13.8-2.4-26.1-2.4-26.1s15.5-9.7,32.6-23.1c16.3-12.8,22.2-18.5,24.9-26.2
						c5.4,0.5,9.7,1.3,10.6,1.5c0.1,0,0.1,0,0.1,0C258.4,154.8,248.5,163.8,236.2,171.5z"/>
				</g>
				<g>
					<g>
						<path class="st112" d="M253.4,70.1v0.2c0,2.2-0.9,4.2-3.4,4.9c0,0-0.1-0.1-0.2-0.4c-0.1-0.1-0.2-0.3-0.3-0.5
							c-1.6-2.9-7-12.1-11-15.5c-2.4-2-6.6-4.3-7.7-5.8c-1.6-2.3-1.5-8.2-1.6-10.5c-0.2-4.5,0.3-7.3,0.3-7.3l0.4,0.5l0.4,0.5
							l0.4,0.5c0.5,1,0.9,1.8,1.3,2.5c0.1,0.3,0.2,0.5,0.4,0.7c0.4,0.9,0.8,1.6,1,2.3c0.3,0.7,0.5,1.3,0.5,1.9
							c0.2,1.5,3.8,2.5,7.8,3c2,0.3,3.6,1.3,4.8,2.6c0.1,0.1,0.3,0.3,0.4,0.5c0.9,1.3,1.4,2.8,1.1,4c-0.5,2.2-1.1,4.4-0.1,5.6
							c0.1,0.1,0.2,0.2,0.4,0.4s0.4,0.3,0.7,0.4c1.5,0.5,4.2,5.1,4.5,9C253.4,69.8,253.4,70,253.4,70.1z"/>
						<g class="st75">
							<path class="st112" d="M249.8,74.8c-0.1-0.1-0.2-0.3-0.3-0.5c1.6-4.2-3.1-11.7-5.7-14.4c-1.2-1.3-3.1-2.4-5.1-3.5
								c-2.8-1.6-5.6-3.2-7.3-5.7c-2.6-3.8-2.1-8.9-1.6-13.9c0-0.4,0.1-0.8,0.1-1.2l0.4,0.5c0,0.2,0,0.5-0.1,0.7
								c-0.5,4.9-0.9,9.9,1.6,13.6c1.6,2.4,4.4,4,7.2,5.6c2,1.2,4,2.2,5.2,3.6C246.6,62.2,252,70.3,249.8,74.8z"/>
						</g>
						<g class="st75">
							<path class="st112" d="M246.5,49.7c0.1,0.1,0.3,0.3,0.4,0.5c-2.1-0.2-4.9,0.1-7.3,0.4c-2.8,0.3-5.2,0.6-6.2,0.1
								c-2.4-1.2-2-5.7-1.4-11.5c0.1,0.3,0.2,0.5,0.4,0.7c-0.6,5.2-0.8,9.4,1.2,10.4c0.9,0.4,3.3,0.1,6-0.2
								C241.9,49.9,244.5,49.6,246.5,49.7z"/>
							<path class="st112" d="M253.4,70.1c-0.9-0.6-2-1.3-3.3-2.4c-2.9-2.5-3-5.1-2.4-7.9c0.1,0.1,0.2,0.2,0.4,0.4
								c-0.6,2.6-0.4,5,2.3,7.2c1.1,0.9,2.1,1.7,3,2.2C253.4,69.8,253.4,70,253.4,70.1z"/>
						</g>
					</g>
					<path class="st113" d="M253.4,70.3c0,2.2-0.9,4.2-3.4,4.9c0,0-0.1-0.1-0.2-0.4c-0.1-0.1-0.2-0.3-0.3-0.5
						c-1.6-2.9-7-12.1-11-15.5c-2.4-2-6.6-4.3-7.7-5.8c-1.6-2.3-1.5-8.2-1.6-10.5c-0.2-4.5,0.3-7.3,0.3-7.3l0.4,0.5l0.4,0.5l0.4,0.5
						c0.5,1,0.9,1.8,1.3,2.5c0.1,0.3,0.2,0.5,0.4,0.7c0.4,0.9,0.8,1.6,1,2.3c-0.8,3.9-1.3,9.1,2.1,9.8c3.9,0.8,11.9-0.8,11.6,3
						c-0.3,3.8-1.6,13.2,3.5,14.3C251.7,69.4,252.7,69.9,253.4,70.3z"/>
				</g>
				
					<linearGradient id="SVGID_44_" gradientUnits="userSpaceOnUse" x1="147.2715" y1="190.1943" x2="196.0772" y2="240.3251" gradientTransform="matrix(1 0 0 -1 0 286)">
					<stop  offset="0" style="stop-color:#DFAD83"/>
					<stop  offset="1" style="stop-color:#DE8B6F"/>
				</linearGradient>
				<path class="st114" d="M213.8,68.9c0,0-4,6.7-6.6,11.9c-0.5,0.9-0.9,2-1.2,3l0,0c-1.5,4.8-1.6,10.3-1.6,10.3
					c-0.4,0.2-0.9,0.5-1.5,0.8c-5,2.2-17.8,5.2-25.7,3.9c-3.2-0.5-6.7-2.6-10-5.3c-0.1-0.1-0.2-0.2-0.3-0.3
					c-0.4-0.3-0.7-0.6-1.1-0.9c-0.3-0.3-0.7-0.6-1-0.9c-0.4-0.4-0.8-0.7-1.2-1.1c-0.2-0.2-0.5-0.5-0.8-0.7
					c-4.2-4.1-7.9-8.5-10.1-10.7c-0.2-0.3-0.5-0.5-0.7-0.8c-0.2-0.2-0.4-0.4-0.6-0.6c-0.2-0.3-0.5-0.5-0.8-0.8c-0.7-0.7-1.3-1.4-2-2
					c-1-1-1.9-2-2.8-2.8c-0.9-0.9-1.7-1.6-2.2-2.2c-0.6-0.6-0.9-0.9-0.9-0.9s-1.5-0.6-2.2-0.3c-0.6,0.3-7,5.3-9.8,5
					c-0.7-0.1-0.8-0.5-0.5-1l0,0c0.8-1.8,4.9-5.1,5.2-5.4l0,0l0,0c-0.2-0.1-2.3-1.5-6.1-1c-4,0.5-7.2,4.2-7.2,4.2s-1.1,0.4-1.6,0.3
					c-0.1,0-0.1,0-0.1,0c-0.3-0.2,1.8-3.8,3.4-6l-2.3,3c0,0,0.8-5,5.8-7.3c5-2.4,11.7-0.5,16.1,0.7c0.7,0.2,1.5,0.5,2.5,0.9
					c0.9,0.4,1.9,0.9,3.1,1.4c5.9,2.8,14.1,7.4,18.4,9.7c1.5,0.8,3.1,1.7,4.6,2.5c0.8,0.5,1.6,0.9,2.4,1.3c4.4,2.5,7.8,4.3,7.8,4.3
					s8.7-2.9,15.9-5.8c1.5-0.6,2.8-1.2,4.1-1.8c4.8-2.2,7.7-3.9,7.7-3.9L213.8,68.9z"/>
				<path class="st105" d="M135.6,66.9c-0.2-0.1-2.3-1.5-6.1-1c-4,0.5-7.2,4.2-7.2,4.2s-1.1,0.4-1.6,0.3c1.6-2.5,4.1-4.7,6.2-5.5
					c2.3-0.9,5.6-0.7,6-0.6C133.4,64.5,135.4,66.7,135.6,66.9z"/>
				<g>
					
						<linearGradient id="SVGID_45_" gradientUnits="userSpaceOnUse" x1="211.0296" y1="216.9128" x2="236.5716" y2="243.1482" gradientTransform="matrix(1 0 0 -1 0 286)">
						<stop  offset="0" style="stop-color:#DFAD83"/>
						<stop  offset="1" style="stop-color:#DE8B6F"/>
					</linearGradient>
					<path class="st115" d="M232.7,54.1c0,0-0.8,3.8-3.7,7.4c-0.7,0.9-1.6,1.8-2.7,2.6c-5.1,3.9-13,7-13.5,6.8s-1.4-0.4,0.7-1.9
						c3.6-0.9,7.8-3.4,10.5-7.6c0.6-0.8,1-1.8,1.5-2.7c2-4.7,3.3-13.8,3.9-19.1l0.1-0.5c-0.2,3.5,0.4,10.7,1,12.6
						C231,53.6,232.7,54.1,232.7,54.1z"/>
					<path class="st116" d="M232.7,54.1c0,0-0.8,3.8-3.7,7.4c-1.2-0.2-2.9-0.3-5-0.1c0.6-0.8,1-1.8,1.5-2.7c2-4.7,3.3-13.8,3.9-19.1
						l0.1-0.5c-0.2,3.5,0.4,10.7,1,12.6C231,53.6,232.7,54.1,232.7,54.1z"/>
				</g>
				
					<linearGradient id="SVGID_46_" gradientUnits="userSpaceOnUse" x1="202.154" y1="204.1298" x2="213.8612" y2="204.1298" gradientTransform="matrix(1 0 0 -1 0 286)">
					<stop  offset="4.941410e-03" style="stop-color:#AC6A00"/>
					<stop  offset="0.9901" style="stop-color:#956000"/>
				</linearGradient>
				<path class="st117" d="M213.8,68.9c0,0-4,6.7-6.6,11.9c-0.5,0.9-0.9,2-1.2,3l0,0c-1.5,4.8-1.6,10.3-1.6,10.3
					c-0.4,0.2-0.9,0.5-1.5,0.8c-0.5-4.7-1.2-15.4-0.6-21.6c4.8-2.2,7.7-3.9,7.7-3.9L213.8,68.9z"/>
				<g>
					
						<linearGradient id="SVGID_47_" gradientUnits="userSpaceOnUse" x1="197.6066" y1="236.6459" x2="221.7079" y2="261.4015" gradientTransform="matrix(1 0 0 -1 0 286)">
						<stop  offset="0" style="stop-color:#DFAD83"/>
						<stop  offset="1" style="stop-color:#DE8B6F"/>
					</linearGradient>
					<path class="st118" d="M228.5,34.2c0,0.1-0.1,0.3-0.1,0.5c-0.6,2.5-3.1,11.4-6.9,13.5c-0.1,0-0.1,0.1-0.2,0.1
						c-4.5,2.3-8.4,1-8.4,1l-3.2-2.6c0,0-2.4,2.3-6.6,2.5c-4.2,0.2-7.1-2.5-7.1-2.5l0,0c-1.4-3.5-2-8.5-2-12.5c0-0.3,0-0.6,0-0.9
						c0.1-2.1,0.3-3.8,0.7-4.7c0.5-0.4,5.3-3.9,17.5-2c4.1,0.7,7.5,1.9,10.1,3.3s4.5,2.8,5.8,4.1C228.3,34.1,228.4,34.2,228.5,34.2z
						"/>
					<path class="st105" d="M228.5,34.2c-0.4,1.5-2.9,11.7-7,14c1.6-5.6,1.8-12.4,1-18.3C225.1,31.4,227.1,33,228.5,34.2z"/>
				</g>
				<path class="st112" d="M229.7,35.6c0,0.3-0.2,1.8-0.4,4c-0.6,4.9-1.7,13.1-3.4,18l0,0c-0.1,0.4-0.3,0.7-0.4,1
					c-0.1,0.2-0.2,0.5-0.3,0.7l0,0c-1,2.1-2.3,3.9-3.8,5.3c-0.2,0.2-0.4,0.4-0.7,0.6c-0.8,0.7-1.6,1.3-2.4,1.8
					c-0.2,0.1-0.3,0.2-0.5,0.3c-1,0.6-2,1-3,1.3c-0.1,0.1-0.3,0.1-0.4,0.1c-0.2,0.1-0.4,0.1-0.6,0.2c-0.6,0.2-1.2,0.3-1.8,0.4
					c-0.4,0.1-0.8,0.1-1.2,0.1c-0.1,0-0.3,0-0.4,0c-0.2,0-0.4,0-0.6,0c-0.9-0.1-1.7-0.2-2.6-0.5c-0.2-0.1-0.3-0.1-0.5-0.2
					c-1-0.4-1.9-1-2.8-1.8c-0.3-0.3-0.6-0.6-0.9-0.9c-1.1-1.3-2.1-2.9-2.9-5c-3-7.9-3.8-10.3-4.1-14.1l0,0c0,0,1.2,1.2,3.2,1.9
					c0.1,0.1,0.3,0.1,0.4,0.1c1,0.3,2.1,0.5,3.4,0.4c0.4,0,0.8-0.1,1.1-0.1c0.1,0,0.3,0,0.4-0.1c1.6-0.3,2.9-0.9,3.7-1.4
					c0.2-0.1,0.3-0.2,0.5-0.3c0.6-0.4,0.9-0.7,0.9-0.7l3.2,2.6c0,0,0,0,0.2,0.1c0.1,0,0.2,0.1,0.4,0.1c0.8,0.2,2.2,0.3,3.9,0.1
					c0.1,0,0.3,0,0.4-0.1c1.1-0.2,2.2-0.5,3.5-1.2c0.5-0.3,1-0.7,1.5-1.2c0.1-0.1,0.3-0.3,0.4-0.5l0,0c0.2-0.2,0.3-0.4,0.5-0.6
					c1.1-1.5,2-3.4,2.7-5.2l0,0c0.1-0.3,0.3-0.7,0.4-1c1-2.6,1.5-5,1.7-5.6C229,34.7,229.4,35.2,229.7,35.6
					C229.7,35.5,229.7,35.5,229.7,35.6z"/>
				<g class="st81">
					<g class="st119">
						<path class="st120" d="M203.9,66.8c-0.3-0.3-0.6-0.6-0.9-0.9c-2.4-5.1-3.3-12.4-3.7-17.3c0.1,0.1,0.3,0.1,0.4,0.1
							c0.4,5,1.4,12.4,3.9,17.4C203.6,66.4,203.7,66.6,203.9,66.8z"/>
					</g>
					<g class="st119">
						<path class="st120" d="M225.9,57.6L225.9,57.6c-0.1,0.4-0.3,0.7-0.4,1.1c-0.1,0.2-0.2,0.5-0.3,0.7c1-5.8,1.4-13.1,1.2-18.4
							l0,0c0.1-0.3,0.3-0.7,0.4-1C227,44.7,226.8,51.7,225.9,57.6z"/>
					</g>
					<g class="st119">
						<path class="st120" d="M221.4,64.6c-0.2,0.2-0.4,0.4-0.7,0.6c1.7-4.7,2.4-10.7,2.1-18c0.1-0.1,0.3-0.3,0.4-0.5
							C223.6,53.9,223,59.9,221.4,64.6z"/>
					</g>
					<g class="st119">
						<path class="st120" d="M218.3,67c-0.2,0.1-0.3,0.2-0.5,0.3c1.2-5.8,0.6-12.4-0.4-17.7c0.1,0,0.3,0,0.4-0.1
							C218.8,54.8,219.4,61.2,218.3,67z"/>
					</g>
					<g class="st119">
						<path class="st120" d="M207.2,68.8c-0.2-0.1-0.3-0.1-0.5-0.2c-2.6-8.6-2.8-14.4-2.5-19.5c0.1,0,0.3,0,0.4-0.1
							C204.3,54.2,204.5,60.1,207.2,68.8z"/>
					</g>
					<g class="st119">
						<path class="st120" d="M214.8,68.6c-0.1,0.1-0.3,0.1-0.4,0.1c0.5-6.1-0.4-13.7-1.4-19.4c0.1,0,0.2,0.1,0.4,0.1
							C214.4,55.1,215.3,62.6,214.8,68.6z"/>
					</g>
					<g class="st119">
						<path class="st120" d="M210.8,69.4c-0.1,0-0.3,0-0.4,0c-2.6-10.1-2.5-16.4-2.1-21.7c0.2-0.1,0.3-0.2,0.5-0.3
							C208.3,52.8,208.1,59.2,210.8,69.4z"/>
					</g>
				</g>
				<path class="st112" d="M195.3,31.5c0.3-1,2-2.8,4.8-3.1c4-0.3,3.7,2.3,3.2,2.8c-0.4,0.5-2.4-0.3-4.7-0.2
					C196.5,31.2,195.3,31.5,195.3,31.5z"/>
				<path class="st112" d="M213,31.2c-1.3-0.5-0.9-3.3,3.2-3.3c2.6-0.1,5.4,2.1,5.4,2.1s-3.5,0.5-5.4,0.8
					C214.3,30.9,213.8,31.5,213,31.2z"/>
				<path class="st121" d="M229.7,35.4c0,0-0.2-0.2-0.6-0.6L229.7,35.4C229.7,35.5,229.7,35.4,229.7,35.4z"/>
				<path class="st121" d="M228.5,34C228.5,34,228.5,34,228.5,34c0.3,0.3,0.5,0.6,0.7,0.7L228.5,34z"/>
				<path class="st121" d="M229.7,35.5L229.7,35.5L229.7,35.5L229.7,35.5L229.7,35.5z"/>
				<path class="st121" d="M229.7,35.5L229.7,35.5l-0.6-0.7c-0.2-0.2-0.4-0.4-0.7-0.6c0,0,0,0,0,0.1C229,34.7,229.4,35.2,229.7,35.5
					z"/>
				<path class="st122" d="M257.5,145.6c0,0-2.4-0.5-5.9-1c-4.6-0.6-11.1-1.2-17.1-0.6c-1,0.1-2.1,0.2-3.1,0.4
					c-4.9,0.9-9.6,2.6-13.2,4.1c-3.5,1.5-5.8,2.7-5.8,2.7s-0.3-0.4-0.8-1.4c-0.8-1.6-2.4-4.9-4.5-10.9c-1.6-4.4-2.6-12.2-3.2-20.1
					c-0.1-0.9-0.1-1.8-0.2-2.7c-0.2-3.4-0.4-6.9-0.4-10c-0.1-2.8-0.1-5.5,0-7.7c0-1.4,0.1-2.6,0.1-3.6c0.6-9.2,5.9-20.3,9.4-25
					c0,0,10.2-3.5,14-6.3c0.1-0.1,0.3-0.2,0.4-0.4c3.5-3,5.2-9.3,5.2-9.3s4.3,0.6,12.1,11.1c1.3,1.8,2.6,3.8,3.7,6
					c0.4,0.8,0.9,1.7,1.3,2.6c1.9,4.1,3.5,8.7,4.9,13.5c0.2,0.8,0.5,1.6,0.7,2.5c0.2,0.7,0.4,1.3,0.5,2c1.1,4.3,2,8.8,2.7,13.1
					c0.2,1.5,0.5,2.9,0.7,4.3C260.8,124.3,257.5,145.6,257.5,145.6z"/>
				<path class="st123" d="M223.3,76.3c1-0.4,6.8-3.3,11.9,0c5.2,3.3,16.8,25.6,3,34.5s-20.2,3.2-22,1.2
					C212.9,108.1,210,81.5,223.3,76.3z"/>
				<g>
					<path class="st124" d="M230.7,36.7c0,0-0.3-0.4-0.9-1.1v-0.1l0,0v-0.1c0,0-0.2-0.2-0.6-0.6l-0.6-0.8v0.1c0,0,0,0,0,0.1
						c-1.8-1.7-4.9-4.1-9.3-5.8c-2-0.8-4.3-1.4-6.9-1.8c-12.2-1.9-17,1.6-17.5,2h-0.1c0-1.4,0.2-2.7,0.5-4c0.4-2.2,1.2-4.2,2.1-6.3
						c2.1-4.6,7.2-9.4,17.1-9.5c1.1,0,2.2,0.1,3.3,0.2c1.4,0.1,2.8,0.5,4,1.1C230.9,14.3,234.6,28.5,230.7,36.7z"/>
					<path class="st125" d="M230.7,36.7c0,0-0.3-0.4-0.9-1.1v-0.1l0,0v-0.1c0,0-0.2-0.2-0.6-0.6l-0.6-0.8v0.1c0,0,0,0,0,0.1
						c-1.8-1.7-4.9-4.1-9.3-5.8c2.6-5.4,3-13.4,2.6-18.2C230.9,14.3,234.6,28.5,230.7,36.7z"/>
				</g>
				<g>
					<path class="st112" d="M221.7,50.8c0,0-0.6,0.1-1.7,0.1c-1.1,0-2.7-0.1-4.7-0.3c-4.1-0.5-5.7-3.8-5.7-3.8s-0.8,1.2-2.2,2.2
						c-0.6,0.5-1.4,0.9-2.3,1.2c-1,0.3-2.2,0.5-3.5,0.2c-0.8-0.2-1.5-0.4-2.1-0.7c-0.3-0.1-0.5-0.2-0.7-0.3
						c-0.7-0.3-1.2-0.7-1.5-0.9c-0.2-0.1-0.3-0.2-0.3-0.3c-0.1-0.1-0.1-0.1-0.1-0.1c1.6-1.3,1.9-1.9,5-3.4c2.1-1,4.9-1.1,6.5-0.5
						c0.4,0.1,0.8,0.3,1,0.5c0,0,0.1,0,0.2-0.1c0.1,0,0.2-0.1,0.3-0.1s0.3-0.1,0.5-0.1c0.4-0.1,0.9-0.2,1.4-0.3s1-0.1,1.5-0.1h0.1
						c2.2,0,4.4,0.5,5.9,2.2c1.2,1.3,2,3.7,2.2,4.5C221.7,50.7,221.7,50.8,221.7,50.8z"/>
					<path class="st126" d="M221.6,50.5c-0.3-0.1-0.7-0.2-1.1-0.3c-0.3-0.7-0.9-1.8-2.1-3.2c-1.2-1.5-2.9-2.6-5-3.1
						c-0.5,0-1,0.1-1.5,0.1c2.7,0.4,4.7,1.5,6.2,3.3c0.9,1.2,1.5,2.1,1.8,2.8c-1-0.3-2.1-0.8-3.2-1.4c-2.6-1.5-4-2.6-5.7-3.9
						c-0.2-0.1-0.4-0.3-0.6-0.4c-0.2,0.1-0.4,0.1-0.5,0.1c0.3,0.2,0.6,0.4,0.8,0.6c1.7,1.3,3.1,2.4,5.7,3.9c1,0.6,2.1,1,3,1.4
						c-1.4-0.3-3.1-0.7-5-1.4c-2.7-1-4.3-2.6-5.1-4l0,0c0,0,0,0,0-0.1l0,0c0.1,0,0.2,0,0.3-0.2v-0.1c-0.1,0-0.2,0.1-0.2,0.1
						c-0.2-0.2-0.6-0.4-1-0.5c0,0.1,0,0.1,0.1,0.2c-4.2-0.5-9.3,2.4-11.5,3.9c0.1,0.1,0.2,0.2,0.3,0.3c2.3-1.5,7.3-4.3,11.4-3.7
						c0,0,0,0.1,0.1,0.1c-2.1,2.3-5.7,3.9-10,4.5c0.2,0.1,0.4,0.2,0.7,0.3c3.3-0.6,7-1.9,9.3-4.2c-0.3,1.4-1.2,3.3-3.7,4.8
						c0.9-0.3,1.6-0.7,2.3-1.2c1.1-1.2,1.6-2.4,1.8-3.4c1,1.4,2.5,2.9,5.1,3.8c2.3,0.8,4.2,1.3,5.7,1.5c1.1,0,1.7-0.1,1.7-0.1
						S221.7,50.7,221.6,50.5z"/>
				</g>
				<path class="st112" d="M229.7,35.6c0,0.3-0.2,1.8-0.4,4c-0.6,4.9-1.7,13.1-3.4,18l0,0c-0.1,0.4-0.3,0.7-0.4,1
					c-0.1,0.2-0.2,0.5-0.3,0.7l0,0c-1,2.1-2.3,3.9-3.8,5.3c-0.2,0.2-0.4,0.4-0.7,0.6c-0.8,0.7-1.6,1.3-2.4,1.8
					c-0.2,0.1-0.3,0.2-0.5,0.3c-1,0.6-2,1-3,1.3c-0.1,0.1-0.3,0.1-0.4,0.1c-0.2,0.1-0.4,0.1-0.6,0.2c-0.6,0.2-1.2,0.3-1.8,0.4
					c-0.4,0.1-0.8,0.1-1.2,0.1c-0.1,0-0.3,0-0.4,0c-0.2,0-0.4,0-0.6,0l0.3-0.1c12.3-4,13.7-15.5,13.6-23.2c1.1-1.5,2-3.4,2.7-5.2
					l0,0c0.1-0.3,0.3-0.7,0.4-1c1-2.6,1.5-5,1.7-5.6C229,34.7,229.4,35.2,229.7,35.6C229.7,35.5,229.7,35.5,229.7,35.6z"/>
				<path class="st127" d="M214.4,9c-6.8,7.1-14.3,12.5-19.2,15.7c0.4-2.2,1.2-4.2,2.1-6.3C199.4,13.8,204.5,9,214.4,9z"/>
				<path class="st128" d="M257.5,145.6c0,0-2.4-0.5-5.9-1c2.1-10.7,2.6-33-0.5-45.4c-3.7-14.5-10.8-25.5-10.8-25.5
					c-6-2.2-9.4-6.4-13.2-10.6c3.5-3,5.2-9.3,5.2-9.3s4.3,0.6,12.1,11.1c2.4,3.2,4.5,7.2,6.2,11.5c1.2,3,2.3,6.1,3.3,9.4
					c2.2,7.5,3.8,15.6,4.9,23C260.8,124.3,257.5,145.6,257.5,145.6z"/>
				<path class="st128" d="M238.1,130.1c-0.6,3-4.5,10.2-6.7,14.3c-4.9,0.9-9.6,2.6-13.2,4.1c2.2-2.2,7.2-7,9.8-10.4
					c12.7-16.8,11.7-29.8,11.7-29.8C240,114.5,239,125.8,238.1,130.1z"/>
				<path class="st129" d="M207.6,107.4c-2,0.3-3.5-0.3-4.4-1.3c0-0.2,0-0.4,0-0.5c0-1.9-0.1-3.8,0-5.5c0-0.6,0-1.1,0-1.7
					c0.8-0.9,1.8-1.5,3.2-1.6C213.1,96.5,215.4,106.4,207.6,107.4z"/>
				<path class="st130" d="M219.1,116.2l-1.4,3.6c0,0-2.3-3.2-6.6-2.9c-4.3,0.3-5.8,3.6-5.8,3.6l-1.5-1.7c-0.1-0.9-0.1-1.8-0.2-2.7
					c1.1-1.4,3.2-3.2,7-3.7C216.8,111.7,219.1,116.2,219.1,116.2z"/>
				<path class="st131" d="M203.7,116.8l1.4,2c0,0,2.6-2.9,5.9-3.2c3.3-0.3,6,2.6,6,2.6l1.1-2.3c0,0-3-3.2-7.2-2.7
					C206.9,113.6,203.7,116.8,203.7,116.8z"/>
				<path class="st132" d="M203.2,105.6c0-1.9-0.1-3.8,0-5.5c2.1-1.5,6.3-2.5,7.5,1.9C211.8,106.7,205.8,106.7,203.2,105.6z"/>
				<g>
					<polygon class="st133" points="210.9,81.9 206.4,85.5 209.3,90.7 213.8,86.5 					"/>
					<polygon class="st134" points="210.6,83.7 207.7,85.5 209.2,88.8 212.2,86 					"/>
				</g>
				<path class="st135" d="M254.8,89.5l-4.4,3l-4.5-9.4c0,0,0.8-7.9,2-12.1c0.4,0.8,0.9,1.7,1.3,2.6c-1.5,3.7-2.1,9.3-2.1,9.3
					l3.7,7.1l3.2-2.9C254.4,87.8,254.6,88.6,254.8,89.5z"/>
				<path class="st136" d="M258,104.5l-4.5-1.7l-2.6-8.6l4.4-2.7C256.4,95.8,257.3,100.2,258,104.5z"/>
				<path class="st137" d="M253.8,85.9l-2.9,1.5l-1.9-4.6l1.5-6.4C251.8,79.4,252.9,82.6,253.8,85.9z"/>
				
					<linearGradient id="SVGID_48_" gradientUnits="userSpaceOnUse" x1="212.6447" y1="138.3092" x2="257.4447" y2="138.3092" gradientTransform="matrix(1 0 0 -1 0 286)">
					<stop  offset="4.941410e-03" style="stop-color:#AC6A00"/>
					<stop  offset="0.9901" style="stop-color:#956000"/>
				</linearGradient>
				<path class="st138" d="M257.4,145.5c-2.4,0-8.6,0-15.8,1.2c-9.2,1.5-29,5-29,5s0-0.2,0-0.7l0,0c1.9-1,12.2-6.1,21.9-7
					C244.5,143,256,145.2,257.4,145.5z"/>
				
					<linearGradient id="SVGID_49_" gradientUnits="userSpaceOnUse" x1="174.8765" y1="126.0184" x2="249.7623" y2="202.9372" gradientTransform="matrix(1 0 0 -1 0 286)">
					<stop  offset="0" style="stop-color:#DFAD83"/>
					<stop  offset="1" style="stop-color:#DE8B6F"/>
				</linearGradient>
				<path class="st139" d="M239.5,115.2c-0.2,1-0.4,2-0.6,3c-0.1,0.4-0.2,0.8-0.3,1.2c0,0.2-0.1,0.4-0.2,0.6
					c-0.1,0.2-0.1,0.5-0.2,0.7c-0.1,0.2-0.1,0.4-0.2,0.6c-0.2,0.8-0.5,1.6-0.8,2.4c-0.2,0.5-0.4,1.1-0.6,1.6
					c-0.1,0.2-0.2,0.5-0.3,0.7c-3.3,8.2-7.7,12.6-13,18.3c-0.2,0.2-0.4,0.4-0.6,0.6c-0.2,0.2-0.4,0.4-0.6,0.6
					c-0.3,0.3-0.6,0.5-0.9,0.8c-0.7,0.6-1.4,1.2-2.2,1.8l-0.1,0.1c-0.1,0.1-0.1,0.1-0.2,0.2c-0.1,0.1-0.2,0.2-0.3,0.3
					c-0.5,0.4-1.1,0.9-1.7,1.3c-0.2,0.2-0.4,0.3-0.7,0.5c-0.2,0.1-0.4,0.3-0.5,0.4c-1.5,1.1-3,2.2-4.5,3.2c-0.7,0.5-1.4,1-2.1,1.4
					c-0.7,0.5-1.4,0.9-2.1,1.4c-1.3,0.9-2.6,1.6-3.7,2.3c-0.8,0.5-1.5,1-2.2,1.3l0,0c-1.3,0.8-2.2,1.3-2.6,1.6
					c-0.1,0.1-0.2,0.1-0.2,0.1s-1.4,4.2-3.9,6.6c-1.4,1.3-3.3,1.7-4.6,1.7c-1.1,0-1.8-0.1-1.8-0.1s-1.6,1.3-2.7,0.6
					c-1.1-0.6-0.4-2.4-0.4-2.4s0,0-0.9-1.1s0-2.6,0-2.6s-1.4-2.7-0.1-4.5c1.3-1.8,7-3.5,8.1-4.8c0.3-0.3,1-1.2,2-2.4
					c0.6-0.8,1.4-1.7,2.1-2.7c1.2-1.5,2.5-3.2,3.9-4.9c0.5-0.6,0.9-1.2,1.4-1.7c0.5-0.7,1-1.3,1.6-1.9c0.6-0.7,1.2-1.4,1.7-2.1
					c0.4-0.4,0.7-0.8,1-1.2c1-1.2,2.2-2.9,3.5-4.7c0.2-0.2,0.4-0.5,0.5-0.7c0.4-0.5,0.8-1.1,1.1-1.6c0.9-1.3,1.8-2.5,2.6-3.7l0,0
					c2.8-4.1,5.2-7.6,5.2-7.6c-0.1-1.6-1.9-16.8-2-25.3c0-1.4,0-2.6,0-3.7c0.1-7.2,4.2-14.1,7.9-15.3c0,0,1.9-0.7,5-0.1
					c1.4,0.3,3.2,0.9,5,2.1c0.6,0.4,1.2,0.8,1.8,1.3c0.2,0.2,0.5,0.4,0.7,0.7c1.8,2,2.9,5.7,3.5,10.1
					C241.6,97.6,240.9,107.5,239.5,115.2z"/>
				<g>
					<path class="st109" d="M178.7,258.8l-0.6,8.9c-3.2,1.4-6.2,2.4-8.9,3c-8.6,2-14.2,0.6-14.2,0.6c4.5-3.7,16-10.8,20.3-12.7
						l1.7,0.1L178.7,258.8z"/>
					<path class="st127" d="M178.7,258.8l-0.6,8.9c-3.2,1.4-6.2,2.4-8.9,3c2.9-3.3,5.7-8,7.8-12L178.7,258.8z"/>
				</g>
				<path class="st140" d="M149.3,63.1c-1.2,2.5-2.5,6.5-3.3,8.8c-0.9-0.9-1.7-1.6-2.2-2.2c0.6-2.2,1.7-5.8,2.4-8
					C147.1,62.1,148.2,62.5,149.3,63.1z"/>
				<path class="st140" d="M166.9,93.2c-0.7-0.6-1.4-1.2-2.1-1.9c0.9-3.4,2-9.8-0.1-13.3c-2.7-4.5-9.9-5.5-14-1.4
					c-0.7-0.7-1.3-1.4-2-2c2.3-2.2,6.8-5.3,12.6-3.5C169.4,73.7,169.7,85.3,166.9,93.2z"/>
				<g>
					<path class="st17" d="M212.6,142.2l-0.1,0.8l0,0l-0.2,1.3l0,0l-1.2,9.5c-0.7,0.5-1.4,1-2.1,1.4c0.2-2.9,0.5-9.4,0.5-11
						l-0.2-0.1l-2-0.7l-4.4-1.6c0.6-0.7,1.2-1.4,1.7-2.1l6.7,2.1l0.8,0.2l0,0L212.6,142.2z"/>
					<path class="st17" d="M238,121.3c-0.2,0.8-0.5,1.6-0.8,2.4c-3.4,0.2-8.6,1.4-13.1,6.3c-5.4,6-3.9,13-2.8,16.2
						c-0.7,0.6-1.4,1.2-2.2,1.8c-1-2.9-3.4-11.5,0.2-18C222.9,123.6,232.4,118.7,238,121.3z"/>
					<path class="st17" d="M218.9,148.3c-0.1,0.1-0.2,0.2-0.3,0.3c-0.5,0.4-1.1,0.9-1.7,1.3c-2-3.9-5.2-11.2-6-18.3
						c0.9-1.3,1.8-2.5,2.6-3.7c-0.2,4.5,0.2,12.3,4.2,18.8l0,0C218.1,147.2,218.5,147.7,218.9,148.3z"/>
					<path class="st17" d="M206.6,150.3l-0.7,2.2c0,0-0.4-0.3-1-1c-1.2-1.2-3.3-3.4-4.8-6c0.5-0.6,0.9-1.2,1.4-1.7
						c1.3,2,3,4.1,4.1,5.4C206.2,149.9,206.6,150.3,206.6,150.3z"/>
					<path class="st17" d="M201.2,160.3c-1.3,0.8-2.2,1.3-2.6,1.6c-1.5-1.6-3.7-4.5-4.5-8.8c0.6-0.8,1.4-1.7,2.1-2.7
						C197.3,153.6,199.4,158,201.2,160.3z"/>
					<path class="st17" d="M209.6,143.5c-0.1,0.2-0.1,0.4-0.2,0.7c-0.7,2.8-1.8,8.6-2.4,12.5c-1.3,0.9-2.6,1.6-3.7,2.3
						c0.2-2.1,0.8-4.8,1.5-7.5c0.2-0.8,0.5-1.6,0.7-2.4c0.7-2.4,1.5-4.5,1.8-5.7c0.2-0.5,0.3-0.9,0.3-0.9L209.6,143.5z"/>
					<path class="st17" d="M239.5,115.2c-0.2,1-0.4,2-0.6,3l-19.3-15.8c1.9-2.9,12.3-19.1,15-24.5c0.6,0.4,1.2,0.8,1.8,1.3
						c0.2,0.2,0.5,0.4,0.7,0.7c-0.9,1.5-2.4,3.9-4.3,7.3c-3.7,6.5-8.5,14-8.5,14s1.4,1.4,5.9,4.9
						C233.1,108.2,237.1,112.5,239.5,115.2z"/>
					<path class="st17" d="M233.6,92.4l-5.6,6.8l6.2,4.3C234.9,99.1,233.6,92.4,233.6,92.4z M232.9,100.6l-2.3-1.9l2.3-3.2
						C232.9,95.6,233.2,99.5,232.9,100.6z"/>
					<polygon class="st17" points="219.8,104.5 222.4,106.7 219.7,107 					"/>
					<polygon class="st17" points="224,107.8 225.9,109.4 223.7,110.4 					"/>
					<polygon class="st17" points="227.6,110.6 230.2,112.3 227.6,113.2 					"/>
					<polygon class="st17" points="231.8,113.9 233.9,115.2 231.6,116.2 					"/>
					<polygon class="st17" points="235.4,116.2 237.2,117.6 234.9,118.4 					"/>
					<polygon class="st17" points="220,99.6 222.1,96.3 219.5,96.8 					"/>
					<polygon class="st17" points="222.8,94.6 224.3,92.4 221.4,92.3 					"/>
					<g>
						<path class="st17" d="M236.7,125.3c-0.1,0.2-0.2,0.5-0.3,0.7c-5.8,0.4-10.1,3.2-12.9,8.3c-1.7,3.1-1.2,7.7-0.7,10.6
							c-0.2,0.2-0.4,0.4-0.6,0.6c-0.6-3-1.1-8.1,0.7-11.5C225.9,128.5,230.5,125.7,236.7,125.3z"/>
					</g>
					<g>
						<path class="st17" d="M216.2,150.3c-0.2,0.1-0.4,0.3-0.5,0.4c-1.3-1.8-2.4-4-3.3-6.3l0,0c-0.3-0.8-0.7-1.7-1-2.5
							c-1.1-3.1-1.8-6-2.2-8c0.2-0.2,0.4-0.5,0.5-0.7c0.4,2.1,1.2,5.5,2.4,9l0,0c0.1,0.3,0.2,0.6,0.4,0.9l0,0
							C213.5,145.6,214.7,148.2,216.2,150.3z"/>
					</g>
					<g>
						<path class="st17" d="M238.6,119.3c0,0.2-0.1,0.4-0.2,0.6c-5.3-0.8-13-0.4-18.8,6.5c-6.2,7.5-2.3,17.9-0.6,21.6
							c-0.1,0.1-0.1,0.1-0.2,0.2c-0.1,0.1-0.2,0.2-0.3,0.3c-0.3-0.5-0.5-1.2-0.8-2l0,0c-1.9-4.8-4.2-13.8,1.4-20.5
							C225.2,118.8,233.1,118.4,238.6,119.3z"/>
					</g>
					<g>
						<path class="st17" d="M202.4,159L202.4,159l-1.5-0.1c-0.1,0-0.2-0.1-0.3-0.2c0,0-2-3.4-3.9-7.5c0-0.1,0-0.2,0-0.3l2.7-3.6
							c0.1-0.1,0.2-0.1,0.3-0.1s0.2,0.1,0.3,0.2c0,0,2,3.2,3.5,4.1c0.1,0.1,0.2,0.2,0.2,0.3l-1,7.1C202.7,158.9,202.6,159,202.4,159
							z M201.2,158.2l1,0.1l0.9-6.5c-1.3-0.8-2.7-2.9-3.3-3.8l-2.3,3.1C199.1,154.6,200.8,157.6,201.2,158.2z"/>
					</g>
					<g>
						<path class="st17" d="M200.7,156.5c-0.1,0-0.2-0.1-0.3-0.2l-2.2-4.9c-0.1-0.1,0-0.3,0.1-0.4l1.3-1.3c0.1-0.1,0.3-0.1,0.5,0
							l2.3,2.3c0.1,0.1,0.1,0.2,0.1,0.3l-1.4,3.9C200.9,156.4,200.8,156.5,200.7,156.5L200.7,156.5z M198.9,151.4l1.8,4l1.1-2.9
							l-1.9-1.9L198.9,151.4z"/>
					</g>
				</g>
				
					<linearGradient id="SVGID_50_" gradientUnits="userSpaceOnUse" x1="216.6908" y1="200.903" x2="240.6347" y2="200.903" gradientTransform="matrix(1 0 0 -1 0 286)">
					<stop  offset="4.941410e-03" style="stop-color:#AC6A00"/>
					<stop  offset="0.9901" style="stop-color:#956000"/>
				</linearGradient>
				<path class="st141" d="M240.6,89.9c-5.5-0.3-16.3,0.8-23.9,4.9c0-1.4,0-2.6,0-3.7c0.1-7.2,4.2-14.1,7.9-15.3
					c0,0,5.2-1.9,11.8,3.2C238.6,80.9,240,84.9,240.6,89.9z"/>
				<path class="st105" d="M238.2,120.7c-3.5,11.9-8.4,16.7-14.8,23.5c-6.4,6.8-25,17.8-25,17.8s-1.4,4.2-3.9,6.6
					c-1.4,1.3-3.3,1.7-4.6,1.7l0,0c4-2.3,6.3-8.3,8.5-9.9c2.2-1.6,24.3-23.2,26.6-27.2s9.2-21.6,9.1-30.8c-0.1-8.2-2-19.2-4.5-26.6
					c1.9,0.4,4.3,1.3,6.8,3.3c2.2,1.8,3.6,5.8,4.2,10.8C241.8,99.6,240.5,112.9,238.2,120.7z"/>
				<path class="st105" d="M206,83.8c-1.5,4.8-1.6,10.3-1.6,10.3c-3.2,2.2-18.2,6.2-27.2,4.6c-9-1.5-20-15.3-24.4-20
					c-4.4-4.6-9.9-10-9.9-10s-1.5-0.6-2.2-0.3c-0.6,0.3-7,5.3-9.8,5c-0.7-0.1-0.8-0.5-0.5-1l0,0c3.3-1.2,8.5-4,9.5-4.8
					c1.2-1,3.6,0.1,3.6,0.1s22.3,19.2,25.9,20.6c3.6,1.4,10.5,4.6,14.5,4.3C187.5,92.3,200.3,87.1,206,83.8z"/>
				<g>
					<path class="st142" d="M211.1,186.7l-15.3,8.9l-2.1-3.6l-3.3-5.7l13.2-9.1c0,0,1.8,3,3.8,5.7
						C208.6,184.6,210,186.2,211.1,186.7z"/>
					<polygon class="st143" points="200.7,179.3 201.8,186.3 207.1,189.3 205.1,190.5 200.6,187.5 199.6,180.3 					"/>
					<path class="st144" d="M211.1,186.7l-15.3,8.9l-2.1-3.6c2.2-1.3,9-5.3,13.6-9.1C208.6,184.6,210,186.2,211.1,186.7z"/>
				</g>
				<path class="st140" d="M174.6,76.5c-2.4,4.8-6.1,13.7-7.4,16.9c-0.1-0.1-0.2-0.2-0.3-0.3c-0.4-0.3-0.7-0.6-1.1-0.9
					c1.8-3.7,4.9-12.4,6.4-17C173.1,75.7,173.9,76.1,174.6,76.5z"/>
				<g>
					<path class="st140" d="M163.6,90.3c-0.2-0.2-0.5-0.5-0.8-0.7c0.7-3.8,1.2-10-2-12.1c-3.1-2.1-6.7-0.7-8.8,0.6
						c-0.2-0.2-0.4-0.4-0.6-0.6c0.4-0.2,0.7-0.4,0.9-0.5c1.9-1,5.7-2.4,9-0.2C165.1,79.3,164.4,86.4,163.6,90.3z"/>
				</g>
				<path class="st63" d="M221.4,36.6c0,0-0.1,0.5-0.8,1c-0.3,0.2-0.7,0.4-1.2,0.6l0,0c-0.4,0.2-0.9,0.3-1.5,0.4
					c-3.4,0.6-5.3-0.7-5.3-0.7c0.5-1.1,0.9-3.6,4.5-4.5c0.1,0,0.1,0,0.2,0C220.6,32.6,221.3,35.9,221.4,36.6
					C221.4,36.5,221.4,36.6,221.4,36.6z"/>
				<path class="st63" d="M204.5,38.3c0,0-0.9,1.4-4.5,1.3c-3.6-0.1-4.5-1.8-4.5-1.8s0.8-3.6,4.3-3.6c0.4,0,0.7,0,1,0.1
					c2.3,0.6,3.4,3,3.7,3.7C204.5,38.2,204.5,38.3,204.5,38.3z"/>
				<path class="st145" d="M206,32c0.6,0.3,1.4,4.2,0.5,6.6c-0.9,2.4-1.4,3.5-1.4,3.5s1.5,1.5,3.3,1.5s2-1,2.4-0.8s-0.4,2.1-2.6,1.8
					c-2.2-0.3-4.2-2.3-4.2-2.3s1.6-3.1,2.1-4.6C206.7,35.5,206,32,206,32z"/>
				<path class="st146" d="M204.4,38.1c-0.5,0.8-1.3,1.3-2.3,1.3c-1.5,0-2.7-1.2-2.7-2.7c0-1,0.5-1.8,1.3-2.3
					C203.1,34.9,204.2,37.4,204.4,38.1z"/>
				<path class="st146" d="M221.3,36.5c-0.2,0.4-0.4,0.8-0.8,1.1c-0.3,0.3-0.8,0.5-1.2,0.6l0,0c-0.2,0-0.4,0.1-0.6,0.1
					c-1.5,0-2.8-1.2-2.8-2.8c0-0.8,0.4-1.6,0.9-2.1c0.1,0,0.1,0,0.2,0C220.6,32.6,221.3,35.9,221.3,36.5z"/>
				
					<linearGradient id="SVGID_51_" gradientUnits="userSpaceOnUse" x1="212.5077" y1="251.0351" x2="221.4627" y2="251.0351" gradientTransform="matrix(1 0 0 -1 0 286)">
					<stop  offset="5.121970e-03" style="stop-color:#9A6738"/>
					<stop  offset="1" style="stop-color:#3D2712"/>
				</linearGradient>
				<path class="st147" d="M212.5,37.9c0,0,1-3.8,4.7-4.5s4.2,3.2,4.2,3.2s0.8-4.3-3.7-4.5C213.1,31.8,212.5,37.9,212.5,37.9z"/>
				
					<linearGradient id="SVGID_52_" gradientUnits="userSpaceOnUse" x1="195.5585" y1="250.2323" x2="204.5702" y2="250.2323" gradientTransform="matrix(1 0 0 -1 0 286)">
					<stop  offset="5.121970e-03" style="stop-color:#9A6738"/>
					<stop  offset="1" style="stop-color:#3D2712"/>
				</linearGradient>
				<path class="st148" d="M204.5,38.6c0,0-1.8-4.3-4.8-4.2c-2.6,0.1-4.1,2.3-4.2,3.4c0,0,0-4.5,4-4.8
					C203.9,32.8,204.5,38.6,204.5,38.6z"/>
				<path class="st149" d="M204.9,36.9h0.2c0,0-0.1,0.2-0.2,0.6l4.7,0.1l-0.4-0.7L204.9,36.9z"/>
				<path class="st149" d="M228.3,34.1c-1.7,0.5-6,2-7.6,2.5c0,0.1,0,0.3,0,0.7c1.4-0.5,5.9-1.9,7.7-2.5c0-0.2,0.1-0.4,0.1-0.5
					C228.4,34.2,228.3,34.1,228.3,34.1z"/>
				<path class="st149" d="M196.1,35.6l-2-2.1l-0.1-0.1c0,0.3,0,0.6,0,0.9l1.4,1.5c0-0.1,0.1-0.2,0.1-0.3L196.1,35.6z"/>
				<path class="st150" d="M204.9,36.9l-8.8-1.3l-0.6-0.1c-0.1,0.1-0.1,0.2-0.1,0.3c-0.9,2.2,0.3,5.2,0.3,5.2s5.5,1.2,6.5,1
					s2.2-3.2,2.7-4.5c0.1-0.4,0.2-0.6,0.2-0.6L204.9,36.9z"/>
				<path class="st150" d="M220.6,36.6C220.6,36.5,220.6,36.5,220.6,36.6l-11.4,0.5l0,0l0.4,0.7l2.4,4.7c3.1,0.6,7.7-0.6,7.7-0.6
					c0.7-0.7,0.8-3.3,0.9-4.5C220.6,36.9,220.6,36.7,220.6,36.6z"/>
			</g>
			<path class="st105" d="M266.3,131c0.2,1.4,1,2.7,2,3.1c1.9,0.9,11.2,1.2,17.4-1.3c6.2-2.4,12.2-7.4,13.3-8.4c0,0-0.8-1.5-1.6-3.4
				c-3.6,3.3-8,6.7-13.6,9.3c-6,2.8-11.8,2.2-14.7,1.6C268,131.8,267,131.4,266.3,131z"/>
			<g>
				<g>
					<path class="st5" d="M149,75.4c-0.6,1.8-1.5,3.3-2.4,3.1c-0.9-0.2-1.6-1.4-1.9-2.9c-0.6-2.5,0-5.8,2.6-6.2
						C149.8,69,149.9,72.7,149,75.4z"/>
					<path class="st7" d="M145.3,75.6c0.1,1.1,0.4,2.1,1.2,2.9l-30.1,2.9l0.4-3.4l0.3-2.4c0.7-1.7,30.2-6.1,30.2-6.1
						S145.1,72.6,145.3,75.6z"/>
				</g>
				
					<linearGradient id="SVGID_53_" gradientUnits="userSpaceOnUse" x1="116.4628" y1="207.6298" x2="149.0219" y2="207.6298" gradientTransform="matrix(1 0 0 -1 0 286)">
					<stop  offset="3.906000e-05" style="stop-color:#445159"/>
					<stop  offset="1" style="stop-color:#252626"/>
				</linearGradient>
				<path class="st151" d="M149,75.4c-0.6,1.8-1.5,3.3-2.4,3.1l-30.1,2.9l0.4-3.4c6.7-0.7,18.5-1.8,27.8-2.3c0.2,0,0.4,0,0.6,0
					C146.6,75.5,147.8,75.5,149,75.4z"/>
			</g>
			<g>
				<polygon class="st11" points="145.9,66.7 136.2,68 136.2,71.4 134.7,71.4 134.3,68.3 126.5,69.4 126.4,68.9 123.6,60 
					144.8,56.4 145.4,56.3 				"/>
				<path class="st152" d="M145.9,66.7l-9.6,1.3v3.4h-1.6l-0.4-3.1l-7.8,1.1l-0.1-0.5c4.7-1.7,13.2-6.2,18.4-12.5l0.6-0.1
					L145.9,66.7z"/>
			</g>
			<path class="st153" d="M34.8,180.1c-1,0.5,5.8-7.2,19.9-10.9s20.7,1.7,20.7,1.7l2,3.7C77.4,174.6,59.6,167.7,34.8,180.1z"/>
			<path class="st153" d="M123.8,142.7c-5.9,4.7-2.9,18.7,13,25.9c15.8,7.2,37.1,8.9,37.1,8.9s-24.2-15.3-31.7-23
				C134.7,146.7,127.8,139.5,123.8,142.7z"/>
			<path class="st14" d="M290.8,43.6c0,0,2.8-6-1.8-9c0,0-1.2,5.7,0,7.5C290.2,43.8,290.8,43.6,290.8,43.6z"/>
			<path class="st14" d="M290.6,44.3c0,0-1.5,4.1-8.5,1.7c0,0,1.8-4.9,6.9-4l1.8,1.5C290.8,43.6,290.8,43.6,290.6,44.3z"/>
			<path class="st14" d="M291.4,42c1-1.2,5.8-4.8,13.4-4s14.3,13.8,14.4,17.1c0,0-2.1-10-7.7-10.6c0,0-1.4-4-8.6-4.1
				s-11.5,3.3-13.2,6.4C289.6,46.9,289.8,43.9,291.4,42z"/>
		</g>
	</g>
</g>
</svg>
