<?xml version="1.0" encoding="utf-8"?>
<!-- Generator: Adobe Illustrator 24.3.0, SVG Export Plug-In . SVG Version: 6.00 Build 0)  -->
<svg version="1.1" id="park" xmlns="http://www.w3.org/2000/svg" xmlns:xlink="http://www.w3.org/1999/xlink" x="0px" y="0px"
	 viewBox="0 0 1010.8 106.8" style="enable-background:new 0 0 1010.8 106.8;" xml:space="preserve">
<style type="text/css">
	.st0{opacity:0.7;fill:#FFFFFF;enable-background:new    ;}
	.st1{enable-background:new    ;}
	.st2{fill:#009CA6;}
	.st3{fill:#D71F24;}
</style>
<path class="st0" d="M16,15h972.8c6.6,0,12,5.4,12,12v55.7c0,6.6-5.4,12-12,12H16c-6.6,0-12-5.4-12-12V27C4,20.4,9.4,15,16,15z"/>
<g class="st1">
	<path class="st2" d="M31.9,64.7l-5.5,8.6H19L28.3,59L31.9,64.7z M47.2,73.3h-7.3L19.6,41.7H27L47.2,73.3z M38,55.2l-3.6-5.8
		l4.8-7.8h7.3L38,55.2z"/>
</g>
<g class="st1">
	<path class="st2" d="M55.2,57.2c0,6.4,4.4,10.8,10.2,10.8c3.4,0,6.3-1.4,8.1-3.2v7c-2.3,1.4-5.1,2.2-8.1,2.2
		c-9.3,0-16.9-7.1-16.9-16.5c0-5.5,2.7-10,6.7-12.7V57.2z M82.2,57.5c0,5.5-2.7,10-6.7,12.7V57.8c0-6.4-4.4-10.8-10.2-10.8
		c-3.4,0-6.3,1.4-8.1,3.2v-7c2.3-1.4,5.1-2.2,8.1-2.2C74.6,41.1,82.2,48.2,82.2,57.5z"/>
	<path class="st2" d="M85.5,66.9l4.5-3.4c1.7,2.4,4,4.6,7.8,4.6c0.8,0,1.7-0.1,2.4-0.3v5.8c-0.8,0.2-1.5,0.3-2.2,0.3
		C92.1,73.9,87.8,71.1,85.5,66.9z M102.2,65.4c0-2.8-1.5-3.6-4-4.7l-3.4-1.5c-4.6-2.1-7.7-4.7-7.7-9.1c0-4.1,2.7-7.1,6.6-8.2v7.2
		c0,2.6,1.4,3.4,3.7,4.4l3.6,1.6c5,2.2,7.8,4.8,7.8,9.3c0,4.4-2.7,7.4-6.6,8.6V65.4z M101.6,80c0,2.3-1.9,4-4.1,4
		c-2.3,0-4.2-1.7-4.2-4c0-2.3,1.9-4,4.2-4C99.8,75.9,101.6,77.7,101.6,80z M97.5,46.8c-0.5,0-1.1,0.1-1.8,0.3v-5.8
		c0.7-0.1,1.2-0.2,1.8-0.2c5.2,0,8.7,2.7,10.5,6l-4.4,3.4C102.1,48.2,100.2,46.8,97.5,46.8z"/>
	<path class="st2" d="M139,64c0,5.5-4.3,9.3-10.4,9.3h-14.1V41.7h11.2c5.8,0,10,3.6,10,8.9s-4.1,9.3-10,9.3h-2.9v-5.3h2.5
		c2.6,0,4-1.5,4-3.6c0-2.2-1.4-3.6-4-3.6h-4.6v20.5h7.4c2.8,0,4.5-1.5,4.5-3.9c0-1.2-0.4-2.1-1.2-3l4.4-3.6
		C137.9,58.8,139,61.2,139,64z"/>
</g>
<g class="st1">
	<path class="st2" d="M157.4,67.9c3.3,0,6.2-1.4,8-3.2v7c-2.3,1.4-5,2.2-8.1,2.2c-8.4,0-14.8-6-14.8-14.6c0-1.5,0.2-3.1,0.4-4H165
		v5.5h-16.2C149,65.5,153.2,67.9,157.4,67.9z M174,57.5c0,5.5-2.6,10.1-6.6,12.8V57.5c0-6.3-4.3-10.5-9.8-10.5c-3.6,0-6.7,1.8-9,4.9
		l-4.4-3.8c3-4.2,7.5-7.1,13.3-7.1C166.7,41.1,174,48.2,174,57.5z"/>
</g>
<g class="st1">
	<path class="st2" d="M188.2,64.7l-5.5,8.6h-7.4l9.3-14.3L188.2,64.7z M203.4,73.3h-7.3l-20.2-31.7h7.4L203.4,73.3z M194.3,55.2
		l-3.6-5.8l4.8-7.8h7.3L194.3,55.2z"/>
	<path class="st2" d="M204.8,41.7h26.8v5.9h-26.8V41.7z M214.9,49.5h6.5v23.8h-6.5V49.5z"/>
	<path class="st2" d="M242.3,65.5h-6.5V41.7h6.5V65.5z M256.2,73.3h-20.4v-5.9h20.4V73.3z"/>
	<path class="st2" d="M268.3,34.2c0,2.3-1.9,4-4.1,4c-2.3,0-4.2-1.8-4.2-4c0-2.3,1.9-4,4.2-4C266.5,30.2,268.3,32,268.3,34.2z
		 M261,41.7h6.5v31.7H261V41.7z"/>
	<path class="st2" d="M274.7,41.7h6.5v31.7h-6.5V41.7z M302.7,73.3h-7.6l-12.5-16.8l11-14.9h7.4l-10.9,14.8L302.7,73.3z"/>
</g>
<g class="st1">
	<path class="st2" d="M318.2,66.9l4.5-3.4c1.7,2.4,4,4.6,7.8,4.6c0.8,0,1.7-0.1,2.4-0.3v5.8c-0.8,0.2-1.5,0.3-2.2,0.3
		C324.8,73.9,320.5,71.1,318.2,66.9z M334.9,65.4c0-2.8-1.5-3.6-4-4.7l-3.4-1.5c-4.6-2.1-7.7-4.7-7.7-9.1c0-4.1,2.7-7.1,6.6-8.2v7.2
		c0,2.6,1.4,3.4,3.7,4.4l3.6,1.6c5,2.2,7.8,4.8,7.8,9.3c0,4.4-2.7,7.4-6.6,8.6V65.4z M330.2,46.8c-0.5,0-1.1,0.1-1.8,0.3v-5.8
		c0.7-0.1,1.2-0.2,1.8-0.2c5.2,0,8.7,2.7,10.5,6l-4.4,3.4C334.8,48.2,332.9,46.8,330.2,46.8z"/>
</g>
<g class="st1">
	<path class="st2" d="M354.6,48.9l3.4,7.8l-3.1,7.2h6.2l2.3,5.3h-10.8l-1.7,4.1h-7L354.6,48.9z M355.8,46.3l2.3-5.2h2.2l14.1,32.3
		h-6.9L355.8,46.3z"/>
</g>
<g class="st1">
	<path class="st2" d="M376.1,57.5c0-5.4,2.7-10.1,6.7-12.8v12.4c0,6.7,4.4,10.9,10.5,10.9c3.6,0,6.6-1.5,8.4-3.5v-1h6.5v2.2
		c-2.8,5-8.6,8.1-14.9,8.1C383.5,73.9,376.1,66.8,376.1,57.5z M392.9,47.1c-3.4,0-6.3,1.4-8.2,3.2v-7c2.3-1.4,5.2-2.2,8.3-2.2
		c5.7,0,10.3,2.5,13.3,6.9l-4.6,3.8C399.7,48.8,396.8,47.1,392.9,47.1z M397.2,34.2c0,2.3-1.9,4-4.1,4c-2.3,0-4.2-1.8-4.2-4
		c0-2.3,1.9-4,4.2-4C395.3,30.2,397.2,32,397.2,34.2z M392.9,56h15.2v5.6h-15.2V56z"/>
	<path class="st2" d="M420.3,65.5h-6.5V41.7h6.5V65.5z M434.1,73.3h-20.4v-5.9h20.4V73.3z"/>
	<path class="st2" d="M446.6,48.9l3.4,7.8l-3.1,7.2h6.2l2.3,5.3h-10.8l-1.7,4.1h-7L446.6,48.9z M447.8,46.3l2.3-5.2h2.2l14.1,32.3
		h-6.9L447.8,46.3z"/>
	<path class="st2" d="M501.7,48.6l-14.4,17.9h-2.1l-14.4-17.9v-7.5h2.1l13.4,17.2l13.4-17.2h2.1V48.6z M477.1,59.7v13.7h-6.5V51.8
		L477.1,59.7z M501.7,73.3h-6.5V59.7l6.5-7.8V73.3z"/>
</g>
<g class="st1">
	<path class="st3" d="M532.7,43.2l4.2,9.6l-3.8,8.9h7.6l2.8,6.5h-13.3l-2.1,5.1h-8.6L532.7,43.2z M534.1,40.1l2.8-6.4h2.7l17.3,39.7
		h-8.5L534.1,40.1z"/>
	<path class="st3" d="M571.3,25.2c0,2.8-2.3,5-5.1,5c-2.8,0-5.1-2.2-5.1-5s2.3-5,5.1-5C569,20.3,571.3,22.5,571.3,25.2z M562.2,34.4
		h8v38.9h-8V34.4z"/>
</g>
<g class="st1">
	<path class="st3" d="M587.1,63.7h-8V34.4h8V63.7z M604.1,73.3h-25v-7.2h25V73.3z"/>
</g>
<g class="st1">
	<path class="st3" d="M625.2,66.7c4.1,0,7.6-1.7,9.8-3.9v8.6c-2.8,1.7-6.2,2.7-9.9,2.7c-10.4,0-18.2-7.4-18.2-17.9
		c0-1.9,0.3-3.8,0.5-5h27.1v6.7h-19.9C614.9,63.7,620.1,66.7,625.2,66.7z M645.6,53.9c0,6.7-3.2,12.4-8.1,15.7V53.9
		c0-7.7-5.3-12.9-12.1-12.9c-4.5,0-8.3,2.2-11,6l-5.4-4.7c3.7-5.1,9.3-8.7,16.4-8.7C636.6,33.7,645.6,42.5,645.6,53.9z"/>
</g>
<g class="st1">
	<path class="st2" d="M658,73.3h-6.5V41.7h6.5V73.3z M679.2,57.4c0,9.5-7.1,16-17.3,16H660v-5.9h1.9c6.3,0,10.7-3.9,10.7-10.1
		c0-6.1-4.3-9.8-10.7-9.8H660v-5.9h1.9C672.1,41.7,679.2,47.9,679.2,57.4z"/>
	<path class="st2" d="M697.8,67.9c3.3,0,6.2-1.4,8-3.2v7c-2.3,1.4-5,2.2-8.1,2.2c-8.4,0-14.8-6-14.8-14.6c0-1.5,0.2-3.1,0.4-4h22.1
		v5.5h-16.2C689.4,65.5,693.5,67.9,697.8,67.9z M714.3,57.5c0,5.5-2.6,10.1-6.6,12.8V57.5c0-6.3-4.3-10.5-9.8-10.5
		c-3.6,0-6.7,1.8-9,4.9l-4.4-3.8c3-4.2,7.5-7.1,13.3-7.1C707,41.1,714.3,48.2,714.3,57.5z"/>
	<path class="st2" d="M719.9,47.7v-6.6h2.1l24.9,26.2v6.6h-2.2L719.9,47.7z M719.9,50.7l6.5,6.6v16h-6.5V50.7z M740.3,57.5V41.7h6.5
		v22.6L740.3,57.5z"/>
</g>
<g class="st1">
	<path class="st2" d="M792,64c0,5.5-4.3,9.3-10.4,9.3h-14.1V41.7h11.2c5.8,0,10,3.6,10,8.9s-4.1,9.3-10,9.3h-2.9v-5.3h2.5
		c2.6,0,4-1.5,4-3.6c0-2.2-1.4-3.6-4-3.6h-4.6v20.5h7.4c2.8,0,4.5-1.5,4.5-3.9c0-1.2-0.4-2.1-1.2-3l4.4-3.6
		C790.9,58.8,792,61.2,792,64z"/>
</g>
<g class="st1">
	<path class="st2" d="M804.5,48.9l3.4,7.8l-3.1,7.2h6.2l2.3,5.3h-10.8l-1.7,4.1h-7L804.5,48.9z M805.7,46.3l2.3-5.2h2.2l14.1,32.3
		h-6.9L805.7,46.3z"/>
</g>
<g class="st1">
	<path class="st2" d="M826.1,66.9l4.5-3.4c1.7,2.4,4,4.6,7.8,4.6c0.8,0,1.7-0.1,2.4-0.3v5.8c-0.8,0.2-1.5,0.3-2.2,0.3
		C832.8,73.9,828.5,71.1,826.1,66.9z M842.9,65.4c0-2.8-1.5-3.6-4-4.7l-3.4-1.5c-4.6-2.1-7.7-4.7-7.7-9.1c0-4.1,2.7-7.1,6.6-8.2v7.2
		c0,2.6,1.4,3.4,3.7,4.4l3.6,1.6c5,2.2,7.8,4.8,7.8,9.3c0,4.4-2.7,7.4-6.6,8.6V65.4z M842.3,80c0,2.3-1.9,4-4.1,4
		c-2.3,0-4.2-1.7-4.2-4c0-2.3,1.9-4,4.2-4C840.4,75.9,842.3,77.7,842.3,80z M838.2,46.8c-0.5,0-1.1,0.1-1.8,0.3v-5.8
		c0.7-0.1,1.2-0.2,1.8-0.2c5.2,0,8.7,2.7,10.5,6l-4.4,3.4C842.8,48.2,840.9,46.8,838.2,46.8z"/>
	<path class="st2" d="M861.6,65.5h-6.5V41.7h6.5V65.5z M875.5,73.3h-20.4v-5.9h20.4V73.3z"/>
</g>
<g class="st1">
	<path class="st2" d="M888,48.9l3.4,7.8l-3.1,7.2h6.2l2.3,5.3H886l-1.7,4.1h-7L888,48.9z M889.1,46.3l2.3-5.2h2.2l14.1,32.3h-6.9
		L889.1,46.3z"/>
</g>
<g class="st1">
	<path class="st2" d="M922.6,59.6v13.8h-6.5V60.8l-10.9-19.2h7.2L922.6,59.6z M923.8,57.7l-3.4-6.1l6-9.9h7.2L923.8,57.7z"/>
	<path class="st2" d="M937.9,41.7h6.5v31.7h-6.5V41.7z"/>
	<path class="st2" d="M951.6,41.7h11.9c6.7,0,11.4,4,11.4,10.2c0,6.1-4.8,10.3-11.4,10.3h-3.4v-5.7h3.4c3,0,4.8-1.9,4.8-4.6
		c0-2.6-1.8-4.5-4.8-4.5h-5.4v26h-6.5V41.7z M964.4,64.2l6.4-1.3l7.6,10.5h-7.3L964.4,64.2z"/>
</g>
</svg>
