<svg id="Слой_5" data-name="Слой 5" xmlns="http://www.w3.org/2000/svg" viewBox="0 0 320.48 318.59">
  <defs>
    <style>
      .cls-1 {
        fill: #d60911;
        fill-rule: evenodd;
      }
    </style>
  </defs>
  <path class="cls-1" d="M12.8,193.09c9,74.92,88.35,146.12,182.09,133.58C276.08,315.83,341.46,238.91,330.52,147,306.41-55.58-13.78-29.28,12.8,193.09M76,137.24c33.46-20.56,9-17.56,51.67-59.39,25.1-24.58,28.53,10.08,18.25-57.3l34.17-1.38c5.15,11.81,3.21,17.4,13.76,23.94,11.44,7.09,34.67.51,25.9,14-4.58,7.06-10.55,12.82-16,19.92-9.54,12.41-4.21,14,6.8,23.63-.75.59-1.83.63-2.15,1.88l-8,7.45c-7.1,6.74-8.92,10-9.24,15.25-.12,2.09.1,4.11.16,6,1.65,46.84,11.58,42.07,60.22,45.29,25.59,34.6,15.93,55.05,21.52,67.25,38.1-1.45,19.55-49.23,47.44-74C315.35,266.1,238.35,331.2,137.56,313.2c-4.26-38.21,7.06-6.74,28.39-53.06,43.16-90.19,14.69-54.8-26.93-85-34.89-28.79-40.65-14.5-54.85-8.89ZM212.27,86.06c6.07-9.83,18.21-22.61,20.85-36,2.23-11.28-2.64-9.79-12.57-13.19-15.89-2.81-25.92,4-24.78-15.72,44.13,9.12,80.79,31.74,104.09,70.75,35.45,59.33,4.09,70.42-3.93,95.15-4.41,13.62-4.3,23.44-9.12,36.41-.45-.86-.85-2.1-1.1-2.69l-10.62-22.89C252.52,148.1,260.84,171,209,163.21c-5.77-16.58-17.91-57.35,18.63-55.53,90.67,13.63,57.17-23.49,49.61-22.31C247.74,90,248,83.1,240.17,82.23,229.93,81.08,225.12,81.26,212.27,86.06ZM70.42,167.33c-69.23-19-20.87-127.94,61.74-141.67,12.9,21.91,13.3,30.81-7.58,40-17.57,7.7-27.35,38.45-45.2,54-35-12.86-40.67,6.92-28.19,23.92,4.06,5.53,11.81,8,16.1,12.75C71.35,160.71,73.23,164.85,70.42,167.33ZM76,137.24c-17,12.89-23.63-5.8-17.89-11.39C62.44,121.68,71.49,124.86,76,137.24Zm-49.28-2c13.46,29.38,12.21,31.1,45.33,43.33-2.44,42.93-1.75,38.07,20.7,57.32,13.61,11.67,8.65,15.64,10.91,34.24,1.31,10.76,6.79,22.55,9.68,34.24C61,287.23,5.9,212.1,26.75,135.21ZM155,256.69c-12.41,26.09-24.68,20.53-31.72,39.17-23.33-46.53,1.17-40.21-15.63-59.47-4.46-5.11-29.85-19.71-25.65-45.71,4.17-25.81,28.48-23.25,44.83-10.52C182.28,216.59,185,185,155,256.69Z" transform="translate(-11.24 -9.53)"/>
</svg>
