<?xml version="1.0" encoding="utf-8"?>
<!-- Generator: Adobe Illustrator 24.3.0, SVG Export Plug-In . SVG Version: 6.00 Build 0)  -->
<svg version="1.1" id="Слой_1" xmlns="http://www.w3.org/2000/svg" xmlns:xlink="http://www.w3.org/1999/xlink" x="0px" y="0px"
	 viewBox="0 0 327.4 346.55" style="enable-background:new 0 0 327.4 346.55;" xml:space="preserve">
<style type="text/css">
	.st0{fill:none;}
	.st1{fill:#CE2525;}
	.st2{fill:#FFFFFF;}
</style>
<g>
	<path class="st0" d="M319.68,10.91v118.79c0,41.5-0.19,55.11-0.19,83.71c0,15.48-3.94,35.35-11.65,50.14
		c-3.09,5.83-7.98,11.49-14.14,16.92c-37.29,32.87-108.92,60.56-130.14,60.56c-21.74,0-92.85-27.69-130.14-60.56
		c-6.16-5.44-11.05-11.1-14.14-16.92c-7.71-14.78-11.65-34.66-11.65-50.14c0-28.61-0.19-42.22-0.19-83.71V10.91h-49.63v346.98
		h396.77V10.91H319.68z"/>
	<path class="st1" d="M192.56,217.41c0.99-0.38,1.84-0.91,2.55-1.62c0.71-0.7,1.28-1.55,1.68-2.57c0.4-1.01,0.6-2.15,0.6-3.41
		c0-2.27-0.68-4.03-2.05-5.3c-1.36-1.27-3.35-1.9-5.94-1.9h-6.34v15.36h6.29C190.5,217.97,191.58,217.78,192.56,217.41z"/>
	<path class="st1" d="M110.27,70.74c-0.58-2.08-1-4.55-1.24-7.42h-0.41c-0.17,2.41-0.59,4.81-1.28,7.18l-7.99,27.94h18.81
		L110.27,70.74z"/>
	<path class="st1" d="M7.63,213.42c0,15.48,3.93,35.35,11.65,50.14c3.09,5.83,7.98,11.49,14.14,16.92
		c37.29,32.87,108.4,60.56,130.14,60.56c21.22,0,92.86-27.69,130.14-60.56c6.16-5.44,11.06-11.1,14.14-16.92
		c7.71-14.78,11.65-34.66,11.65-50.14c0-28.61,0.19-42.22,0.19-83.71V10.91H7.44v118.79C7.44,171.21,7.63,184.82,7.63,213.42z
		 M81.4,258.01c-1.58,1.21-3.71,1.82-6.39,1.82h-3.19v7.6h-2.83v-20.09h6.64c2.58,0,4.58,0.52,6.01,1.57
		c1.42,1.05,2.13,2.52,2.13,4.43C83.78,255.23,82.99,256.8,81.4,258.01z M87.2,227.15c-0.47-0.85-1.12-1.62-1.94-2.32
		c-0.83-0.71-1.81-1.37-2.94-2.02c-1.14-0.64-2.35-1.31-3.66-2.02c-1.37-0.75-2.66-1.51-3.86-2.28c-1.2-0.76-2.23-1.61-3.12-2.54
		c-0.88-0.92-1.57-1.98-2.08-3.15c-0.51-1.17-0.76-2.54-0.76-4.11c0-1.93,0.39-3.61,1.18-5.04c0.79-1.43,1.84-2.6,3.12-3.53
		c1.29-0.93,2.76-1.61,4.4-2.07c1.64-0.45,3.32-0.69,5.03-0.69c3.89,0,6.74,0.51,8.52,1.51v5.58c-2.33-1.73-5.34-2.6-8.99-2.6
		c-1.02,0-2.02,0.11-3.04,0.33c-1.01,0.23-1.91,0.6-2.7,1.11c-0.79,0.51-1.43,1.18-1.93,1.99c-0.5,0.81-0.74,1.78-0.74,2.95
		c0,1.08,0.19,2.01,0.56,2.8c0.38,0.79,0.93,1.5,1.67,2.16c0.74,0.64,1.64,1.28,2.69,1.88c1.05,0.62,2.28,1.28,3.65,2
		c1.42,0.76,2.76,1.54,4.03,2.37c1.27,0.83,2.38,1.74,3.33,2.74c0.96,1.01,1.71,2.11,2.28,3.33c0.56,1.22,0.84,2.62,0.84,4.2
		c0,2.08-0.38,3.86-1.14,5.3c-0.76,1.45-1.8,2.63-3.09,3.53c-1.3,0.91-2.79,1.56-4.48,1.96c-1.7,0.4-3.48,0.61-5.36,0.61
		c-0.62,0-1.39-0.05-2.32-0.16c-0.91-0.11-1.85-0.26-2.82-0.47c-0.95-0.2-1.85-0.46-2.71-0.77c-0.86-0.3-1.54-0.65-2.06-1.02v-5.85
		c0.63,0.59,1.38,1.12,2.25,1.59c0.88,0.47,1.8,0.88,2.76,1.2c0.97,0.32,1.94,0.58,2.91,0.76c0.98,0.17,1.88,0.26,2.7,0.26
		c2.85,0,4.98-0.56,6.39-1.7c1.4-1.13,2.11-2.76,2.11-4.88C87.91,228.99,87.67,228,87.2,227.15z M96.77,306.27
		c-0.28,0.54-0.83,0.85-1.4,0.85l-0.7-0.17c-3.88-1.95-7.69-3.96-11.34-5.98c-0.76-0.42-1.03-1.38-0.61-2.13
		c0.42-0.75,1.38-1.02,2.14-0.6c3.61,2.01,7.39,4,11.23,5.93C96.85,304.56,97.16,305.5,96.77,306.27z M100,260.45
		c-0.35-0.37-0.71-0.67-1.07-0.9c-0.37-0.24-0.76-0.41-1.18-0.51c-0.42-0.11-0.9-0.16-1.43-0.16H94v8.55h-2.83v-20.09h7.22
		c1.05,0,2.03,0.11,2.92,0.33c0.89,0.22,1.67,0.55,2.32,1c0.67,0.45,1.18,1.01,1.54,1.67c0.38,0.67,0.56,1.45,0.56,2.35
		c0,0.7-0.13,1.35-0.38,1.93c-0.26,0.58-0.61,1.11-1.08,1.56c-0.47,0.46-1.03,0.85-1.69,1.17c-0.66,0.32-1.4,0.58-2.22,0.75v0.05
		c0.41,0.15,0.76,0.32,1.06,0.51c0.29,0.2,0.58,0.42,0.84,0.69c0.27,0.26,0.54,0.55,0.81,0.89c0.27,0.33,0.56,0.71,0.88,1.15
		l4.54,6.04h-3.37l-4.05-5.64C100.71,261.27,100.35,260.83,100,260.45z M96.01,240.47v-42.34h4.63v42.34H96.01z M126.98,151.93v35.2
		h-9.22v-35.2H126.98z M117.98,145.3c0-0.98,0.42-1.77,1.26-2.4c0.83-0.61,1.88-0.92,3.14-0.92c1.28,0,2.32,0.32,3.13,0.94
		c0.81,0.62,1.21,1.42,1.21,2.38c0,0.96-0.4,1.77-1.21,2.4c-0.81,0.64-1.85,0.96-3.13,0.96c-1.27,0-2.33-0.33-3.15-0.98
		C118.39,147.03,117.98,146.23,117.98,145.3z M127.07,190.3v3.92h-9.3v-3.92H127.07z M124.32,197.41c4.3,0,7.92,0.76,10.83,2.25
		v5.49c-3.19-2.17-6.98-3.24-11.36-3.24c-4.42,0-8.06,1.63-10.89,4.89c-2.83,3.27-4.25,7.5-4.25,12.7c0,5.35,1.32,9.57,3.94,12.62
		c2.63,3.06,6.2,4.59,10.71,4.59c3.09,0,5.76-0.66,8.02-1.97v-11.88h-8.66v-4.48h13.29v19.19c-3.96,2.4-8.38,3.6-13.23,3.6
		c-5.64,0-10.2-1.95-13.69-5.85c-3.49-3.89-5.23-9.05-5.23-15.47c0-6.55,1.94-11.94,5.81-16.14
		C113.48,199.52,118.38,197.41,124.32,197.41z M135.58,257.13c0,3.28-1.05,5.87-3.13,7.78c-2.09,1.9-4.89,2.86-8.4,2.86
		c-3.43,0-6.17-0.94-8.23-2.82c-2.06-1.87-3.09-4.32-3.09-7.32c0-3.24,1.05-5.81,3.15-7.74c2.1-1.92,4.96-2.89,8.58-2.89
		c3.34,0,6.03,0.93,8.06,2.8C134.57,251.67,135.58,254.11,135.58,257.13z M117.07,315.53c-0.25,0.59-0.83,0.95-1.45,0.95l-0.61-0.12
		c-3.93-1.66-7.87-3.41-11.71-5.21c-0.79-0.36-1.12-1.3-0.75-2.08c0.37-0.78,1.31-1.11,2.09-0.74c3.81,1.78,7.71,3.52,11.6,5.16
		C117.04,313.82,117.41,314.74,117.07,315.53z M137.98,323.36c-0.22,0.65-0.83,1.06-1.49,1.06l-0.5-0.08
		c-3.89-1.3-7.95-2.78-12.07-4.38c-0.81-0.31-1.21-1.22-0.89-2.02c0.32-0.81,1.23-1.2,2.04-0.89c4.07,1.58,8.09,3.03,11.93,4.33
		C137.82,321.66,138.26,322.55,137.98,323.36z M137.9,219.8c0-6.82,1.72-12.25,5.15-16.3c3.44-4.05,8.13-6.09,14.05-6.09
		c5.46,0,9.86,1.97,13.19,5.91c3.34,3.94,5.01,9.09,5.01,15.45c0,6.9-1.71,12.37-5.13,16.39c-3.42,4.01-7.99,6.02-13.73,6.02
		c-5.61,0-10.1-1.97-13.47-5.94C139.59,231.29,137.9,226.13,137.9,219.8z M159.62,328.83c-0.13,0.76-0.79,1.31-1.55,1.31l-0.25-0.02
		c-3.61-0.58-7.86-1.56-12.61-2.92c-0.84-0.23-1.32-1.1-1.08-1.93c0.23-0.83,1.1-1.32,1.94-1.07c4.65,1.32,8.77,2.27,12.26,2.84
		C159.18,327.18,159.76,327.98,159.62,328.83z M161.38,270.13l-4.55-2.83c-1.19,0.31-2.5,0.46-3.92,0.46
		c-3.42,0-6.16-0.94-8.24-2.82c-2.06-1.87-3.09-4.32-3.09-7.32c0-3.24,1.05-5.82,3.15-7.74c2.11-1.92,4.98-2.89,8.58-2.89
		c3.33,0,6.01,0.93,8.06,2.8c2.04,1.87,3.07,4.31,3.07,7.33c0,3.28-1.04,5.87-3.13,7.78c-0.5,0.45-1.02,0.85-1.58,1.18l6.79,4.05
		H161.38z M180.52,328.01c-5.02,1.32-9.31,2.18-12.75,2.54l-0.17,0.01c-0.79,0-1.47-0.59-1.56-1.39c-0.09-0.86,0.53-1.63,1.4-1.72
		c3.28-0.34,7.4-1.17,12.27-2.45c0.84-0.23,1.7,0.27,1.92,1.11C181.86,326.94,181.36,327.79,180.52,328.01z M181.95,261.79
		c-0.37-0.52-0.73-0.97-1.08-1.34c-0.35-0.37-0.71-0.67-1.07-0.9c-0.37-0.24-0.76-0.41-1.18-0.51c-0.42-0.11-0.9-0.16-1.43-0.16
		h-2.33v8.55h-2.83v-20.09h7.21c1.05,0,2.03,0.11,2.93,0.33c0.89,0.22,1.67,0.55,2.32,1c0.66,0.45,1.17,1.01,1.54,1.67
		c0.37,0.67,0.56,1.45,0.56,2.35c0,0.7-0.13,1.35-0.38,1.93c-0.25,0.58-0.61,1.11-1.08,1.56c-0.46,0.46-1.03,0.85-1.69,1.17
		c-0.66,0.32-1.4,0.58-2.22,0.75v0.05c0.41,0.15,0.76,0.32,1.06,0.51c0.29,0.2,0.58,0.42,0.84,0.69c0.27,0.26,0.54,0.55,0.81,0.89
		c0.26,0.33,0.56,0.71,0.88,1.15l4.54,6.04H186L181.95,261.79z M201.9,321.04c-4.19,1.58-8.27,3-12.12,4.24l-0.48,0.08
		c-0.67,0-1.28-0.42-1.5-1.08c-0.27-0.82,0.19-1.7,1.01-1.96c3.8-1.22,7.83-2.63,11.98-4.19c0.81-0.3,1.71,0.1,2.02,0.91
		C203.13,319.83,202.72,320.73,201.9,321.04z M198.29,261.79l-2.41,5.64h-3.15l9.27-20.09h2.93l9.3,20.09h-3.13l-2.56-5.64H198.29z
		 M202.05,202.61v-4.48h27.44v4.48h-11.42v37.86h-4.63v-37.86H202.05z M224.43,170.99c1.73,1.54,2.61,3.41,2.61,5.62
		c0,3.23-1.34,5.78-4.02,7.67c-2.69,1.89-6.35,2.83-10.99,2.83H196.3v-35.2h14.9c4.57,0,8.07,0.72,10.53,2.16
		c2.45,1.43,3.68,3.47,3.68,6.08c0,1.9-0.75,3.56-2.24,4.98c-1.5,1.43-3.4,2.41-5.72,2.97v0.1
		C220.36,168.53,222.69,169.46,224.43,170.99z M222.61,312.42c-3.91,1.78-7.86,3.49-11.76,5.09l-0.6,0.12
		c-0.62,0-1.2-0.36-1.45-0.96c-0.33-0.8,0.05-1.71,0.85-2.04c3.86-1.59,7.78-3.29,11.65-5.05c0.79-0.36,1.72-0.01,2.08,0.77
		C223.74,311.14,223.4,312.06,222.61,312.42z M242.7,302.46c-3.67,1.98-7.51,3.95-11.39,5.86l-0.69,0.16
		c-0.58,0-1.14-0.32-1.41-0.87c-0.38-0.77-0.06-1.71,0.71-2.09c3.85-1.89,7.65-3.84,11.29-5.8c0.76-0.41,1.72-0.13,2.13,0.63
		C243.75,301.1,243.46,302.05,242.7,302.46z M245.27,267.43h-2.81v-13.48c0-1.06,0.08-2.37,0.24-3.91h-0.07
		c-0.27,0.91-0.51,1.56-0.73,1.95l-8.25,15.44h-1.39l-8.24-15.33c-0.24-0.45-0.48-1.13-0.73-2.06h-0.07
		c0.09,0.8,0.13,2.12,0.13,3.94v13.46h-2.73v-20.09h3.74l7.42,14.01c0.58,1.08,0.95,1.88,1.12,2.41h0.1
		c0.48-1.1,0.87-1.92,1.16-2.46l7.58-13.96h3.53V267.43z M231.33,228.59l-3.94,11.88h-5.15l15.16-42.34h4.8l15.22,42.34h-5.13
		l-4.19-11.88H231.33z M254.28,151.93v35.2h-9.22v-35.2H254.28z M245.28,145.3c0-0.98,0.42-1.77,1.26-2.4
		c0.83-0.61,1.88-0.92,3.14-0.92c1.27,0,2.32,0.32,3.12,0.94c0.81,0.62,1.21,1.42,1.21,2.38c0,0.96-0.4,1.77-1.21,2.4
		c-0.81,0.64-1.85,0.96-3.12,0.96c-1.28,0-2.33-0.33-3.15-0.98C245.69,147.03,245.28,146.23,245.28,145.3z M257.31,247.34v20.09
		h-2.83v-20.09H257.31z M302.52,30.47c0-0.86,0.66-1.56,1.48-1.56c0.82,0,1.48,0.7,1.48,1.56v14.79c0,0.86-0.66,1.56-1.48,1.56
		c-0.82,0-1.48-0.7-1.48-1.56V30.47z M302.52,56.35c0-0.86,0.66-1.56,1.48-1.56c0.82,0,1.48,0.7,1.48,1.56v14.79
		c0,0.86-0.66,1.56-1.48,1.56c-0.82,0-1.48-0.7-1.48-1.56V56.35z M302.4,90.19c0-0.35,0.12-0.67,0.32-0.93
		c-0.12-0.23-0.2-0.49-0.2-0.77v-6.25c0-0.86,0.66-1.56,1.48-1.56c0.82,0,1.48,0.7,1.48,1.56v6.25c0,0.3-0.08,0.58-0.23,0.82
		c0.18,0.25,0.28,0.56,0.28,0.89v6.25c0,0.86-0.7,1.56-1.57,1.56c-0.87,0-1.57-0.7-1.57-1.56V90.19z M302.4,105.95
		c0-0.86,0.7-1.56,1.57-1.56c0.87,0,1.57,0.7,1.57,1.56v12.68c0,0.86-0.7,1.56-1.57,1.56c-0.87,0-1.57-0.7-1.57-1.56V105.95z
		 M302.4,128.14c0-0.86,0.7-1.56,1.57-1.56c0.87,0,1.57,0.7,1.57,1.56v12.68c0,0.87-0.7,1.56-1.57,1.56c-0.87,0-1.57-0.7-1.57-1.56
		V128.14z M302.39,150.33c0-0.86,0.71-1.56,1.57-1.56h0c0.87,0,1.57,0.7,1.57,1.56l-0.02,12.68c0,0.86-0.71,1.56-1.57,1.56h0
		c-0.87,0-1.57-0.7-1.57-1.56L302.39,150.33z M302.35,172.5c0-0.86,0.71-1.56,1.57-1.56h0.01c0.87,0.01,1.57,0.71,1.56,1.57
		l-0.05,12.67c0,0.86-0.71,1.55-1.57,1.55h0c-0.87,0-1.57-0.7-1.57-1.57L302.35,172.5z M302.26,194.68c0-0.86,0.71-1.55,1.57-1.55
		h0.01c0.87,0,1.57,0.71,1.56,1.57l-0.03,12.67c0,0.86-0.7,1.56-1.57,1.56h0c-0.87,0-1.57-0.7-1.57-1.56L302.26,194.68z
		 M301.14,229.27c0.63-4.28,0.99-8.47,1.07-12.44c0.02-0.86,0.78-1.46,1.61-1.53c0.87,0.02,1.55,0.73,1.54,1.6
		c-0.09,4.1-0.45,8.41-1.1,12.82c-0.11,0.78-0.78,1.34-1.55,1.34l-0.23-0.01C301.61,230.91,301.01,230.12,301.14,229.27z
		 M295.83,250.46c1.38-3.75,2.58-7.77,3.56-11.97c0.2-0.84,1.05-1.36,1.89-1.17c0.84,0.19,1.37,1.03,1.17,1.87
		c-1.01,4.32-2.25,8.47-3.67,12.34c-0.23,0.63-0.84,1.02-1.48,1.02l-0.54-0.09C295.95,252.17,295.53,251.27,295.83,250.46z
		 M284.87,268.89c3.05-3.26,5.44-6.51,7.12-9.69c0.4-0.76,1.41-1.16,2.17-0.76c0.77,0.4,1.12,1.24,0.72,2l-1.39-0.72l1.3,0.91
		c-1.83,3.44-4.38,6.93-7.62,10.38c-0.31,0.33-0.73,0.5-1.15,0.5c-0.38,0-0.77-0.14-1.07-0.42
		C284.31,270.51,284.28,269.52,284.87,268.89z M268.11,283.06c3.59-2.58,6.93-5.19,9.94-7.75c0.66-0.56,1.65-0.49,2.21,0.17
		c0.57,0.65,0.49,1.64-0.17,2.2c-3.08,2.63-6.49,5.29-10.14,7.92c-0.28,0.2-0.6,0.29-0.92,0.29c-0.48,0-0.96-0.22-1.27-0.64
		C267.25,284.54,267.41,283.57,268.11,283.06z M262.46,288.87c0.48,0.72,0.27,1.69-0.45,2.16c-3.46,2.26-7.14,4.52-10.92,6.73
		c-0.25,0.14-0.52,0.21-0.79,0.21c-0.54,0-1.06-0.28-1.36-0.77c-0.44-0.75-0.19-1.7,0.56-2.13c3.74-2.17,7.37-4.41,10.79-6.64
		C261.01,287.95,261.99,288.15,262.46,288.87z M208.47,96.43h34.24c-0.51-8.54-5.32-12.82-14.4-12.82c-5.74,0-10.81,1.53-15.22,4.59
		V75.09c4.88-2.9,11.18-4.35,18.91-4.35c8.47,0,15.05,2.63,19.73,7.91c4.67,5.26,7.02,12.62,7.02,22.04
		c0,9.77-2.52,17.52-7.58,23.23c-5.05,5.71-11.28,8.56-18.67,8.56c-7.64,0-13.58-2.55-17.75-7.63c-4.18-5.1-6.28-12.03-6.28-20.76
		V96.43z M182.64,43.89h16.18v87.15h-16.18V43.89z M178.43,198.12h11.8c1.72,0,3.32,0.23,4.78,0.69c1.46,0.46,2.73,1.16,3.8,2.11
		c1.08,0.95,1.92,2.13,2.52,3.53c0.61,1.41,0.91,3.06,0.91,4.95c0,1.47-0.21,2.83-0.62,4.06c-0.41,1.23-1,2.33-1.76,3.29
		c-0.76,0.97-1.68,1.8-2.76,2.47c-1.08,0.67-2.29,1.21-3.63,1.58v0.11c0.67,0.32,1.24,0.68,1.73,1.08c0.48,0.41,0.95,0.89,1.38,1.44
		c0.44,0.54,0.89,1.17,1.32,1.88c0.43,0.69,0.91,1.5,1.44,2.43l7.43,12.73h-5.52l-6.63-11.88c-0.6-1.1-1.19-2.03-1.76-2.82
		c-0.57-0.78-1.15-1.41-1.75-1.9c-0.6-0.49-1.24-0.85-1.93-1.08c-0.69-0.23-1.47-0.34-2.34-0.34h-3.8v18.01h-4.63V198.12z
		 M154.3,46.76c1.73-1.73,3.97-2.59,6.7-2.59c2.78,0,5.02,0.86,6.75,2.59c1.71,1.73,2.59,3.94,2.59,6.67c0,2.75-0.88,5.02-2.59,6.79
		c-1.73,1.75-3.97,2.63-6.75,2.63c-2.73,0-4.97-0.9-6.7-2.73c-1.75-1.83-2.62-4.04-2.62-6.69C151.68,50.7,152.55,48.48,154.3,46.76z
		 M169,72.17v58.87h-16.18V72.17H169z M147.55,151.93h14.9c4.57,0,8.08,0.72,10.53,2.16c2.46,1.43,3.68,3.47,3.68,6.08
		c0,1.9-0.75,3.56-2.24,4.98c-1.5,1.43-3.4,2.41-5.73,2.97v0.1c2.91,0.31,5.24,1.24,6.98,2.77c1.73,1.54,2.61,3.41,2.61,5.62
		c0,3.23-1.34,5.78-4.02,7.67c-2.69,1.89-6.35,2.83-10.98,2.83h-15.73V151.93z M99.46,48.6h19.63l26.14,82.44h-18.04l-5.23-18.35
		H95.82l-5.18,18.35H72.69L99.46,48.6z M68.45,151.93h32.53v6.45H89.3v28.75h-9.24v-28.75H68.45V151.93z M63.74,287.12
		c0.48-0.71,1.46-0.89,2.18-0.42c3.35,2.26,6.94,4.54,10.69,6.79c0.74,0.45,0.98,1.4,0.53,2.14c-0.29,0.49-0.81,0.76-1.34,0.76
		c-0.27,0-0.56-0.07-0.81-0.22c-3.79-2.28-7.44-4.59-10.83-6.88C63.44,288.8,63.25,287.83,63.74,287.12z M46.22,273.37
		c0.58-0.64,1.58-0.69,2.22-0.11l0.7,0.62c2.75,2.43,5.8,4.89,9.06,7.33c0.69,0.52,0.83,1.5,0.31,2.18
		c-0.31,0.41-0.78,0.62-1.25,0.62c-0.33,0-0.66-0.1-0.95-0.31c-3.32-2.49-6.43-5.01-9.25-7.5l-0.72-0.64
		C45.69,275,45.64,274.01,46.22,273.37z M33.31,255.47c0.79-0.36,1.72-0.01,2.08,0.77c0.47,1.02,0.95,2.01,1.46,2.97
		c1.28,2.42,3,4.91,5.08,7.39c0.56,0.66,0.47,1.64-0.2,2.2c-0.29,0.24-0.65,0.36-1.01,0.36c-0.45,0-0.89-0.19-1.2-0.56
		c-2.23-2.65-4.07-5.32-5.46-7.95c-0.54-1.02-1.04-2.06-1.53-3.12C32.17,256.76,32.52,255.83,33.31,255.47z M28.78,235.46
		c0.86,4.19,1.93,8.26,3.21,12.08c0.27,0.82-0.17,1.71-1,1.97l-0.49,0.08c-0.66,0-1.27-0.42-1.49-1.07
		c-1.31-3.95-2.42-8.14-3.3-12.44c-0.17-0.85,0.38-1.67,1.23-1.84C27.78,234.07,28.6,234.61,28.78,235.46z M27.29,226.19
		c0.1,0.86-0.52,1.64-1.38,1.73l-0.19,0.01c-0.79,0-1.46-0.59-1.56-1.38c-0.47-3.97-0.71-7.82-0.71-11.45v-1.39
		c0-0.86,0.7-1.56,1.57-1.56c0.87,0,1.57,0.7,1.57,1.56v1.39C26.6,218.62,26.84,222.35,27.29,226.19z M26.59,204.21
		c0,0.87-0.7,1.56-1.57,1.57h0c-0.87,0-1.57-0.7-1.57-1.56l-0.04-12.66c-0.01-0.87,0.76-1.48,1.57-1.57c0.86,0,1.57,0.69,1.57,1.55
		L26.59,204.21z M26.52,182.04c0,0.86-0.7,1.56-1.56,1.57h-0.01c-0.86,0-1.57-0.7-1.57-1.56l-0.04-12.67c0-0.86,0.75-1.49,1.57-1.57
		c0.86,0,1.57,0.7,1.57,1.56L26.52,182.04z M26.45,159.87c0,0.86-0.7,1.56-1.57,1.56h0c-0.87,0-1.57-0.7-1.57-1.56l-0.02-12.68
		c0-0.87,0.7-1.56,1.57-1.56c0.86,0,1.57,0.7,1.57,1.56L26.45,159.87z M23.4,30.47c0-0.86,0.66-1.56,1.48-1.56
		c0.82,0,1.48,0.7,1.48,1.56v14.79c0,0.86-0.66,1.56-1.48,1.56c-0.82,0-1.48-0.7-1.48-1.56V30.47z M23.4,56.35
		c0-0.86,0.66-1.56,1.48-1.56c0.82,0,1.48,0.7,1.48,1.56v14.79c0,0.86-0.66,1.56-1.48,1.56c-0.82,0-1.48-0.7-1.48-1.56V56.35z
		 M23.29,87.07c0-0.19,0.04-0.38,0.11-0.55v-4.28c0-0.86,0.66-1.56,1.48-1.56c0.82,0,1.48,0.7,1.48,1.56v4.4
		c0.04,0.14,0.07,0.28,0.07,0.43v6.25c0,0.86-0.7,1.56-1.57,1.56c-0.87,0-1.57-0.7-1.57-1.56V87.07z M23.29,102.81
		c0-0.86,0.7-1.56,1.57-1.56c0.87,0,1.57,0.7,1.57,1.56v12.68c0,0.86-0.7,1.56-1.57,1.56c-0.87,0-1.57-0.7-1.57-1.56V102.81z
		 M23.29,125c0-0.86,0.7-1.56,1.57-1.56c0.87,0,1.57,0.7,1.57,1.56v12.69c0,0.86-0.7,1.56-1.57,1.56c-0.87,0-1.57-0.7-1.57-1.56V125
		z"/>
	<path class="st1" d="M102.39,254.5c0.25-0.48,0.37-1.02,0.37-1.62c0-1.08-0.41-1.91-1.25-2.51c-0.83-0.6-2.05-0.91-3.63-0.91H94
		v7.29h3.84c0.7,0,1.36-0.09,1.96-0.27c0.61-0.18,1.12-0.43,1.56-0.77C101.8,255.39,102.15,254.98,102.39,254.5z"/>
	<path class="st1" d="M165.32,164.92c1.1-0.79,1.65-1.88,1.65-3.28c0-2.58-2.25-3.88-6.74-3.88h-3.45v8.35h4.05
		C162.73,166.11,164.23,165.71,165.32,164.92z"/>
	<path class="st1" d="M75.14,249.46h-3.32v8.24h2.97c1.95,0,3.45-0.38,4.47-1.11c1.03-0.75,1.54-1.79,1.54-3.15
		C80.81,250.79,78.92,249.46,75.14,249.46z"/>
	<path class="st1" d="M168.59,176.52c0-1.41-0.59-2.51-1.78-3.31c-1.2-0.8-2.86-1.21-4.99-1.21h-5.05v9.29h5
		c2.13,0,3.8-0.43,5.01-1.28C167.99,179.15,168.59,177.99,168.59,176.52z"/>
	<path class="st1" d="M118.07,251.41c-1.58,1.53-2.37,3.53-2.37,6c0,2.48,0.77,4.47,2.32,5.98c1.54,1.5,3.56,2.26,6.04,2.26
		c2.66,0,4.74-0.72,6.27-2.15c1.53-1.44,2.29-3.46,2.29-6.04c0-2.65-0.74-4.7-2.22-6.15c-1.48-1.44-3.54-2.17-6.14-2.17
		C121.72,249.13,119.66,249.89,118.07,251.41z"/>
	<path class="st1" d="M232.61,120.23c2.61,0,4.84-1.2,6.74-3.61c1.91-2.41,3.06-5.44,3.46-9.03h-19.31
		C223.49,116.01,226.52,120.23,232.61,120.23z"/>
	<path class="st1" d="M183.27,254.5c0.25-0.48,0.37-1.02,0.37-1.62c0-1.08-0.42-1.91-1.25-2.51c-0.84-0.6-2.05-0.91-3.63-0.91h-3.88
		v7.29h3.84c0.71,0,1.36-0.09,1.96-0.27c0.61-0.18,1.12-0.43,1.56-0.77C182.67,255.39,183.02,254.98,183.27,254.5z"/>
	<path class="st1" d="M203.45,249.77h-0.07c-0.11,0.57-0.24,1.02-0.39,1.35l-3.76,8.56h8.38l-3.79-8.56
		C203.7,250.84,203.57,250.38,203.45,249.77z"/>
	<path class="st1" d="M239.78,203.27h-0.11c-0.18,1.2-0.39,2.14-0.63,2.83l-6.16,18.04h13.71l-6.2-18.04
		C240.18,205.5,239.97,204.55,239.78,203.27z"/>
	<path class="st1" d="M215.56,173.21c-1.2-0.8-2.85-1.21-4.99-1.21h-5.04v9.29h5c2.12,0,3.8-0.43,5.01-1.28
		c1.21-0.85,1.81-2.01,1.81-3.49C217.34,175.11,216.75,174.01,215.56,173.21z"/>
	<path class="st1" d="M159.26,251.3c-1.48-1.44-3.53-2.17-6.14-2.17c-2.53,0-4.59,0.76-6.18,2.28c-1.58,1.53-2.37,3.53-2.37,6
		c0,2.47,0.77,4.46,2.31,5.98c1.55,1.5,3.57,2.26,6.05,2.26c2.65,0,4.74-0.72,6.27-2.15c1.53-1.44,2.29-3.46,2.29-6.04
		C161.48,254.79,160.74,252.74,159.26,251.3z"/>
	<path class="st1" d="M214.07,164.92c1.1-0.79,1.65-1.88,1.65-3.28c0-2.58-2.25-3.88-6.74-3.88h-3.45v8.35h4.05
		C211.48,166.11,212.98,165.71,214.07,164.92z"/>
	<path class="st1" d="M156.43,236.72c4.34,0,7.76-1.51,10.26-4.55c2.5-3.03,3.74-7.28,3.74-12.73c0-5.6-1.21-9.91-3.63-12.97
		c-2.43-3.06-5.78-4.57-10.05-4.57c-4.15,0-7.52,1.6-10.12,4.81c-2.59,3.21-3.89,7.43-3.89,12.64c0,5.22,1.26,9.41,3.79,12.6
		C149.07,235.12,152.38,236.72,156.43,236.72z"/>
	<path class="st2" d="M303.97,98c0.87,0,1.57-0.7,1.57-1.56v-6.25c0-0.33-0.1-0.63-0.28-0.89c-0.26,0.44-0.72,0.74-1.26,0.74
		c-0.55,0-1.03-0.32-1.28-0.79c-0.2,0.26-0.32,0.58-0.32,0.93v6.25C302.4,97.3,303.1,98,303.97,98z"/>
	<path class="st2" d="M96.07,304.17c-3.84-1.93-7.62-3.92-11.23-5.93c-0.76-0.42-1.72-0.15-2.14,0.6c-0.42,0.75-0.15,1.7,0.61,2.13
		c3.65,2.02,7.46,4.04,11.34,5.98l0.7,0.17c0.58,0,1.13-0.31,1.4-0.85C97.16,305.5,96.85,304.56,96.07,304.17z"/>
	<path class="st2" d="M179.71,324.99c-4.87,1.28-8.99,2.11-12.27,2.45c-0.87,0.09-1.49,0.85-1.4,1.72c0.08,0.8,0.77,1.39,1.56,1.39
		l0.17-0.01c3.44-0.36,7.73-1.21,12.75-2.54c0.84-0.22,1.34-1.07,1.11-1.91C181.41,325.26,180.56,324.77,179.71,324.99z"/>
	<path class="st2" d="M136.99,321.39c-3.84-1.29-7.86-2.75-11.93-4.33c-0.81-0.32-1.72,0.08-2.04,0.89
		c-0.32,0.8,0.08,1.71,0.89,2.02c4.12,1.6,8.18,3.07,12.07,4.38l0.5,0.08c0.66,0,1.27-0.41,1.49-1.06
		C138.26,322.55,137.82,321.66,136.99,321.39z"/>
	<path class="st2" d="M116.24,313.49c-3.89-1.64-7.79-3.38-11.6-5.16c-0.78-0.37-1.72-0.03-2.09,0.74
		c-0.37,0.78-0.04,1.71,0.75,2.08c3.84,1.8,7.78,3.55,11.71,5.21l0.61,0.12c0.61,0,1.19-0.36,1.45-0.95
		C117.41,314.74,117.04,313.82,116.24,313.49z"/>
	<path class="st2" d="M200.79,318.12c-4.15,1.56-8.18,2.97-11.98,4.19c-0.82,0.27-1.28,1.14-1.01,1.96c0.21,0.66,0.83,1.08,1.5,1.08
		l0.48-0.08c3.85-1.23,7.93-2.66,12.12-4.24c0.81-0.31,1.22-1.21,0.92-2.01C202.51,318.22,201.6,317.82,200.79,318.12z"/>
	<path class="st2" d="M158.32,327.04c-3.49-0.56-7.61-1.52-12.26-2.84c-0.83-0.25-1.7,0.24-1.94,1.07c-0.24,0.83,0.24,1.7,1.08,1.93
		c4.76,1.35,9,2.33,12.61,2.92l0.25,0.02c0.76,0,1.43-0.55,1.55-1.31C159.76,327.98,159.18,327.18,158.32,327.04z"/>
	<path class="st2" d="M302.47,231.04l0.23,0.01c0.77,0,1.44-0.56,1.55-1.34c0.65-4.41,1.02-8.73,1.1-12.82
		c0.02-0.86-0.67-1.57-1.54-1.6c-0.82,0.07-1.59,0.67-1.61,1.53c-0.08,3.97-0.44,8.15-1.07,12.44
		C301.01,230.12,301.61,230.91,302.47,231.04z"/>
	<path class="st2" d="M303.97,120.19c0.87,0,1.57-0.7,1.57-1.56v-12.68c0-0.86-0.7-1.56-1.57-1.56c-0.87,0-1.57,0.7-1.57,1.56v12.68
		C302.4,119.49,303.1,120.19,303.97,120.19z"/>
	<path class="st2" d="M34.06,260.66c1.39,2.63,3.23,5.29,5.46,7.95c0.31,0.37,0.76,0.56,1.2,0.56c0.36,0,0.71-0.12,1.01-0.36
		c0.67-0.56,0.75-1.54,0.2-2.2c-2.08-2.48-3.79-4.96-5.08-7.39c-0.5-0.96-0.99-1.96-1.46-2.97c-0.36-0.78-1.3-1.13-2.08-0.77
		c-0.79,0.36-1.14,1.29-0.77,2.07C33.02,258.6,33.53,259.64,34.06,260.66z"/>
	<path class="st2" d="M248.94,297.2c0.29,0.5,0.82,0.77,1.36,0.77c0.27,0,0.54-0.07,0.79-0.21c3.79-2.2,7.47-4.47,10.92-6.73
		c0.73-0.47,0.93-1.44,0.45-2.16c-0.47-0.72-1.45-0.92-2.17-0.45c-3.42,2.23-7.05,4.47-10.79,6.64
		C248.75,295.5,248.5,296.45,248.94,297.2z"/>
	<path class="st2" d="M64.16,289.29c3.39,2.29,7.04,4.6,10.83,6.88c0.25,0.15,0.54,0.22,0.81,0.22c0.53,0,1.05-0.27,1.34-0.76
		c0.45-0.74,0.21-1.69-0.53-2.14c-3.75-2.25-7.34-4.53-10.69-6.79c-0.71-0.48-1.69-0.29-2.18,0.42
		C63.25,287.83,63.44,288.8,64.16,289.29z"/>
	<path class="st2" d="M47.05,276.21c2.82,2.48,5.93,5.01,9.25,7.5c0.28,0.21,0.62,0.31,0.95,0.31c0.48,0,0.95-0.21,1.25-0.62
		c0.52-0.69,0.38-1.67-0.31-2.18c-3.26-2.44-6.31-4.91-9.06-7.33l-0.7-0.62c-0.64-0.58-1.64-0.53-2.22,0.11
		c-0.58,0.64-0.53,1.63,0.11,2.21L47.05,276.21z"/>
	<path class="st2" d="M303.97,142.39c0.87,0,1.57-0.7,1.57-1.56v-12.68c0-0.86-0.7-1.56-1.57-1.56c-0.87,0-1.57,0.7-1.57,1.56v12.68
		C302.4,141.69,303.1,142.39,303.97,142.39z"/>
	<path class="st2" d="M286.02,271.52c0.42,0,0.84-0.17,1.15-0.5c3.24-3.46,5.79-6.94,7.62-10.38l-1.3-0.91l1.39,0.72
		c0.4-0.76,0.05-1.6-0.72-2c-0.76-0.4-1.77,0-2.17,0.76c-1.68,3.18-4.08,6.43-7.12,9.69c-0.59,0.64-0.56,1.62,0.08,2.21
		C285.25,271.38,285.63,271.52,286.02,271.52z"/>
	<path class="st2" d="M296.76,252.47l0.54,0.09c0.64,0,1.24-0.39,1.48-1.02c1.43-3.87,2.66-8.02,3.67-12.34
		c0.2-0.84-0.33-1.68-1.17-1.87c-0.84-0.19-1.69,0.33-1.89,1.17c-0.98,4.2-2.18,8.22-3.56,11.97
		C295.53,251.27,295.95,252.17,296.76,252.47z"/>
	<path class="st2" d="M269.03,285.88c0.32,0,0.64-0.09,0.92-0.29c3.65-2.63,7.06-5.29,10.14-7.92c0.66-0.56,0.74-1.55,0.17-2.2
		c-0.56-0.66-1.56-0.73-2.21-0.17c-3.01,2.56-6.35,5.18-9.94,7.75c-0.7,0.51-0.86,1.48-0.35,2.18
		C268.06,285.66,268.55,285.88,269.03,285.88z"/>
	<path class="st2" d="M303.94,164.57L303.94,164.57c0.87,0,1.57-0.7,1.57-1.56l0.02-12.68c0-0.86-0.7-1.56-1.57-1.56h0
		c-0.86,0-1.57,0.7-1.57,1.56l-0.02,12.67C302.37,163.87,303.07,164.57,303.94,164.57z"/>
	<path class="st2" d="M303.87,186.74L303.87,186.74c0.87,0,1.57-0.69,1.58-1.55l0.05-12.67c0-0.86-0.7-1.56-1.56-1.57h-0.01
		c-0.86,0-1.57,0.7-1.57,1.56l-0.05,12.67C302.3,186.04,303,186.74,303.87,186.74z"/>
	<path class="st2" d="M24.99,189.99c-0.81,0.09-1.58,0.7-1.57,1.57l0.04,12.66c0,0.86,0.71,1.56,1.57,1.56h0
		c0.87-0.01,1.57-0.7,1.57-1.57l-0.04-12.67C26.55,190.68,25.85,189.99,24.99,189.99z"/>
	<path class="st2" d="M241.2,299.71c-3.64,1.96-7.43,3.92-11.29,5.8c-0.78,0.38-1.1,1.32-0.71,2.09c0.27,0.55,0.83,0.87,1.41,0.87
		l0.69-0.16c3.88-1.9,7.72-3.87,11.39-5.86c0.76-0.41,1.05-1.36,0.63-2.12C242.92,299.58,241.96,299.3,241.2,299.71z"/>
	<path class="st2" d="M24.86,139.25c0.87,0,1.57-0.7,1.57-1.56V125c0-0.86-0.7-1.56-1.57-1.56c-0.87,0-1.57,0.7-1.57,1.56v12.69
		C23.29,138.55,23.99,139.25,24.86,139.25z"/>
	<path class="st2" d="M24.86,117.05c0.87,0,1.57-0.7,1.57-1.56v-12.68c0-0.86-0.7-1.56-1.57-1.56c-0.87,0-1.57,0.7-1.57,1.56v12.68
		C23.29,116.35,23.99,117.05,24.86,117.05z"/>
	<path class="st2" d="M221.3,309.58c-3.88,1.76-7.79,3.46-11.65,5.05c-0.8,0.33-1.18,1.24-0.85,2.04c0.25,0.6,0.84,0.96,1.45,0.96
		l0.6-0.12c3.9-1.6,7.85-3.31,11.76-5.09c0.79-0.36,1.13-1.29,0.78-2.07C223.03,309.57,222.09,309.22,221.3,309.58z"/>
	<path class="st2" d="M25.03,212.16c-0.87,0-1.57,0.7-1.57,1.56v1.39c0,3.63,0.24,7.48,0.71,11.45c0.09,0.79,0.77,1.38,1.56,1.38
		l0.19-0.01c0.86-0.1,1.48-0.88,1.38-1.73c-0.45-3.84-0.68-7.57-0.68-11.08v-1.39C26.6,212.85,25.9,212.16,25.03,212.16z"/>
	<path class="st2" d="M303.8,208.92L303.8,208.92c0.87,0,1.57-0.7,1.57-1.56l0.03-12.67c0-0.86-0.7-1.56-1.56-1.57h-0.01
		c-0.86,0-1.57,0.7-1.57,1.55l-0.03,12.67C302.23,208.21,302.93,208.92,303.8,208.92z"/>
	<path class="st2" d="M26.93,234.24c-0.85,0.17-1.4,1-1.23,1.84c0.88,4.31,1.99,8.5,3.3,12.44c0.22,0.65,0.83,1.07,1.49,1.07
		l0.49-0.08c0.83-0.26,1.27-1.15,1-1.97c-1.27-3.83-2.35-7.89-3.21-12.08C28.6,234.61,27.78,234.07,26.93,234.24z"/>
	<path class="st2" d="M24.9,167.81c-0.82,0.08-1.57,0.7-1.57,1.57l0.04,12.67c0,0.86,0.71,1.56,1.57,1.56h0.01
		c0.87,0,1.57-0.7,1.56-1.57l-0.04-12.67C26.47,168.51,25.77,167.81,24.9,167.81z"/>
	<path class="st2" d="M24.86,145.64c-0.87,0-1.57,0.7-1.57,1.56l0.02,12.68c0,0.86,0.7,1.56,1.57,1.56h0c0.87,0,1.57-0.7,1.57-1.56
		l-0.02-12.67C26.43,146.33,25.73,145.64,24.86,145.64z"/>
	<path class="st2" d="M24.86,94.87c0.87,0,1.57-0.7,1.57-1.56v-6.25c0-0.15-0.03-0.29-0.07-0.43v1.85c0,0.86-0.66,1.56-1.48,1.56
		c-0.82,0-1.48-0.7-1.48-1.56v-1.97c-0.07,0.17-0.11,0.36-0.11,0.55v6.25C23.29,94.17,23.99,94.87,24.86,94.87z"/>
	<path class="st2" d="M24.88,90.04c0.82,0,1.48-0.7,1.48-1.56v-1.85v-4.4c0-0.86-0.66-1.56-1.48-1.56c-0.82,0-1.48,0.7-1.48,1.56
		v4.28v1.97C23.4,89.35,24.06,90.04,24.88,90.04z"/>
	<path class="st2" d="M24.88,72.71c0.82,0,1.48-0.7,1.48-1.56V56.35c0-0.86-0.66-1.56-1.48-1.56c-0.82,0-1.48,0.7-1.48,1.56v14.79
		C23.4,72.01,24.06,72.71,24.88,72.71z"/>
	<path class="st2" d="M24.88,46.82c0.82,0,1.48-0.7,1.48-1.56V30.47c0-0.86-0.66-1.56-1.48-1.56c-0.82,0-1.48,0.7-1.48,1.56v14.79
		C23.4,46.12,24.06,46.82,24.88,46.82z"/>
	<path class="st2" d="M304,46.82c0.82,0,1.48-0.7,1.48-1.56V30.47c0-0.86-0.66-1.56-1.48-1.56c-0.82,0-1.48,0.7-1.48,1.56v14.79
		C302.52,46.12,303.18,46.82,304,46.82z"/>
	<path class="st2" d="M304,72.71c0.82,0,1.48-0.7,1.48-1.56V56.35c0-0.86-0.66-1.56-1.48-1.56c-0.82,0-1.48,0.7-1.48,1.56v14.79
		C302.52,72.01,303.18,72.71,304,72.71z"/>
	<path class="st2" d="M304,90.04c0.53,0,1-0.3,1.26-0.74c0.14-0.24,0.23-0.52,0.23-0.82v-6.25c0-0.86-0.66-1.56-1.48-1.56
		c-0.82,0-1.48,0.7-1.48,1.56v6.25c0,0.28,0.08,0.54,0.2,0.77C302.97,89.73,303.45,90.04,304,90.04z"/>
	<rect x="182.64" y="43.89" class="st2" width="16.18" height="87.15"/>
	<path class="st2" d="M161,62.85c2.78,0,5.02-0.88,6.75-2.63c1.71-1.76,2.59-4.04,2.59-6.79c0-2.73-0.88-4.95-2.59-6.67
		c-1.73-1.73-3.97-2.59-6.75-2.59c-2.73,0-4.97,0.86-6.7,2.59c-1.75,1.73-2.62,3.94-2.62,6.67c0,2.65,0.87,4.86,2.62,6.69
		C156.03,61.95,158.28,62.85,161,62.85z"/>
	<path class="st2" d="M232.5,132.47c7.38,0,13.61-2.84,18.67-8.56c5.05-5.71,7.58-13.46,7.58-23.23c0-9.42-2.34-16.78-7.02-22.04
		c-4.69-5.28-11.27-7.91-19.73-7.91c-7.73,0-14.03,1.45-18.91,4.35V88.2c4.41-3.06,9.48-4.59,15.22-4.59
		c9.08,0,13.89,4.28,14.4,12.82h-34.24v7.65c0,8.73,2.1,15.66,6.28,20.76C218.93,129.92,224.86,132.47,232.5,132.47z M242.81,107.59
		c-0.4,3.59-1.56,6.61-3.46,9.03c-1.89,2.41-4.13,3.61-6.74,3.61c-6.09,0-9.11-4.22-9.11-12.64H242.81z"/>
	<rect x="152.82" y="72.17" class="st2" width="16.18" height="58.87"/>
	<path class="st2" d="M95.82,112.7h26.14l5.23,18.35h18.04L119.09,48.6H99.46l-26.76,82.44h17.95L95.82,112.7z M107.35,70.5
		c0.68-2.37,1.1-4.77,1.28-7.18h0.41c0.24,2.87,0.67,5.34,1.24,7.42l7.89,27.71H99.35L107.35,70.5z"/>
	<rect x="96.01" y="198.12" class="st2" width="4.63" height="42.34"/>
	<path class="st2" d="M183.06,222.46h3.8c0.87,0,1.65,0.11,2.34,0.34c0.69,0.22,1.33,0.58,1.93,1.08c0.6,0.49,1.18,1.12,1.75,1.9
		c0.57,0.79,1.16,1.72,1.76,2.82l6.63,11.88h5.52l-7.43-12.73c-0.52-0.93-1.01-1.74-1.44-2.43c-0.43-0.71-0.88-1.34-1.32-1.88
		c-0.43-0.55-0.9-1.03-1.38-1.44c-0.49-0.4-1.06-0.75-1.73-1.08v-0.11c1.34-0.37,2.55-0.91,3.63-1.58c1.07-0.68,1.99-1.5,2.76-2.47
		c0.76-0.96,1.35-2.06,1.76-3.29c0.41-1.23,0.62-2.59,0.62-4.06c0-1.89-0.3-3.54-0.91-4.95c-0.6-1.4-1.44-2.58-2.52-3.53
		c-1.07-0.95-2.34-1.64-3.8-2.11c-1.46-0.46-3.06-0.69-4.78-0.69h-11.8v42.34h4.63V222.46z M183.06,202.61h6.34
		c2.59,0,4.58,0.64,5.94,1.9c1.37,1.27,2.05,3.03,2.05,5.3c0,1.26-0.2,2.4-0.6,3.41c-0.41,1.02-0.97,1.87-1.68,2.57
		c-0.72,0.71-1.57,1.24-2.55,1.62c-0.98,0.37-2.05,0.56-3.21,0.56h-6.29V202.61z"/>
	<path class="st2" d="M257.42,240.47l-15.22-42.34h-4.8l-15.16,42.34h5.15l3.94-11.88h16.77l4.19,11.88H257.42z M232.88,224.14
		l6.16-18.04c0.24-0.69,0.45-1.63,0.63-2.83h0.11c0.2,1.29,0.41,2.24,0.6,2.83l6.2,18.04H232.88z"/>
	<polygon class="st2" points="218.07,240.47 218.07,202.61 229.49,202.61 229.49,198.12 202.05,198.12 202.05,202.61 213.44,202.61 
		213.44,240.47 	"/>
	<path class="st2" d="M103.8,219.86c0,6.42,1.74,11.58,5.23,15.47c3.48,3.9,8.05,5.85,13.69,5.85c4.86,0,9.27-1.2,13.23-3.6v-19.19
		h-13.29v4.48h8.66v11.88c-2.26,1.31-4.93,1.97-8.02,1.97c-4.51,0-8.08-1.53-10.71-4.59c-2.62-3.06-3.94-7.27-3.94-12.62
		c0-5.2,1.41-9.43,4.25-12.7c2.83-3.27,6.47-4.89,10.89-4.89c4.38,0,8.17,1.08,11.36,3.24v-5.49c-2.92-1.49-6.53-2.25-10.83-2.25
		c-5.94,0-10.84,2.11-14.71,6.31C105.74,207.92,103.8,213.3,103.8,219.86z"/>
	<path class="st2" d="M156.43,241.17c5.74,0,10.32-2.01,13.73-6.02c3.42-4.02,5.13-9.49,5.13-16.39c0-6.36-1.67-11.51-5.01-15.45
		c-3.33-3.93-7.73-5.91-13.19-5.91c-5.92,0-10.61,2.04-14.05,6.09c-3.43,4.05-5.15,9.48-5.15,16.3c0,6.34,1.69,11.49,5.06,15.44
		C146.33,239.2,150.82,241.17,156.43,241.17z M146.64,206.71c2.6-3.2,5.97-4.81,10.12-4.81c4.27,0,7.62,1.52,10.05,4.57
		c2.43,3.06,3.63,7.37,3.63,12.97c0,5.45-1.24,9.69-3.74,12.73c-2.51,3.03-5.92,4.55-10.26,4.55c-4.06,0-7.36-1.59-9.88-4.77
		c-2.53-3.18-3.79-7.38-3.79-12.6C142.76,214.14,144.06,209.93,146.64,206.71z"/>
	<path class="st2" d="M85.8,235.01c-1.41,1.14-3.54,1.7-6.39,1.7c-0.82,0-1.72-0.09-2.7-0.26c-0.97-0.18-1.94-0.44-2.91-0.76
		c-0.96-0.32-1.88-0.73-2.76-1.2c-0.87-0.47-1.62-1-2.25-1.59v5.85c0.52,0.37,1.21,0.71,2.06,1.02c0.86,0.3,1.76,0.56,2.71,0.77
		c0.96,0.21,1.9,0.36,2.82,0.47c0.92,0.11,1.69,0.16,2.32,0.16c1.88,0,3.66-0.2,5.36-0.61c1.68-0.4,3.18-1.06,4.48-1.96
		c1.29-0.9,2.33-2.08,3.09-3.53c0.76-1.44,1.14-3.22,1.14-5.3c0-1.57-0.27-2.98-0.84-4.2c-0.56-1.22-1.32-2.33-2.28-3.33
		c-0.95-1-2.06-1.92-3.33-2.74c-1.27-0.82-2.61-1.61-4.03-2.37c-1.37-0.72-2.6-1.39-3.65-2c-1.05-0.6-1.96-1.24-2.69-1.88
		c-0.73-0.65-1.29-1.37-1.67-2.16c-0.38-0.79-0.56-1.72-0.56-2.8c0-1.17,0.24-2.15,0.74-2.95c0.5-0.81,1.14-1.47,1.93-1.99
		c0.79-0.51,1.69-0.88,2.7-1.11c1.02-0.22,2.03-0.33,3.04-0.33c3.65,0,6.65,0.86,8.99,2.6v-5.58c-1.79-1.01-4.63-1.51-8.52-1.51
		c-1.71,0-3.39,0.23-5.03,0.69c-1.65,0.45-3.12,1.14-4.4,2.07c-1.28,0.93-2.33,2.1-3.12,3.53c-0.79,1.43-1.18,3.1-1.18,5.04
		c0,1.57,0.26,2.94,0.76,4.11c0.51,1.17,1.2,2.22,2.08,3.15c0.89,0.93,1.92,1.78,3.12,2.54c1.2,0.77,2.48,1.53,3.86,2.28
		c1.31,0.7,2.52,1.38,3.66,2.02c1.13,0.65,2.11,1.31,2.94,2.02c0.82,0.69,1.47,1.47,1.94,2.32c0.47,0.85,0.71,1.83,0.71,2.98
		C87.91,232.25,87.2,233.88,85.8,235.01z"/>
	<path class="st2" d="M115.88,249.88c-2.1,1.92-3.15,4.5-3.15,7.74c0,3.01,1.04,5.45,3.09,7.32c2.06,1.88,4.8,2.82,8.23,2.82
		c3.51,0,6.31-0.95,8.4-2.86c2.09-1.91,3.13-4.5,3.13-7.78c0-3.02-1.02-5.46-3.06-7.33c-2.03-1.87-4.72-2.8-8.06-2.8
		C120.84,247,117.98,247.96,115.88,249.88z M132.62,257.45c0,2.59-0.76,4.6-2.29,6.04c-1.53,1.44-3.62,2.15-6.27,2.15
		c-2.48,0-4.5-0.76-6.04-2.26c-1.55-1.51-2.32-3.5-2.32-5.98c0-2.47,0.79-4.47,2.37-6c1.59-1.52,3.65-2.28,6.18-2.28
		c2.61,0,4.66,0.72,6.14,2.17C131.88,252.75,132.62,254.8,132.62,257.45z"/>
	<rect x="254.47" y="247.34" class="st2" width="2.83" height="20.09"/>
	<path class="st2" d="M108.5,267.43l-4.54-6.04c-0.32-0.44-0.62-0.82-0.88-1.15c-0.26-0.34-0.54-0.63-0.81-0.89
		c-0.26-0.26-0.55-0.49-0.84-0.69c-0.3-0.19-0.65-0.36-1.06-0.51v-0.05c0.82-0.17,1.56-0.43,2.22-0.75
		c0.65-0.32,1.22-0.71,1.69-1.17c0.47-0.45,0.82-0.98,1.08-1.56c0.25-0.58,0.38-1.23,0.38-1.93c0-0.9-0.19-1.68-0.56-2.35
		c-0.37-0.66-0.88-1.22-1.54-1.67c-0.65-0.45-1.43-0.78-2.32-1c-0.89-0.22-1.87-0.33-2.92-0.33h-7.22v20.09H94v-8.55h2.32
		c0.53,0,1.01,0.05,1.43,0.16c0.42,0.1,0.81,0.27,1.18,0.51c0.36,0.23,0.72,0.53,1.07,0.9c0.35,0.37,0.71,0.82,1.08,1.34l4.05,5.64
		H108.5z M99.8,256.48c-0.59,0.18-1.26,0.27-1.96,0.27H94v-7.29h3.88c1.58,0,2.8,0.3,3.63,0.91c0.84,0.6,1.25,1.44,1.25,2.51
		c0,0.6-0.12,1.14-0.37,1.62c-0.24,0.48-0.59,0.89-1.03,1.22C100.92,256.05,100.41,256.3,99.8,256.48z"/>
	<path class="st2" d="M81.65,248.9c-1.43-1.05-3.43-1.57-6.01-1.57h-6.64v20.09h2.83v-7.6h3.19c2.68,0,4.82-0.61,6.39-1.82
		c1.58-1.21,2.37-2.78,2.37-4.68C83.78,251.42,83.07,249.95,81.65,248.9z M79.27,256.59c-1.02,0.74-2.52,1.11-4.47,1.11h-2.97v-8.24
		h3.32c3.78,0,5.66,1.33,5.66,3.98C80.81,254.8,80.3,255.84,79.27,256.59z"/>
	<path class="st2" d="M214.24,267.43l-9.3-20.09H202l-9.27,20.09h3.15l2.41-5.64h10.25l2.56,5.64H214.24z M199.23,259.68l3.76-8.56
		c0.14-0.33,0.27-0.77,0.39-1.35h0.07c0.12,0.61,0.25,1.06,0.37,1.35l3.79,8.56H199.23z"/>
	<path class="st2" d="M159.73,266.08c0.56-0.33,1.08-0.72,1.58-1.18c2.09-1.91,3.13-4.5,3.13-7.78c0-3.02-1.02-5.46-3.07-7.33
		c-2.05-1.87-4.73-2.8-8.06-2.8c-3.61,0-6.47,0.96-8.58,2.89c-2.1,1.91-3.15,4.49-3.15,7.74c0,3.01,1.03,5.45,3.09,7.32
		c2.08,1.88,4.82,2.82,8.24,2.82c1.42,0,2.72-0.15,3.92-0.46l4.55,2.83h5.14L159.73,266.08z M152.92,265.65
		c-2.48,0-4.5-0.75-6.05-2.26c-1.54-1.52-2.31-3.51-2.31-5.98c0-2.47,0.79-4.47,2.37-6c1.59-1.52,3.65-2.28,6.18-2.28
		c2.61,0,4.66,0.72,6.14,2.17c1.48,1.44,2.22,3.49,2.22,6.15c0,2.59-0.76,4.6-2.29,6.04C157.66,264.93,155.57,265.65,152.92,265.65z
		"/>
	<path class="st2" d="M234.16,261.29c-0.29,0.54-0.68,1.36-1.16,2.46h-0.1c-0.17-0.53-0.54-1.33-1.12-2.41l-7.42-14.01h-3.74v20.09
		h2.73v-13.46c0-1.82-0.04-3.13-0.13-3.94h0.07c0.25,0.93,0.49,1.61,0.73,2.06l8.24,15.33h1.39l8.25-15.44
		c0.22-0.39,0.46-1.04,0.73-1.95h0.07c-0.16,1.55-0.24,2.85-0.24,3.91v13.48h2.81v-20.09h-3.53L234.16,261.29z"/>
	<path class="st2" d="M184.83,261.38c-0.32-0.44-0.61-0.82-0.88-1.15c-0.27-0.34-0.54-0.63-0.81-0.89
		c-0.27-0.26-0.55-0.49-0.84-0.69c-0.3-0.19-0.65-0.36-1.06-0.51v-0.05c0.82-0.17,1.56-0.43,2.22-0.75
		c0.66-0.32,1.22-0.71,1.69-1.17c0.46-0.45,0.82-0.98,1.08-1.56c0.25-0.58,0.38-1.23,0.38-1.93c0-0.9-0.19-1.68-0.56-2.35
		c-0.37-0.66-0.88-1.22-1.54-1.67c-0.65-0.45-1.43-0.78-2.32-1c-0.89-0.22-1.87-0.33-2.93-0.33h-7.21v20.09h2.83v-8.55h2.33
		c0.53,0,1.01,0.05,1.43,0.16c0.42,0.1,0.81,0.27,1.18,0.51c0.36,0.23,0.72,0.53,1.07,0.9c0.35,0.37,0.71,0.82,1.08,1.34l4.05,5.64
		h3.37L184.83,261.38z M180.68,256.48c-0.6,0.18-1.25,0.27-1.96,0.27h-3.84v-7.29h3.88c1.58,0,2.8,0.3,3.63,0.91
		c0.84,0.6,1.25,1.44,1.25,2.51c0,0.6-0.12,1.14-0.37,1.62c-0.25,0.48-0.6,0.89-1.03,1.22C181.8,256.05,181.28,256.3,180.68,256.48z
		"/>
	<rect x="117.77" y="190.3" class="st2" width="9.3" height="3.92"/>
	<path class="st2" d="M249.67,148.66c1.27,0,2.32-0.32,3.12-0.96c0.81-0.63,1.21-1.44,1.21-2.4c0-0.96-0.4-1.76-1.21-2.38
		c-0.81-0.62-1.85-0.94-3.12-0.94c-1.26,0-2.31,0.31-3.14,0.92c-0.84,0.62-1.26,1.42-1.26,2.4c0,0.93,0.41,1.73,1.24,2.38
		C247.34,148.33,248.4,148.66,249.67,148.66z"/>
	<path class="st2" d="M174.27,184.29c2.68-1.89,4.02-4.45,4.02-7.67c0-2.21-0.87-4.08-2.61-5.62c-1.74-1.53-4.07-2.46-6.98-2.77
		v-0.1c2.33-0.55,4.23-1.54,5.73-2.97c1.49-1.42,2.24-3.09,2.24-4.98c0-2.61-1.22-4.65-3.68-6.08c-2.45-1.44-5.96-2.16-10.53-2.16
		h-14.9v35.2h15.73C167.92,187.12,171.58,186.18,174.27,184.29z M156.78,157.76h3.45c4.49,0,6.74,1.29,6.74,3.88
		c0,1.39-0.55,2.48-1.65,3.28c-1.09,0.79-2.59,1.19-4.49,1.19h-4.05V157.76z M156.78,181.29V172h5.05c2.13,0,3.79,0.4,4.99,1.21
		c1.19,0.8,1.78,1.9,1.78,3.31c0,1.47-0.6,2.64-1.81,3.49c-1.21,0.85-2.88,1.28-5.01,1.28H156.78z"/>
	<path class="st2" d="M122.37,148.66c1.28,0,2.32-0.32,3.13-0.96c0.81-0.63,1.21-1.44,1.21-2.4c0-0.96-0.4-1.76-1.21-2.38
		c-0.81-0.62-1.85-0.94-3.13-0.94c-1.26,0-2.31,0.31-3.14,0.92c-0.84,0.62-1.26,1.42-1.26,2.4c0,0.93,0.41,1.73,1.24,2.38
		C120.05,148.33,121.1,148.66,122.37,148.66z"/>
	<polygon class="st2" points="80.05,187.12 89.3,187.12 89.3,158.38 100.97,158.38 100.97,151.93 68.45,151.93 68.45,158.38 
		80.05,158.38 	"/>
	<rect x="245.05" y="151.93" class="st2" width="9.22" height="35.2"/>
	<path class="st2" d="M223.18,165.15c1.49-1.42,2.24-3.09,2.24-4.98c0-2.61-1.23-4.65-3.68-6.08c-2.46-1.44-5.96-2.16-10.53-2.16
		h-14.9v35.2h15.73c4.64,0,8.3-0.95,10.99-2.83c2.68-1.89,4.02-4.45,4.02-7.67c0-2.21-0.88-4.08-2.61-5.62
		c-1.74-1.53-4.07-2.46-6.98-2.77v-0.1C219.78,167.57,221.68,166.58,223.18,165.15z M205.53,157.76h3.45c4.49,0,6.74,1.29,6.74,3.88
		c0,1.39-0.55,2.48-1.65,3.28c-1.09,0.79-2.59,1.19-4.49,1.19h-4.05V157.76z M215.53,180c-1.21,0.85-2.88,1.28-5.01,1.28h-5V172
		h5.04c2.14,0,3.79,0.4,4.99,1.21c1.19,0.8,1.79,1.9,1.79,3.31C217.34,177.99,216.74,179.15,215.53,180z"/>
	<rect x="117.76" y="151.93" class="st2" width="9.22" height="35.2"/>
</g>
</svg>
