<svg id="Слой_5" data-name="Слой 5" xmlns="http://www.w3.org/2000/svg" viewBox="0 0 309.95 298.9">
  <defs>
    <style>
      .cls-1 {
        fill: #d60911;
        fill-rule: evenodd;
      }
    </style>
  </defs>
  <path class="cls-1" d="M242.83,206.54c-5.09,5.4-13.23,14.92-17.84,21-6.89,9.08-5.68,10.62-14.4,20.11-40.3.57-104.86-67.9-103.44-103.17,54.9-44.37,47-18.82-15.19-103.14C63.35,1.33,28,60.66,24.38,85,13.69,156.45,61.08,213.92,103,259.58c140.31,121,214.26,50.54,229.23,4.65,3.13-9.62-7.26-14.57-17-21.84-14.1-10.47-55.95-37.74-72.36-35.85m75.7,56.52c-13,39-56.95,64.51-107.62,49.29C171.7,300.57,136.47,273.82,108,247.17,56.81,199.2,8,102.59,50.53,56.65,58.14,49,63.37,43.33,73.22,38.29c6.78,5.88,53.29,60.8,57,71.37C122.14,123.58,110.41,128.35,96,136c-1.51,20.47,2.72,35.56,12.32,49.45C133.7,222.08,170,262,219.62,258.79c8.56-12.72,16.81-31.14,29.15-38.62C265,223.58,311.76,252.56,318.53,263.06Z" transform="translate(-22.85 -27.83)"/>
  <path class="cls-1" d="M201.45,48.9C221.61,56.2,257.39,79,270.6,94.3c37.08,46.42,30.83,57,41.74,82.12,13.9,32.08,13.3-42.76-34.57-91.64C264.06,70.9,222.93,40,194.48,36c-22.51-3.2-8.28,7.42,7,12.94" transform="translate(-22.85 -27.83)"/>
  <path class="cls-1" d="M182.63,90.27c12.84,6.4,36.67,5.63,72.62,59.26,8.89,10.34,23,52.51,23.33,25.56.23-18.8-27.1-50.44-37.73-60.9-6.66-6.56-29.82-27.33-49.57-33.34s-27.45.05-8.65,9.42" transform="translate(-22.85 -27.83)"/>
</svg>
